SplineFontDB: 3.0
FontName: psychofont
FullName: Psycho's font
FamilyName: psychofont
Weight: Medium
Copyright: Written by Andrea Nardinocchi - 2014
Version: 001.000
ItalicAngle: 0
UnderlinePosition: -100
UnderlineWidth: 50
Ascent: 800
Descent: 200
sfntRevision: 0x00010000
LayerCount: 2
Layer: 0 1 "Back"  1
Layer: 1 1 "Fore"  0
XUID: [1021 368 1497645591 2390785]
FSType: 0
OS2Version: 1
OS2_WeightWidthSlopeOnly: 0
OS2_UseTypoMetrics: 1
CreationTime: 1277802766
ModificationTime: 1465254323
PfmFamily: 17
TTFWeight: 500
TTFWidth: 5
LineGap: 90
VLineGap: 0
Panose: 2 0 6 3 0 0 0 0 0 0
OS2TypoAscent: 800
OS2TypoAOffset: 0
OS2TypoDescent: -200
OS2TypoDOffset: 0
OS2TypoLinegap: 90
OS2WinAscent: 721
OS2WinAOffset: 0
OS2WinDescent: 200
OS2WinDOffset: 0
HheadAscent: 741
HheadAOffset: 0
HheadDescent: -200
HheadDOffset: 0
OS2SubXSize: 650
OS2SubYSize: 699
OS2SubXOff: 0
OS2SubYOff: 140
OS2SupXSize: 650
OS2SupYSize: 699
OS2SupXOff: 0
OS2SupYOff: 479
OS2StrikeYSize: 49
OS2StrikeYPos: 258
OS2Vendor: 'PfEd'
OS2CodePages: 00000001.00000000
OS2UnicodeRanges: 80000007.00000002.00000000.00000000
MarkAttachClasses: 1
DEI: 91125
TtTable: prep
PUSHW_1
 511
SCANCTRL
PUSHB_1
 1
SCANTYPE
SVTCA[y-axis]
MPPEM
PUSHB_1
 8
LT
IF
PUSHB_2
 1
 1
INSTCTRL
EIF
PUSHB_2
 70
 6
CALL
IF
POP
PUSHB_1
 16
EIF
MPPEM
PUSHB_1
 20
GT
IF
POP
PUSHB_1
 128
EIF
SCVTCI
PUSHB_1
 6
CALL
NOT
IF
EIF
EndTTInstrs
TtTable: fpgm
PUSHB_1
 0
FDEF
PUSHB_1
 0
SZP0
MPPEM
PUSHB_1
 42
LT
IF
PUSHB_1
 74
SROUND
EIF
PUSHB_1
 0
SWAP
MIAP[rnd]
RTG
PUSHB_1
 6
CALL
IF
RTDG
EIF
MPPEM
PUSHB_1
 42
LT
IF
RDTG
EIF
DUP
MDRP[rp0,rnd,grey]
PUSHB_1
 1
SZP0
MDAP[no-rnd]
RTG
ENDF
PUSHB_1
 1
FDEF
DUP
MDRP[rp0,min,white]
PUSHB_1
 12
CALL
ENDF
PUSHB_1
 2
FDEF
MPPEM
GT
IF
RCVT
SWAP
EIF
POP
ENDF
PUSHB_1
 3
FDEF
ROUND[Black]
RTG
DUP
PUSHB_1
 64
LT
IF
POP
PUSHB_1
 64
EIF
ENDF
PUSHB_1
 4
FDEF
PUSHB_1
 6
CALL
IF
POP
SWAP
POP
ROFF
IF
MDRP[rp0,min,rnd,black]
ELSE
MDRP[min,rnd,black]
EIF
ELSE
MPPEM
GT
IF
IF
MIRP[rp0,min,rnd,black]
ELSE
MIRP[min,rnd,black]
EIF

StartChar: .notdef
Encoding: 65536 -1 0
Width: 364
Flags: W
LayerCount: 2
Fore
SplineSet
33 0 m 1,0,-1
 33 666 l 1,1,-1
 298 666 l 1,2,-1
 298 0 l 1,3,-1
 33 0 l 1,0,-1
66 33 m 1,4,-1
 265 33 l 1,5,-1
 265 633 l 1,6,-1
 66 633 l 1,7,-1
 66 33 l 1,4,-1
EndSplineSet
Validated: 1
EndChar

StartChar: exclam
Encoding: 33 33 4
Width: 133
Flags: W
LayerCount: 2
Fore
SplineSet
17 44 m 0,0,1
 28 58 28 58 45 58 c 0,2,3
 46 58 46 58 58 56 c 0,4,5
 83 50 83 50 83 24 c 0,6,7
 83 9 83 9 64.5 -5.5 c 128,-1,8
 46 -20 46 -20 29 -20 c 0,9,10
 14 -20 14 -20 11 6 c 0,11,12
 10 14 10 14 9 20 c 0,13,14
 8 32 8 32 17 44 c 0,0,1
70 449 m 128,-1,16
 71 452 71 452 94 452 c 0,17,18
 114 452 114 452 120 439 c 0,19,20
 123 432 123 432 123 422 c 0,21,22
 123 415 123 415 121 404 c 0,23,24
 118 387 118 387 108 357 c 0,25,26
 99 332 99 332 91 304 c 128,-1,27
 83 276 83 276 83 255 c 0,28,29
 83 230 83 230 76.5 202 c 128,-1,30
 70 174 70 174 62 156 c 0,31,32
 53 137 53 137 45 140 c 0,33,34
 34 144 34 144 30 164 c 0,35,36
 28 173 28 173 28 184 c 0,37,38
 28 202 28 202 30 216 c 0,39,40
 35 250 35 250 42 278 c 0,41,42
 47 297 47 297 56 346 c 0,43,44
 63 386 63 386 65 401 c 0,45,15
 69 446 69 446 70 449 c 128,-1,16
EndSplineSet
Validated: 1
EndChar

StartChar: numbersign
Encoding: 35 35 5
Width: 450
Flags: W
LayerCount: 2
Fore
SplineSet
312 360 m 0,0,1
 325 392 325 392 332.5 398 c 128,-1,2
 340 404 340 404 355 396 c 0,3,4
 365 390 365 390 368.5 387.5 c 128,-1,5
 372 385 372 385 375 382 c 128,-1,6
 378 379 378 379 375 372 c 128,-1,7
 372 365 372 365 369 359 c 128,-1,8
 366 353 366 353 356 337 c 0,9,10
 336 303 336 303 336 293 c 0,11,12
 336 292 336 292 336 291 c 0,13,14
 336 283 336 283 377 283 c 0,15,16
 411 283 411 283 429 270.5 c 128,-1,17
 447 258 447 258 437 242 c 0,18,19
 429 229 429 229 373 229 c 0,20,21
 288 229 288 229 288 171 c 0,22,23
 288 158 288 158 300 156 c 0,24,25
 316 152 316 152 328 156 c 0,26,27
 339 160 339 160 347 159 c 0,28,29
 359 158 359 158 362 158 c 0,30,31
 382 155 382 155 395 142 c 0,32,33
 409 128 409 128 409 122 c 0,34,35
 409 117 409 117 395 107 c 128,-1,36
 381 97 381 97 358 97 c 0,37,38
 344 97 344 97 333 99 c 0,39,40
 320 101 320 101 314 101 c 0,41,42
 288 99 288 99 276 88 c 0,43,44
 257 71 257 71 249 20 c 128,-1,45
 241 -31 241 -31 224 -31 c 0,46,47
 212 -31 212 -31 212 -20 c 0,48,49
 212 -16 212 -16 212 -11 c 0,50,51
 212 6 212 6 215 31 c 1,52,-1
 223 93 l 1,53,-1
 186 90 l 2,54,55
 159 87 159 87 152.5 79 c 128,-1,56
 146 71 146 71 142 31 c 0,57,58
 140 9 140 9 134.5 -8.5 c 128,-1,59
 129 -26 129 -26 123 -28 c 0,60,61
 115 -31 115 -31 108 -18 c 0,62,63
 105 -13 105 -13 100 14 c 0,64,65
 99 19 99 19 99 24 c 0,66,67
 99 40 99 40 102 53 c 0,68,69
 106 71 106 71 101.5 76 c 128,-1,70
 97 81 97 81 76 81 c 0,71,72
 57 81 57 81 48 86.5 c 128,-1,73
 39 92 39 92 35 106 c 0,74,75
 34 111 34 111 33 119 c 0,76,77
 32 131 32 131 45 142 c 0,78,79
 57 152 57 152 78 152 c 0,80,81
 82 152 82 152 93 151 c 128,-1,82
 104 150 104 150 104 150 c 0,83,84
 112 146 112 146 128 156 c 0,85,86
 142 166 142 166 142 184 c 0,87,88
 142 192 142 192 85 192 c 1,89,90
 82 192 82 192 78 192 c 0,91,92
 75 192 75 192 72 192 c 0,93,94
 69.4167 191.917 69.4167 191.917 66.9306 191.917 c 0,95,96
 39.5833 191.917 39.5833 191.917 24 202 c 0,97,98
 10 211 10 211 10 228 c 0,99,100
 10 233 10 233 11 238 c 0,101,102
 13 246 13 246 28 250 c 0,103,104
 36 252 36 252 51 252 c 0,105,106
 71 252 71 252 79 251 c 128,-1,107
 87 250 87 250 100 250 c 0,108,109
 142 252 142 252 155 260 c 0,110,111
 174 272 174 272 181 316 c 1,112,113
 188 352 188 352 205 364 c 0,114,115
 212 369 212 369 218 369 c 0,116,117
 230 368 230 368 241 357 c 0,118,119
 254 344 254 344 252 332 c 0,120,121
 250 325 250 325 223 271 c 0,122,123
 222 269 222 269 227 268 c 128,-1,124
 232 267 232 267 237 267 c 0,125,-1
 273 279 l 0,126,127
 283 285 283 285 286 293 c 0,128,129
 292 311 292 311 312 360 c 0,0,1
253 182 m 0,130,131
 262 206 262 206 259 211 c 128,-1,132
 256 216 256 216 233 216 c 0,133,134
 209 216 209 216 195.5 205 c 128,-1,135
 182 194 182 194 173 167 c 0,136,137
 169 155 169 155 174.5 151.5 c 128,-1,138
 180 148 180 148 203.5 148 c 128,-1,139
 227 148 227 148 236.5 154.5 c 128,-1,140
 246 161 246 161 253 182 c 0,130,131
EndSplineSet
Validated: 1
EndChar

StartChar: dollar
Encoding: 36 36 6
Width: 410
Flags: W
LayerCount: 2
Fore
SplineSet
287 381 m 0,0,1
 299 391 299 391 308 389 c 128,-1,2
 317 387 317 387 322.5 380 c 128,-1,3
 328 373 328 373 337.5 370 c 128,-1,4
 347 367 347 367 361 374 c 1,5,6
 372.5 381 372.5 381 381.125 381 c 128,-1,7
 389.75 381 389.75 381 395.5 374 c 0,8,9
 400.309 368.145 400.309 368.145 400.309 360.542 c 0,10,11
 400.309 349.964 400.309 349.964 391 336 c 0,12,13
 382 321 382 321 379.5 299.5 c 0,14,15
 377.938 286.062 377.938 286.062 377.938 275.359 c 0,16,17
 377.938 268.938 377.938 268.938 378.5 263.5 c 0,18,19
 380 249 380 249 376 238 c 128,-1,20
 372 227 372 227 359 227 c 0,21,22
 339 227 339 227 315 178 c 2,23,-1
 291 128 l 1,24,-1
 335 99 l 2,25,26
 380 70 380 70 380 43 c 0,27,28
 380 15 380 15 348 -14.5 c 128,-1,29
 316 -44 316 -44 278 -49 c 1,30,31
 245 -55 245 -55 233 -73 c 0,32,33
 225.421 -84.3684 225.421 -84.3684 225.421 -102.518 c 0,34,35
 225.421 -113.105 225.421 -113.105 228 -126 c 1,36,37
 230.118 -134.118 230.118 -134.118 230.118 -141.301 c 0,38,39
 230.118 -154.471 230.118 -154.471 223 -164.5 c 0,40,41
 212 -180 212 -180 194 -173 c 0,42,43
 182 -169 182 -169 180 -156.5 c 0,44,45
 179.333 -152.333 179.333 -152.333 179.333 -145.111 c 0,46,47
 179.333 -130.667 179.333 -130.667 182 -104 c 1,48,49
 185.571 -77.5714 185.571 -77.5714 185.571 -63.898 c 0,50,51
 185.571 -58.4286 185.571 -58.4286 185 -55 c 0,52,53
 183 -43 183 -43 173 -43 c 0,54,55
 156 -43 156 -43 153 -90 c 0,56,57
 151 -120 151 -120 146 -129 c 128,-1,58
 141 -138 141 -138 127 -138 c 0,59,60
 112 -138 112 -138 108.5 -129.5 c 0,61,62
 106.273 -124.091 106.273 -124.091 106.273 -107.95 c 0,63,64
 106.273 -98.7273 106.273 -98.7273 107 -86 c 2,65,-1
 110 -34 l 1,66,-1
 65 -27 l 2,67,68
 25 -20 25 -20 13.5 -3 c 0,69,70
 9.77465 2.50704 9.77465 2.50704 9.77465 8.11902 c 0,71,72
 9.77465 19.831 9.77465 19.831 26 32 c 0,73,74
 39 41 39 41 46.5 40.5 c 128,-1,75
 54 40 54 40 69 30 c 0,76,77
 91.3077 14.6154 91.3077 14.6154 106.811 14.6154 c 0,78,79
 111.462 14.6154 111.462 14.6154 115.5 16 c 0,80,81
 133 22 133 22 149 58 c 0,82,83
 162 86 162 86 163.5 100 c 0,84,85
 163.737 102.211 163.737 102.211 163.737 104.496 c 0,86,87
 163.737 116.684 163.737 116.684 157 131 c 0,88,89
 145.44 155.48 145.44 155.48 145.44 173.718 c 0,90,91
 145.44 182.3 145.44 182.3 148 189.5 c 0,92,93
 156 212 156 212 199 252 c 0,94,95
 227 278 227 278 243 301 c 128,-1,96
 259 324 259 324 262.5 336.5 c 128,-1,97
 266 349 266 349 271.5 361 c 128,-1,98
 277 373 277 373 287 381 c 0,0,1
301 302 m 0,99,100
 301 291 301 291 313 302 c 0,101,102
 329 316 329 316 322 322 c 128,-1,103
 315 328 315 328 308 320 c 128,-1,104
 301 312 301 312 301 302 c 0,99,100
267 182 m 0,105,106
 267 200 267 200 278.5 210 c 128,-1,107
 290 220 290 220 290 228 c 0,108,109
 290 238 290 238 278 238 c 0,110,111
 269 238 269 238 250.5 198 c 0,112,113
 236.531 167.796 236.531 167.796 236.531 156.978 c 0,114,115
 236.531 153.469 236.531 153.469 238 152 c 1,116,117
 244 148 244 148 250.5 151 c 128,-1,118
 257 154 257 154 262 163 c 128,-1,119
 267 172 267 172 267 182 c 0,105,106
218 34 m 0,120,121
 230.071 88.7857 230.071 88.7857 230.071 97.0102 c 0,122,123
 230.071 97.6429 230.071 97.6429 230 98 c 256,124,125
 229 103 229 103 223 103 c 0,126,127
 213 103 213 103 195 71 c 128,-1,128
 177 39 177 39 177 20 c 256,129,130
 177 1 177 1 191 3 c 1,131,132
 207 4 207 4 216 27 c 0,133,134
 217 30 217 30 218 34 c 0,120,121
323 33 m 0,135,136
 323 41 323 41 316.5 51.5 c 128,-1,137
 310 62 310 62 300 67 c 1,138,139
 285 77 285 77 278.5 73.5 c 128,-1,140
 272 70 272 70 262 45 c 0,141,142
 251.76 21.32 251.76 21.32 251.76 9.1088 c 0,143,144
 251.76 2.24 251.76 2.24 255 -1 c 0,145,146
 259.314 -5.7451 259.314 -5.7451 267.163 -5.7451 c 0,147,148
 277.51 -5.7451 277.51 -5.7451 294 2.5 c 0,149,150
 323 17 323 17 323 33 c 0,135,136
EndSplineSet
Validated: 1
EndChar

StartChar: percent
Encoding: 37 37 7
Width: 326
Flags: W
LayerCount: 2
Fore
SplineSet
181 25 m 0,0,1
 203 99 203 99 246 112 c 0,2,3
 252.638 114.007 252.638 114.007 259.113 113.884 c 0,4,5
 282.783 113.433 282.783 113.433 296 87 c 0,6,7
 304 71 304 71 304 49.6667 c 0,8,9
 304 39 304 39 302 27 c 0,10,11
 288.01 -63.4712 288.01 -63.4712 233.133 -63.4712 c 0,12,13
 229.173 -63.4712 229.173 -63.4712 225 -63 c 1,14,15
 188 -60 188 -60 178 -39 c 0,16,17
 173.4 -29.3394 173.4 -29.3394 173.652 -16.5803 c 0,18,19
 174 1 174 1 181 25 c 0,0,1
249 8 m 0,20,21
 249 21 249 21 241 24.5 c 128,-1,22
 233 28 233 28 224 18 c 0,23,24
 217 11 217 11 222.5 1 c 128,-1,25
 228 -9 228 -9 239 -9 c 0,26,27
 243 -9 243 -9 246 -4 c 128,-1,28
 249 1 249 1 249 8 c 0,20,21
62 339 m 0,29,30
 85.04 348.216 85.04 348.216 102.329 348.216 c 0,31,32
 130.064 348.216 130.064 348.216 143 324.5 c 0,33,34
 151.481 308.952 151.481 308.952 151.481 287.451 c 0,35,36
 151.481 255.712 151.481 255.712 133 211 c 0,37,38
 119 177 119 177 92 161.5 c 0,39,40
 75.26 151.89 75.26 151.89 59.6732 151.89 c 0,41,42
 50.12 151.89 50.12 151.89 41 155.5 c 0,43,44
 17 165 17 165 11 197 c 256,45,46
 9.5 205 9.5 205 9.5 214.188 c 0,47,48
 9.5 241.75 9.5 241.75 23 280 c 0,49,50
 41 331 41 331 62 339 c 0,29,30
103 258 m 0,51,52
 103 264 103 264 98 268 c 128,-1,53
 93 272 93 272 87 272 c 0,54,55
 74 272 74 272 64 244.5 c 0,56,57
 58.7368 230.026 58.7368 230.026 58.7368 220.677 c 0,58,59
 58.7368 212.263 58.7368 212.263 63 208 c 0,60,61
 67 204 67 204 77 212.5 c 128,-1,62
 87 221 87 221 95 235 c 128,-1,63
 103 249 103 249 103 258 c 0,51,52
157 157 m 0,64,65
 225 292 225 292 255 344 c 128,-1,66
 285 396 285 396 297 396 c 0,67,68
 316.531 396 316.531 396 316.531 377.689 c 0,69,70
 316.531 372.562 316.531 372.562 315 366 c 1,71,72
 309 345 309 345 289 321 c 0,73,74
 261 289 261 289 176 124 c 0,75,76
 126 25 126 25 110.5 -14.5 c 0,77,78
 98.1795 -45.8974 98.1795 -45.8974 98.1795 -64.9744 c 0,79,80
 98.1795 -69.8974 98.1795 -69.8974 99 -74 c 0,81,82
 103 -93 103 -93 99 -103.5 c 128,-1,83
 95 -114 95 -114 80 -125 c 0,84,85
 65.6522 -134.783 65.6522 -134.783 53.6437 -134.783 c 0,86,87
 47.2391 -134.783 47.2391 -134.783 41.5 -132 c 0,88,89
 29.9149 -126.383 29.9149 -126.383 29.9149 -113.371 c 0,90,91
 29.9149 -107.851 29.9149 -107.851 32 -101 c 0,92,93
 38 -82 38 -82 157 157 c 0,64,65
EndSplineSet
Validated: 1
EndChar

StartChar: ampersand
Encoding: 38 38 8
Width: 504
Flags: W
LayerCount: 2
Fore
SplineSet
306 402 m 0,0,1
 335 421 335 421 367 423 c 0,2,3
 400 425 400 425 424 413 c 0,4,5
 449 401 449 401 464 376 c 0,6,7
 480 350 480 350 480 317 c 0,8,9
 480 222 480 222 379 171 c 0,10,11
 350 156 350 156 338 146 c 0,12,13
 322 132 322 132 322 124 c 0,14,15
 322 109 322 109 355 75 c 128,-1,16
 388 41 388 41 403 41 c 0,17,18
 411 41 411 41 424 54 c 128,-1,19
 437 67 437 67 440 78 c 0,20,21
 443 90 443 90 436 95 c 1,22,23
 422 99 422 99 424 127 c 0,24,25
 426 154 426 154 442 162 c 0,26,27
 459 171 459 171 527 156 c 0,28,29
 596 141 596 141 613 125 c 0,30,31
 637 102 637 102 606 91 c 0,32,33
 592 86 592 86 567 86 c 0,34,35
 539 86 539 86 524 79 c 128,-1,36
 509 72 509 72 490 51 c 0,37,38
 460 18 460 18 460 4 c 128,-1,39
 460 -10 460 -10 491 -30 c 0,40,41
 520 -48 520 -48 524 -69 c 0,42,43
 529 -93 529 -93 508 -101 c 0,44,45
 492 -107 492 -107 444 -84 c 0,46,47
 407 -66 407 -66 398 -67 c 0,48,49
 371 -70 371 -70 361 -83 c 0,50,51
 327 -127 327 -127 304 -133 c 0,52,53
 183 -164 183 -164 174 -149 c 2,54,-1
 146 -104 l 1,55,-1
 140 -68 l 2,56,57
 135 -39 135 -39 156 21 c 0,58,59
 175 75 175 75 203 112 c 0,60,61
 225 141 225 141 226 152 c 0,62,63
 228 166 228 166 217 203.001 c 0,64,65
 182 320.956 182 320.956 306 402 c 0,0,1
423 331.001 m 0,66,67
 408 359.001 408 359.001 381 364.501 c 128,-1,68
 354 370.001 354 370.001 328.5 356.501 c 128,-1,69
 303 343.001 303 343.001 284.5 313.501 c 128,-1,70
 266 284.001 266 284.001 266 248.001 c 0,71,72
 266 197.001 266 197.001 281 192.001 c 1,73,74
 298 185.001 298 185.001 347.5 213.001 c 128,-1,75
 397 241.001 397 241.001 417 269.001 c 0,76,77
 433 291.001 433 291.001 434 300.501 c 128,-1,78
 435 310.001 435 310.001 423 331.001 c 0,66,67
277 88.001 m 0,79,80
 277 111.001 277 111.001 245 81.001 c 0,81,82
 205 45.001 205 45.001 193 6.00098 c 0,83,84
 192 4.00098 192 4.00098 192 2.00098 c 0,85,86
 184 -26.999 184 -26.999 189.5 -51.499 c 128,-1,87
 195 -75.999 195 -75.999 211 -85.999 c 0,88,89
 228 -95.999 228 -95.999 259.5 -84.499 c 128,-1,90
 291 -72.999 291 -72.999 326 -42.999 c 1,91,-1
 357 -14.999 l 1,92,-1
 317 32.001 l 2,93,94
 277 79.001 277 79.001 277 88.001 c 0,79,80
EndSplineSet
Validated: 33
EndChar

StartChar: quotesingle
Encoding: 39 39 9
Width: 105
Flags: W
LayerCount: 2
Fore
SplineSet
46 633 m 0,0,1
 56.8 640.2 56.8 640.2 66.52 640.2 c 0,2,3
 73 640.2 73 640.2 79 637 c 0,4,5
 94 629 94 629 94.5 611 c 0,6,7
 94.5172 610.379 94.5172 610.379 94.5172 609.757 c 0,8,9
 94.5172 592.345 94.5172 592.345 81 574 c 1,10,11
 62 553 62 553 47 510 c 0,12,13
 30.9623 462.83 30.9623 462.83 18.4845 462.83 c 0,14,15
 17.7358 462.83 17.7358 462.83 17 463 c 1,16,17
 9.88235 463.647 9.88235 463.647 9.88235 479.785 c 0,18,19
 9.88235 488.588 9.88235 488.588 12 502 c 0,20,21
 29 621 29 621 46 633 c 0,0,1
EndSplineSet
Validated: 1
EndChar

StartChar: parenleft
Encoding: 40 40 10
Width: 158
Flags: W
LayerCount: 2
Fore
SplineSet
77 360 m 0,0,1
 88 374 88 374 106 370 c 128,-1,2
 124 366 124 366 127 347 c 0,3,4
 131 328 131 328 104 292 c 0,5,6
 68 244 68 244 62 196.5 c 128,-1,7
 56 149 56 149 75 60 c 0,8,9
 87 -1 87 -1 121 -32 c 0,10,11
 148 -57 148 -57 148.5 -77 c 128,-1,12
 149 -97 149 -97 123 -107 c 0,13,14
 105 -114 105 -114 85.5 -93.5 c 128,-1,15
 66 -73 66 -73 50.5 -36.5 c 128,-1,16
 35 0 35 0 23.5 46 c 128,-1,17
 12 92 12 92 10.5 136.5 c 128,-1,18
 9 181 9 181 17 217 c 1,19,20
 28 256 28 256 45.5 299 c 128,-1,21
 63 342 63 342 77 360 c 0,0,1
EndSplineSet
Validated: 33
EndChar

StartChar: parenright
Encoding: 41 41 11
Width: 162
Flags: W
LayerCount: 2
Fore
SplineSet
39 388 m 0,0,1
 49 398 49 398 63 395 c 128,-1,2
 77 392 77 392 90 376 c 0,3,4
 133 328 133 328 147 244.5 c 128,-1,5
 161 161 161 161 138 84 c 1,6,7
 128 47 128 47 98 -16 c 128,-1,8
 68 -79 68 -79 49 -107 c 0,9,10
 46 -110 46 -110 28 -103 c 0,11,12
 8 -96 8 -96 10 -70 c 128,-1,13
 12 -44 12 -44 34 -24 c 0,14,15
 57 -3 57 -3 80 47 c 0,16,17
 101 92 101 92 103 153 c 128,-1,18
 105 214 105 214 90 262 c 128,-1,19
 75 310 75 310 48 320 c 0,20,21
 36 325 36 325 32 351 c 128,-1,22
 28 377 28 377 39 388 c 0,0,1
EndSplineSet
Validated: 33
EndChar

StartChar: asterisk
Encoding: 42 42 12
Width: 297
Flags: W
LayerCount: 2
Fore
SplineSet
174 396 m 0,0,1
 181 396 181 396 220 429.5 c 128,-1,2
 259 463 259 463 268 463 c 0,3,4
 281 463 281 463 286 443 c 128,-1,5
 291 423 291 423 281 408 c 0,6,7
 271 392 271 392 279.5 370.5 c 128,-1,8
 288 349 288 349 273 336 c 1,9,10
 263 326 263 326 262.5 315.5 c 128,-1,11
 262 305 262 305 270 284 c 0,12,13
 282 251 282 251 274 243 c 128,-1,14
 266 235 266 235 242 257 c 0,15,16
 216 281 216 281 189 294 c 2,17,-1
 162 308 l 1,18,-1
 169 252 l 2,19,20
 174 217 174 217 172 205 c 128,-1,21
 170 193 170 193 159 189 c 0,22,23
 138 181 138 181 129 191.5 c 128,-1,24
 120 202 120 202 120 234 c 0,25,26
 120 272 120 272 111 272 c 0,27,28
 99 272 99 272 87 256.5 c 128,-1,29
 75 241 75 241 75 225 c 0,30,31
 75 204 75 204 53 204 c 0,32,33
 33 204 33 204 31 223.5 c 128,-1,34
 29 243 29 243 47 269 c 0,35,36
 56 281 56 281 57 289.5 c 128,-1,37
 58 298 58 298 53 300.5 c 128,-1,38
 48 303 48 303 36 299 c 0,39,40
 24 294 24 294 14.5 315.5 c 128,-1,41
 5 337 5 337 13 351 c 0,42,43
 20 362 20 362 42 362 c 0,44,45
 55 362 55 362 58 369.5 c 128,-1,46
 61 377 61 377 56 403 c 1,47,48
 52 432 52 432 55 437 c 128,-1,49
 58 442 58 442 79 438 c 0,50,51
 97 435 97 435 103 438 c 128,-1,52
 109 441 109 441 109 453 c 0,53,54
 109 461 109 461 114.5 468 c 128,-1,55
 120 475 120 475 128 477 c 0,56,57
 151 482 151 482 158 474 c 128,-1,58
 165 466 165 466 165 434 c 0,59,60
 165 396 165 396 174 396 c 0,0,1
EndSplineSet
Validated: 33
EndChar

StartChar: plus
Encoding: 43 43 13
Width: 298
Flags: W
LayerCount: 2
Fore
SplineSet
127 338.5 m 128,-1,1
 135 352 135 352 154 348 c 0,2,3
 165 345 165 345 168.5 333.5 c 128,-1,4
 172 322 172 322 171 291 c 0,5,6
 170 249 170 249 179.5 241.5 c 128,-1,7
 189 234 189 234 242 238 c 0,8,9
 272 240 272 240 282.5 229 c 128,-1,10
 293 218 293 218 285 193 c 0,11,12
 282 184 282 184 277 179.5 c 128,-1,13
 272 175 272 175 265.5 173 c 128,-1,14
 259 171 259 171 249 171 c 128,-1,15
 239 171 239 171 226.5 171.5 c 128,-1,16
 214 172 214 172 197 172 c 0,17,18
 174 171 174 171 171 164 c 128,-1,19
 168 157 168 157 173 120 c 0,20,21
 178 89 178 89 175.5 78 c 128,-1,22
 173 67 173 67 161 62 c 0,23,24
 142 55 142 55 132 72 c 128,-1,25
 122 89 122 89 122 129 c 2,26,-1
 122 173 l 1,27,-1
 77 170 l 2,28,29
 40 167 40 167 23 177.5 c 128,-1,30
 6 188 6 188 11 211 c 0,31,32
 13 224 13 224 24 228.5 c 128,-1,33
 35 233 35 233 66 233 c 2,34,-1
 116 233 l 1,35,-1
 117 279 l 2,36,0
 119 325 119 325 127 338.5 c 128,-1,1
EndSplineSet
Validated: 33
EndChar

StartChar: comma
Encoding: 44 44 14
Width: 175
Flags: W
LayerCount: 2
Fore
SplineSet
130.551 -20.1338 m 1,0,1
 127.037 -7.62433 127.037 -7.62433 142.551 0 c 0,2,3
 153.787 5.93905 153.787 5.93905 159.551 -23 c 0,4,5
 166.725 -58.0547 166.725 -58.0547 81 -161 c 0,6,7
 53 -194 53 -194 45 -197 c 0,8,9
 33.9126 -201.158 33.9126 -201.158 22.5 -185.5 c 0,10,11
 18.2439 -178.383 18.2439 -178.383 29.5508 -155 c 0,12,13
 36.0901 -140.02 36.0901 -140.02 44 -129 c 0,14,15
 69.5817 -93.3599 69.5817 -93.3599 95 -72 c 0,16,17
 100.275 -67.5669 100.275 -67.5669 105.551 -63.1338 c 0,18,-1
 111.551 -57.1338 l 0,19,-1
 120.551 -40 l 0,20,21
 129.133 -21.0714 129.133 -21.0714 130.551 -20.1338 c 1,0,1
EndSplineSet
Validated: 33
EndChar

StartChar: hyphen
Encoding: 45 45 15
Width: 241
Flags: W
LayerCount: 2
Fore
SplineSet
14 201 m 0,0,1
 17 208 17 208 22.5 211 c 128,-1,2
 28 214 28 214 40.5 213.5 c 128,-1,3
 53 213 53 213 67 211.5 c 128,-1,4
 81 210 81 210 108 207.5 c 128,-1,5
 135 205 135 205 163 205 c 0,6,7
 221 204 221 204 227 188 c 0,8,9
 238 158 238 158 218 150 c 128,-1,10
 198 142 198 142 118 143 c 0,11,12
 53 144 53 144 33 148 c 128,-1,13
 13 152 13 152 11 164 c 0,14,15
 7 183 7 183 14 201 c 0,0,1
EndSplineSet
Validated: 33
EndChar

StartChar: period
Encoding: 46 46 16
Width: 65
Flags: W
LayerCount: 2
Fore
SplineSet
15 -46 m 1,0,1
 27 -31 27 -31 36 -31 c 0,2,3
 49 -31 49 -31 54 -56 c 128,-1,4
 59 -81 59 -81 49 -91 c 0,5,6
 39 -100 39 -100 27 -92.5 c 128,-1,7
 15 -85 15 -85 11.5 -71.5 c 128,-1,8
 8 -58 8 -58 15 -46 c 1,0,1
EndSplineSet
Validated: 33
EndChar

StartChar: slash
Encoding: 47 47 17
Width: 284
Flags: W
LayerCount: 2
Fore
SplineSet
237 403 m 0,0,1
 260 433 260 433 272 399 c 0,2,3
 279 381 279 381 260 360 c 0,4,5
 223 319 223 319 144.5 153.5 c 128,-1,6
 66 -12 66 -12 72 -36 c 0,7,8
 75 -50 75 -50 65 -64.5 c 128,-1,9
 55 -79 55 -79 41.5 -82 c 128,-1,10
 28 -85 28 -85 19 -74 c 1,11,12
 9 -57 9 -57 10.5 -35 c 128,-1,13
 12 -13 12 -13 25 1 c 0,14,15
 37 14 37 14 134 205 c 128,-1,16
 231 396 231 396 237 403 c 0,0,1
EndSplineSet
Validated: 33
EndChar

StartChar: zero
Encoding: 48 48 18
Width: 346
Flags: W
LayerCount: 2
Fore
SplineSet
10 210 m 0,0,1
 10 266 10 266 50 324.5 c 128,-1,2
 90 383 90 383 151 418 c 128,-1,3
 212 453 212 453 266 442 c 1,4,5
 307 435 307 435 325.5 378.5 c 128,-1,6
 344 322 344 322 332.5 252 c 128,-1,7
 321 182 321 182 284 137 c 0,8,9
 239 84 239 84 165.5 64.5 c 128,-1,10
 92 45 92 45 59 78 c 0,11,12
 39 98 39 98 24.5 137 c 128,-1,13
 10 176 10 176 10 210 c 0,0,1
287 344 m 0,14,15
 282 363 282 363 272.5 368 c 128,-1,16
 263 373 263 373 230 373 c 0,17,18
 209 373 209 373 192.5 369.5 c 128,-1,19
 176 366 176 366 173 362 c 0,20,21
 169 355 169 355 165.5 354.5 c 128,-1,22
 162 354 162 354 158 356 c 128,-1,23
 154 358 154 358 143.5 354 c 128,-1,24
 133 350 133 350 118 339 c 0,25,26
 67 299 67 299 56 234 c 128,-1,27
 45 169 45 169 82 131 c 0,28,29
 110 103 110 103 129 103 c 0,30,31
 152 103 152 103 198 129 c 128,-1,32
 244 155 244 155 260 178 c 0,33,34
 277 201 277 201 286 256 c 128,-1,35
 295 311 295 311 287 344 c 0,14,15
EndSplineSet
Validated: 33
EndChar

StartChar: one
Encoding: 49 49 19
Width: 301
Flags: W
LayerCount: 2
Fore
SplineSet
218 427 m 0,0,1
 228 471 228 471 253 470 c 0,2,3
 271 469 271 469 278 449 c 0,4,5
 279 445 279 445 279 440 c 0,6,7
 279 429 279 429 263 380.5 c 128,-1,8
 247 332 247 332 225.5 248 c 128,-1,9
 204 164 204 164 193 78 c 2,10,-1
 188 35 l 1,11,-1
 236 38 l 2,12,13
 271 41 271 41 278.5 36.5 c 128,-1,14
 286 32 286 32 288 8 c 2,15,-1
 291 -26 l 1,16,-1
 162 -26 l 2,17,18
 110 -26 110 -26 81 -24.5 c 128,-1,19
 52 -23 52 -23 34.5 -17.5 c 128,-1,20
 17 -12 17 -12 12.5 -3.5 c 128,-1,21
 8 5 8 5 11 20 c 0,22,23
 14 34 14 34 26 38 c 128,-1,24
 38 42 38 42 77 42 c 2,25,-1
 139 42 l 1,26,-1
 157 115 l 2,27,28
 175 188 175 188 183 253 c 0,29,30
 190 310 190 310 185 312 c 0,31,32
 182 313 182 313 167 304 c 0,33,34
 75 248 75 248 61 261 c 0,35,36
 51 271 51 271 59.5 289 c 128,-1,37
 68 307 68 307 86 314 c 0,38,39
 120 326 120 326 166 365.5 c 128,-1,40
 212 405 212 405 218 427 c 0,0,1
EndSplineSet
Validated: 33
EndChar

StartChar: two
Encoding: 50 50 20
Width: 338
Flags: W
LayerCount: 2
Fore
SplineSet
152 401 m 0,0,1
 195 421 195 421 206.5 421.5 c 128,-1,2
 218 422 218 422 241 406 c 0,3,4
 267 388 267 388 277.5 354.5 c 128,-1,5
 288 321 288 321 279 291 c 0,6,7
 270 263 270 263 229 216 c 128,-1,8
 188 169 188 169 150 143 c 1,9,-1
 107 112 l 1,10,-1
 131 80 l 2,11,12
 150 54 150 54 169.5 53 c 128,-1,13
 189 52 189 52 243 75 c 0,14,15
 318 107 318 107 327 83 c 0,16,17
 329 79 329 79 328 73 c 0,18,19
 324 55 324 55 270 28.5 c 128,-1,20
 216 2 216 2 168 -5 c 0,21,22
 136 -9 136 -9 124 -4.5 c 128,-1,23
 112 0 112 0 96 23 c 0,24,25
 81 44 81 44 64 53 c 128,-1,26
 47 62 47 62 36 62 c 128,-1,27
 25 62 25 62 17.5 68 c 128,-1,28
 10 74 10 74 10 91 c 0,29,30
 10 112 10 112 21.5 122.5 c 128,-1,31
 33 133 33 133 52 139 c 128,-1,32
 71 145 71 145 106.5 167 c 128,-1,33
 142 189 142 189 177 225 c 1,34,35
 212 259 212 259 220.5 275 c 128,-1,36
 229 291 229 291 227 317 c 256,37,38
 225 343 225 343 219.5 349 c 128,-1,39
 214 355 214 355 196 353 c 0,40,41
 168 349 168 349 138 321 c 2,42,-1
 108 292 l 1,43,-1
 94 317 l 2,44,45
 80 344 80 344 92 361.5 c 128,-1,46
 104 379 104 379 152 401 c 0,0,1
EndSplineSet
Validated: 33
EndChar

StartChar: three
Encoding: 51 51 21
Width: 351
Flags: W
LayerCount: 2
Fore
SplineSet
114 434 m 0,0,1
 123 442 123 442 136.5 440.5 c 128,-1,2
 150 439 150 439 157 429 c 1,3,4
 163 418 163 418 217 425 c 0,5,6
 304 436 304 436 331 394.5 c 128,-1,7
 358 353 358 353 314 278 c 2,8,-1
 285 228 l 1,9,-1
 308 203 l 2,10,11
 329 181 329 181 330.5 153.5 c 128,-1,12
 332 126 332 126 314 83 c 0,13,14
 285 14 285 14 215.5 -28.5 c 128,-1,15
 146 -71 146 -71 79 -60 c 0,16,17
 32 -53 32 -53 16 -32 c 128,-1,18
 0 -11 0 -11 23 15 c 0,19,20
 61 56 61 56 85 12 c 0,21,22
 93 -3 93 -3 103 -6 c 128,-1,23
 113 -9 113 -9 140 -6 c 0,24,25
 203 3 203 3 246.5 52 c 128,-1,26
 290 101 290 101 273 146 c 0,27,28
 267 163 267 163 259.5 167 c 128,-1,29
 252 171 252 171 233 167 c 0,30,31
 201 161 201 161 187.5 169 c 128,-1,32
 174 177 174 177 174 201 c 0,33,34
 174 217 174 217 182 226 c 128,-1,35
 190 235 190 235 212 244 c 0,36,37
 261 265 261 265 279 304.5 c 128,-1,38
 297 344 297 344 265 361 c 0,39,40
 238 376 238 376 219.5 371 c 128,-1,41
 201 366 201 366 175 337 c 1,42,43
 153 314 153 314 143.5 310.5 c 128,-1,44
 134 307 134 307 123 316 c 0,45,46
 110 328 110 328 106 375 c 128,-1,47
 102 422 102 422 114 434 c 0,0,1
EndSplineSet
Validated: 33
EndChar

StartChar: four
Encoding: 52 52 22
Width: 422
Flags: W
LayerCount: 2
Fore
SplineSet
10 155 m 0,0,1
 10 185 10 185 67.5 253.5 c 128,-1,2
 125 322 125 322 182.5 375.5 c 128,-1,3
 240 429 240 429 247 429 c 0,4,5
 266 429 266 429 271 401.5 c 128,-1,6
 276 374 276 374 268 310 c 0,7,8
 252 185 252 185 256 179 c 0,9,10
 257 177 257 177 263 178 c 0,11,12
 349 190 349 190 370.5 190 c 128,-1,13
 392 190 392 190 403 176 c 0,14,15
 423 152 423 152 392 142 c 0,16,17
 371 135 371 135 319 129 c 2,18,-1
 240 120 l 1,19,-1
 240 54 l 1,20,21
 239 17 239 17 234.5 -0.5 c 128,-1,22
 230 -18 230 -18 218 -27 c 0,23,24
 197 -43 197 -43 189 -43 c 0,25,26
 177 -43 177 -43 174 -18 c 128,-1,27
 171 7 171 7 179 36 c 0,28,29
 185 58 185 58 188 69 c 128,-1,30
 191 80 191 80 190.5 90.5 c 128,-1,31
 190 101 190 101 187.5 104.5 c 128,-1,32
 185 108 185 108 174.5 110 c 128,-1,33
 164 112 164 112 153 111.5 c 128,-1,34
 142 111 142 111 119 108 c 0,35,36
 75 104 75 104 58 106 c 128,-1,37
 41 108 41 108 29 120 c 0,38,39
 10 138 10 138 10 155 c 0,0,1
217 265 m 1,40,41
 221 325 221 325 207 326.5 c 128,-1,42
 193 328 193 328 142 274 c 0,43,44
 57 183 57 183 74 166 c 0,45,46
 81 160 81 160 135 160 c 0,47,48
 183 160 183 160 197 177.5 c 128,-1,49
 211 195 211 195 217 265 c 1,40,41
EndSplineSet
Validated: 33
EndChar

StartChar: five
Encoding: 53 53 23
Width: 312
Flags: W
LayerCount: 2
Fore
SplineSet
65 401 m 1,0,1
 77 405 77 405 86.5 402 c 128,-1,2
 96 399 96 399 138 395 c 128,-1,3
 180 391 180 391 226 393 c 0,4,5
 278 395 278 395 290 392 c 128,-1,6
 302 389 302 389 302 374 c 0,7,8
 302 354 302 354 282 346.5 c 128,-1,9
 262 339 262 339 208 339 c 0,10,11
 159 339 159 339 143 327.5 c 128,-1,12
 127 316 127 316 119 275 c 2,13,-1
 112 238 l 1,14,-1
 160 238 l 2,15,16
 202 238 202 238 234 218 c 128,-1,17
 266 198 266 198 280.5 168 c 128,-1,18
 295 138 295 138 291.5 100.5 c 128,-1,19
 288 63 288 63 263 30 c 0,20,21
 193 -62 193 -62 97 -50 c 0,22,23
 41 -44 41 -44 26 -31 c 0,24,25
 7 -15 7 -15 10.5 16.5 c 128,-1,26
 14 48 14 48 37 69 c 128,-1,27
 60 90 60 90 69.5 82 c 128,-1,28
 79 74 79 74 71 42 c 0,29,30
 66 24 66 24 71 16.5 c 128,-1,31
 76 9 76 9 94 2 c 0,32,33
 154 -20 154 -20 212 38 c 0,34,35
 245 70 245 70 246 102 c 128,-1,36
 247 134 247 134 217 158 c 0,37,38
 195 176 195 176 174 180 c 128,-1,39
 153 184 153 184 139.5 178 c 128,-1,40
 126 172 126 172 112.5 165 c 128,-1,41
 99 158 99 158 92 153.5 c 128,-1,42
 85 149 85 149 76 156 c 1,43,44
 68 165 68 165 62.5 279 c 128,-1,45
 57 393 57 393 65 401 c 1,0,1
EndSplineSet
Validated: 33
EndChar

StartChar: six
Encoding: 54 54 24
Width: 334
Flags: W
LayerCount: 2
Fore
SplineSet
175 395 m 0,0,1
 211 414 211 414 231 416 c 128,-1,2
 251 418 251 418 264 404 c 0,3,4
 300 369 300 369 235 358 c 0,5,6
 187 350 187 350 137 303 c 128,-1,7
 87 256 87 256 64 197 c 1,8,9
 41 134 41 134 46 129 c 0,10,11
 49 126 49 126 81.5 142 c 128,-1,12
 114 158 114 158 158 175.5 c 128,-1,13
 202 193 202 193 227 193 c 0,14,15
 273 193 273 193 300.5 161 c 128,-1,16
 328 129 328 129 324.5 84 c 128,-1,17
 321 39 321 39 286 7 c 0,18,19
 249 -26 249 -26 222 -40 c 128,-1,20
 195 -54 195 -54 156 -60 c 1,21,22
 112 -68 112 -68 76 -48.5 c 128,-1,23
 40 -29 40 -29 23 11 c 256,24,25
 6 51 6 51 10.5 124 c 128,-1,26
 15 197 15 197 36 238 c 0,27,28
 60 285 60 285 101.5 331.5 c 128,-1,29
 143 378 143 378 175 395 c 0,0,1
264 124 m 0,30,31
 241 147 241 147 168 125.5 c 128,-1,32
 95 104 95 104 72 67 c 0,33,34
 57 44 57 44 80 17.5 c 128,-1,35
 103 -9 103 -9 138 -9 c 0,36,37
 165 -9 165 -9 191 0 c 128,-1,38
 217 9 217 9 235.5 24 c 128,-1,39
 254 39 254 39 266 56.5 c 128,-1,40
 278 74 278 74 278 92 c 128,-1,41
 278 110 278 110 264 124 c 0,30,31
EndSplineSet
Validated: 33
EndChar

StartChar: seven
Encoding: 55 55 25
Width: 277
Flags: W
LayerCount: 2
Fore
SplineSet
23 371 m 0,0,1
 50 398 50 398 63 366 c 0,2,3
 67 355 67 355 84.5 352.5 c 128,-1,4
 102 350 102 350 154 352 c 0,5,6
 178 353 178 353 193 353.5 c 128,-1,7
 208 354 208 354 221.5 352 c 128,-1,8
 235 350 235 350 241.5 347 c 128,-1,9
 248 344 248 344 251.5 336.5 c 128,-1,10
 255 329 255 329 254 320 c 128,-1,11
 253 311 253 311 247.5 296 c 128,-1,12
 242 281 242 281 234 264.5 c 128,-1,13
 226 248 226 248 213 222 c 0,14,15
 163 126 163 126 170 119 c 0,16,17
 175 114 175 114 213.5 124.5 c 128,-1,18
 252 135 252 135 261 127 c 1,19,20
 271 116 271 116 265.5 95.5 c 128,-1,21
 260 75 260 75 246 73 c 0,22,23
 176 64 176 64 158.5 56 c 128,-1,24
 141 48 141 48 128 18 c 0,25,26
 111 -22 111 -22 111 -66 c 0,27,28
 111 -103 111 -103 96.5 -110 c 128,-1,29
 82 -117 82 -117 67 -88 c 0,30,31
 55 -65 55 -65 72 -25 c 0,32,33
 89 17 89 17 86.5 26 c 128,-1,34
 84 35 84 35 56 29 c 0,35,36
 28 24 28 24 17.5 34.5 c 128,-1,37
 7 45 7 45 15 70 c 0,38,39
 22 92 22 92 58 92 c 0,40,41
 97 92 97 92 111 106.5 c 128,-1,42
 125 121 125 121 151 188 c 0,43,44
 182 266 182 266 193 281 c 1,45,46
 208 299 208 299 189 301 c 0,47,48
 175 303 175 303 127 297 c 0,49,50
 81 291 81 291 71 285.5 c 128,-1,51
 61 280 61 280 64 261 c 1,52,53
 66 234 66 234 55.5 218 c 128,-1,54
 45 202 45 202 28 208 c 0,55,56
 18 212 18 212 14 228.5 c 128,-1,57
 10 245 10 245 10 286 c 0,58,59
 10 357 10 357 23 371 c 0,0,1
EndSplineSet
Validated: 33
EndChar

StartChar: eight
Encoding: 56 56 26
Width: 296
Flags: W
LayerCount: 2
Fore
SplineSet
88 384 m 0,0,1
 116 395 116 395 161 394.5 c 128,-1,2
 206 394 206 394 218 382 c 0,3,4
 231 369 231 369 231 322 c 0,5,6
 231 296 231 296 225 280 c 128,-1,7
 219 264 219 264 203 249 c 2,8,-1
 174 222 l 1,9,-1
 213 202 l 2,10,11
 256 180 256 180 273 150.5 c 128,-1,12
 290 121 290 121 284 75 c 0,13,14
 279 29 279 29 254 -1 c 128,-1,15
 229 -31 229 -31 196 -41 c 128,-1,16
 163 -51 163 -51 128 -52.5 c 128,-1,17
 93 -54 93 -54 67 -48.5 c 128,-1,18
 41 -43 41 -43 31 -36 c 0,19,20
 15 -24 15 -24 11.5 -13.5 c 128,-1,21
 8 -3 8 -3 13 23 c 0,22,23
 21 64 21 64 51 124 c 2,24,-1
 81 184 l 1,25,-1
 49 216 l 2,26,27
 37 228 37 228 27.5 245.5 c 128,-1,28
 18 263 18 263 18 273 c 0,29,30
 18 300 18 300 42 337.5 c 128,-1,31
 66 375 66 375 88 384 c 0,0,1
149 321 m 1,32,33
 149 321 149 321 147 322 c 128,-1,34
 145 323 145 323 143 323.5 c 128,-1,35
 141 324 141 324 137 325 c 128,-1,36
 133 326 133 326 129 326.5 c 128,-1,37
 125 327 125 327 120.5 326.5 c 128,-1,38
 116 326 116 326 111 325 c 128,-1,39
 106 324 106 324 101 322 c 128,-1,40
 96 320 96 320 91.5 316.5 c 128,-1,41
 87 313 87 313 82.5 307.5 c 128,-1,42
 78 302 78 302 74 294 c 0,43,44
 67 281 67 281 70.5 273.5 c 128,-1,45
 74 266 74 266 91 254 c 0,46,47
 112 240 112 240 120 241.5 c 128,-1,48
 128 243 128 243 148 261 c 0,49,50
 197 308 197 308 149 321 c 1,32,33
177 161 m 0,51,52
 143 174 143 174 129.5 166 c 128,-1,53
 116 158 116 158 92 111 c 0,54,55
 63 54 63 54 63 28 c 128,-1,56
 63 2 63 2 91 -5 c 0,57,58
 163 -23 163 -23 210 22 c 0,59,60
 249 59 249 59 237 104 c 0,61,62
 226 142 226 142 177 161 c 0,51,52
EndSplineSet
Validated: 33
EndChar

StartChar: nine
Encoding: 57 57 27
Width: 297
Flags: W
LayerCount: 2
Fore
SplineSet
91 441 m 0,0,1
 119 469 119 469 136 477 c 128,-1,2
 153 485 153 485 182 485 c 0,3,4
 224 485 224 485 239 476.5 c 128,-1,5
 254 468 254 468 272 431 c 0,6,7
 278 419 278 419 281 406.5 c 128,-1,8
 284 394 284 394 285.5 382.5 c 128,-1,9
 287 371 287 371 286.5 346 c 128,-1,10
 286 321 286 321 284.5 301.5 c 128,-1,11
 283 282 283 282 280 235 c 128,-1,12
 277 188 277 188 275 149 c 0,13,14
 272 93 272 93 259.5 60 c 128,-1,15
 247 27 247 27 230.5 16 c 128,-1,16
 214 5 214 5 189 5.5 c 128,-1,17
 164 6 164 6 141.5 13.5 c 128,-1,18
 119 21 119 21 89.5 28.5 c 128,-1,19
 60 36 60 36 39 36 c 0,20,21
 22 36 22 36 16 41.5 c 128,-1,22
 10 47 10 47 10 63 c 0,23,24
 10 90 10 90 17 108 c 0,25,26
 21 119 21 119 30.5 123.5 c 128,-1,27
 40 128 40 128 47.5 124.5 c 128,-1,28
 55 121 55 121 55 110 c 0,29,30
 55 98 55 98 104 78 c 128,-1,31
 153 58 153 58 184 58 c 0,32,33
 235 58 235 58 235 176 c 2,34,-1
 235 237 l 1,35,-1
 180 231 l 2,36,37
 132 225 132 225 101.5 240.5 c 128,-1,38
 71 256 71 256 53 294 c 0,39,40
 17 369 17 369 91 441 c 0,0,1
197 398 m 0,41,42
 174 429 174 429 167 429 c 0,43,44
 157 428 157 428 135 413.5 c 128,-1,45
 113 399 113 399 102 387 c 1,46,47
 88 367 88 367 87.5 347 c 128,-1,48
 87 327 87 327 101 312 c 128,-1,49
 115 297 115 297 132.5 288.5 c 128,-1,50
 150 280 150 280 172 284.5 c 128,-1,51
 194 289 194 289 211 307 c 0,52,53
 229 326 229 326 226 344 c 128,-1,54
 223 362 223 362 197 398 c 0,41,42
EndSplineSet
Validated: 33
EndChar

StartChar: colon
Encoding: 58 58 28
Width: 78
Flags: W
LayerCount: 2
Fore
SplineSet
17 71 m 0,0,1
 30 94 30 94 43 87.5 c 128,-1,2
 56 81 56 81 59 49 c 0,3,4
 61 28 61 28 57.5 20.5 c 128,-1,5
 54 13 54 13 40 13 c 0,6,7
 20 13 20 13 12.5 31 c 128,-1,8
 5 49 5 49 17 71 c 0,0,1
17 257 m 0,9,10
 17 273 17 273 22 278 c 128,-1,11
 27 283 27 283 41 281 c 0,12,13
 61 278 61 278 66.5 258 c 128,-1,14
 72 238 72 238 57 218 c 1,15,16
 45 200 45 200 29 220 c 0,17,18
 17 235 17 235 17 257 c 0,9,10
EndSplineSet
Validated: 33
EndChar

StartChar: semicolon
Encoding: 59 59 29
Width: 239
Flags: W
LayerCount: 2
Fore
SplineSet
106 -6 m 0,0,1
 119 18 119 18 138 21.5 c 128,-1,2
 157 25 157 25 163 6 c 0,3,4
 166 -2 166 -2 136 -38.5 c 128,-1,5
 106 -75 106 -75 74.5 -114 c 128,-1,6
 43 -153 43 -153 43 -166 c 0,7,8
 43 -191 43 -191 29 -195 c 1,9,10
 19 -199 19 -199 14 -184 c 0,11,12
 -4 -138 -4 -138 55 -74 c 0,13,14
 89 -37 89 -37 106 -6 c 0,0,1
186 321 m 0,15,16
 199 334 199 334 216 320 c 128,-1,17
 233 306 233 306 228 288 c 0,18,19
 216 249 216 249 211.5 244 c 128,-1,20
 207 239 207 239 194.5 250 c 128,-1,21
 182 261 182 261 179 286 c 128,-1,22
 176 311 176 311 186 321 c 0,15,16
EndSplineSet
Validated: 33
EndChar

StartChar: less
Encoding: 60 60 30
Width: 281
Flags: W
LayerCount: 2
Fore
SplineSet
189 271 m 2,0,1
 209 290 209 290 227 289.5 c 128,-1,2
 245 289 245 289 249 270 c 0,3,4
 252 251 252 251 216 232 c 0,5,6
 182 214 182 214 132 168 c 128,-1,7
 82 122 82 122 82 108 c 0,8,9
 82 95 82 95 123 82.5 c 128,-1,10
 164 70 164 70 208 70 c 0,11,12
 232 70 232 70 244 64.5 c 128,-1,13
 256 59 256 59 263 46 c 0,14,15
 272 30 272 30 270.5 23 c 128,-1,16
 269 16 269 16 257 6 c 1,17,18
 239 -7 239 -7 230 -8.5 c 128,-1,19
 221 -10 221 -10 218 -4.5 c 128,-1,20
 215 1 215 1 205.5 7 c 128,-1,21
 196 13 196 13 181 13 c 0,22,23
 143 13 143 13 83 34.5 c 128,-1,24
 23 56 23 56 14 72 c 0,25,26
 6 87 6 87 18 104 c 128,-1,27
 30 121 30 121 84 172 c 2,28,-1
 189 271 l 2,0,1
EndSplineSet
Validated: 33
EndChar

StartChar: equal
Encoding: 61 61 31
Width: 285
Flags: W
LayerCount: 2
Fore
SplineSet
118 228 m 0,0,1
 231 239 231 239 243 234 c 1,2,3
 252 227 252 227 252 207 c 0,4,5
 252 176 252 176 244 168.5 c 128,-1,6
 236 161 236 161 216 172 c 0,7,8
 193 184 193 184 120 170 c 0,9,10
 26 152 26 152 26 182 c 0,11,12
 26 190 26 190 34 202 c 0,13,14
 46 221 46 221 118 228 c 0,0,1
217 311 m 1,15,16
 223 318 223 318 232 315.5 c 128,-1,17
 241 313 241 313 258 300 c 1,18,19
 284 282 284 282 269 275 c 0,20,21
 247 265 247 265 55 257 c 0,22,23
 26 256 26 256 18 259.5 c 128,-1,24
 10 263 10 263 10 278 c 256,25,26
 10 293 10 293 25.5 297 c 128,-1,27
 41 301 41 301 111 303 c 0,28,29
 211 306 211 306 217 311 c 1,15,16
EndSplineSet
Validated: 33
EndChar

StartChar: greater
Encoding: 62 62 32
Width: 267
Flags: W
LayerCount: 2
Fore
SplineSet
13 278 m 0,0,1
 20 295 20 295 40.5 294 c 128,-1,2
 61 293 61 293 73 274 c 0,3,4
 78 265 78 265 107 248 c 128,-1,5
 136 231 136 231 171 215 c 0,6,7
 217 195 217 195 237.5 181 c 128,-1,8
 258 167 258 167 256 152 c 128,-1,9
 254 137 254 137 230.5 122.5 c 128,-1,10
 207 108 207 108 156 86 c 0,11,12
 127 74 127 74 105.5 61.5 c 128,-1,13
 84 49 84 49 77.5 44 c 128,-1,14
 71 39 71 39 65 39 c 128,-1,15
 59 39 59 39 49 47 c 0,16,17
 17 74 17 74 42 92 c 0,18,19
 62 106 62 106 131 126 c 0,20,21
 178 140 178 140 178 147 c 128,-1,22
 178 154 178 154 100 190 c 1,23,24
 41 216 41 216 22.5 235 c 128,-1,25
 4 254 4 254 13 278 c 0,0,1
EndSplineSet
Validated: 33
EndChar

StartChar: question
Encoding: 63 63 33
Width: 257
Flags: W
LayerCount: 2
Fore
SplineSet
89 12 m 0,0,1
 113 36 113 36 136 -1 c 0,2,3
 147 -19 147 -19 130 -38.5 c 128,-1,4
 113 -58 113 -58 93 -50 c 0,5,6
 77 -44 77 -44 75.5 -23.5 c 128,-1,7
 74 -3 74 -3 89 12 c 0,0,1
71 396 m 0,8,9
 188 470 188 470 238 373 c 0,10,11
 255 340 255 340 240.5 312 c 128,-1,12
 226 284 226 284 171 243 c 0,13,14
 86 180 86 180 86 158 c 0,15,16
 86 151 86 151 100 138 c 128,-1,17
 114 125 114 125 123 112.5 c 128,-1,18
 132 100 132 100 123 91 c 0,19,20
 108 76 108 76 82 84 c 128,-1,21
 56 92 56 92 42 116 c 0,22,23
 24 149 24 149 43 185.5 c 128,-1,24
 62 222 62 222 121 268 c 0,25,26
 223 346 223 346 169 366 c 0,27,28
 124 383 124 383 73 324 c 0,29,30
 52 299 52 299 44.5 296.5 c 128,-1,31
 37 294 37 294 24 307 c 0,32,33
 3 327 3 327 13.5 346.5 c 128,-1,34
 24 366 24 366 71 396 c 0,8,9
EndSplineSet
Validated: 33
EndChar

StartChar: at
Encoding: 64 64 34
Width: 433
Flags: W
LayerCount: 2
Fore
SplineSet
142 382 m 0,0,1
 176 408 176 408 193 413 c 128,-1,2
 210 418 210 418 247 414 c 0,3,4
 298 408 298 408 339 380 c 128,-1,5
 380 352 380 352 400 313 c 128,-1,6
 420 274 420 274 422.5 227 c 128,-1,7
 425 180 425 180 399 136 c 0,8,9
 381 104 381 104 350.5 90 c 128,-1,10
 320 76 320 76 286 83 c 0,11,12
 279 84 279 84 267 77.5 c 128,-1,13
 255 71 255 71 247 61 c 0,14,15
 238 51 238 51 222 41.5 c 128,-1,16
 206 32 206 32 190 29 c 0,17,18
 168 25 168 25 155 30 c 128,-1,19
 142 35 142 35 121 56 c 0,20,21
 89 88 89 88 85.5 129.5 c 128,-1,22
 82 171 82 171 107 203.5 c 128,-1,23
 132 236 132 236 176 243 c 128,-1,24
 220 250 220 250 252.5 232 c 128,-1,25
 285 214 285 214 296 178 c 0,26,27
 309 133 309 133 336 141 c 0,28,29
 362 148 362 148 371 189 c 0,30,31
 377 212 377 212 372 237 c 0,32,33
 363 292 363 292 319 327 c 128,-1,34
 275 362 275 362 216 362 c 0,35,36
 180 362 180 362 134 315 c 128,-1,37
 88 268 88 268 70 212 c 0,38,39
 55 167 55 167 53 115 c 128,-1,40
 51 63 51 63 63 31 c 0,41,42
 85 -27 85 -27 168 -24 c 128,-1,43
 251 -21 251 -21 344 42 c 0,44,45
 403 81 403 81 407.5 81 c 128,-1,46
 412 81 412 81 412 60 c 0,47,48
 412 36 412 36 368 3.5 c 128,-1,49
 324 -29 324 -29 263 -52.5 c 128,-1,50
 202 -76 202 -76 158 -76 c 0,51,52
 104 -76 104 -76 74 -55 c 128,-1,53
 44 -34 44 -34 24 19 c 0,54,55
 -8 101 -8 101 29 213 c 128,-1,56
 66 325 66 325 142 382 c 0,0,1
215 167 m 0,57,58
 194 182 194 182 184 181 c 128,-1,59
 174 180 174 180 153 160 c 1,60,61
 140 146 140 146 137.5 137.5 c 128,-1,62
 135 129 135 129 142 116 c 0,63,64
 154 93 154 93 166.5 86.5 c 128,-1,65
 179 80 179 80 198 86 c 0,66,67
 223 94 223 94 229 123 c 128,-1,68
 235 152 235 152 215 167 c 0,57,58
EndSplineSet
Validated: 33
EndChar

StartChar: A
Encoding: 65 65 35
Width: 484
Flags: W
LayerCount: 2
Fore
SplineSet
216 665 m 0,0,1
 216 675 216 675 229.5 676 c 128,-1,2
 243 677 243 677 257 668 c 0,3,4
 270 660 270 660 294 542 c 1,5,6
 312 460 312 460 357 343 c 128,-1,7
 402 226 402 226 438 142 c 128,-1,8
 474 58 474 58 474 45 c 0,9,10
 474 27 474 27 458 14 c 0,11,12
 444 3 444 3 429 11.5 c 128,-1,13
 414 20 414 20 399.5 48.5 c 128,-1,14
 385 77 385 77 375 119 c 0,15,16
 361 176 361 176 353 188 c 128,-1,17
 345 200 345 200 317 206 c 0,18,19
 277 215 277 215 203 208 c 0,20,21
 147 203 147 203 135 196.5 c 128,-1,22
 123 190 123 190 108 157 c 0,23,24
 88 112 88 112 87 67 c 0,25,26
 86 28 86 28 69.5 11.5 c 128,-1,27
 53 -5 53 -5 33 15 c 0,28,29
 16 32 16 32 12.5 48 c 128,-1,30
 9 64 9 64 13 77 c 128,-1,31
 17 90 17 90 30.5 124.5 c 128,-1,32
 44 159 44 159 53 192 c 0,33,34
 70 251 70 251 92.5 308 c 128,-1,35
 115 365 115 365 131 436 c 0,36,37
 144 493 144 493 157 544 c 128,-1,38
 170 595 170 595 176 623 c 0,39,40
 178 636 178 636 185 645 c 128,-1,41
 192 654 192 654 199 654 c 128,-1,42
 206 654 206 654 211 657.5 c 128,-1,43
 216 661 216 661 216 665 c 0,0,1
249 438 m 0,44,45
 249 447 249 447 235 467 c 0,46,47
 226 481 226 481 216 463 c 1,48,49
 209 448 209 448 190 392 c 0,50,51
 159 297 159 297 159 292 c 1,52,53
 165 289 165 289 195 289.5 c 128,-1,54
 225 290 225 290 262 293 c 128,-1,55
 299 296 299 296 302 299 c 128,-1,56
 305 302 305 302 292 334 c 128,-1,57
 279 366 279 366 264 399.5 c 128,-1,58
 249 433 249 433 249 438 c 0,44,45
EndSplineSet
Validated: 33
EndChar

StartChar: B
Encoding: 66 66 36
Width: 393
Flags: W
LayerCount: 2
Fore
SplineSet
76 582 m 1,0,1
 132 603 132 603 189 602 c 128,-1,2
 246 601 246 601 296 576 c 128,-1,3
 346 551 346 551 364 512 c 0,4,5
 383 473 383 473 383 456 c 0,6,7
 383 441 383 441 359 393 c 128,-1,8
 335 345 335 345 318 326 c 0,9,10
 307 313 307 313 307 305 c 128,-1,11
 307 297 307 297 319 279 c 0,12,13
 373 197 373 197 381.5 145.5 c 128,-1,14
 390 94 390 94 358 46 c 0,15,16
 334 11 334 11 280 -10.5 c 128,-1,17
 226 -32 226 -32 181 -25 c 0,18,19
 143 -19 143 -19 93.5 5.5 c 128,-1,20
 44 30 44 30 35 47 c 0,21,22
 21 75 21 75 13 287.5 c 128,-1,23
 5 500 5 500 17 538 c 0,24,25
 19 547 19 547 36.5 559.5 c 128,-1,26
 54 572 54 572 76 582 c 1,0,1
237 534 m 0,27,28
 195 551 195 551 182.5 550 c 128,-1,29
 170 549 170 549 137 529 c 2,30,-1
 99 507 l 1,31,-1
 106 421 l 2,32,33
 113 336 113 336 118 331 c 0,34,35
 128 321 128 321 192 341.5 c 128,-1,36
 256 362 256 362 275 381 c 0,37,38
 315 421 315 421 303.5 466.5 c 128,-1,39
 292 512 292 512 237 534 c 0,27,28
322 110 m 0,40,41
 336 164 336 164 296.5 200 c 128,-1,42
 257 236 257 236 177 241 c 2,43,-1
 113 245 l 1,44,-1
 113 158 l 2,45,46
 113 72 113 72 129 59 c 0,47,48
 144 46 144 46 175 45 c 128,-1,49
 206 44 206 44 237 52 c 128,-1,50
 268 60 268 60 293 76 c 128,-1,51
 318 92 318 92 322 110 c 0,40,41
EndSplineSet
Validated: 33
EndChar

StartChar: C
Encoding: 67 67 37
Width: 427
Flags: W
LayerCount: 2
Fore
SplineSet
168 542 m 0,0,1
 214 553 214 553 269 551.5 c 128,-1,2
 324 550 324 550 340 538 c 0,3,4
 360 522 360 522 353 493 c 0,5,6
 348 472 348 472 340.5 468.5 c 128,-1,7
 333 465 333 465 304 471 c 0,8,9
 153 499 153 499 91 390 c 0,10,11
 68 349 68 349 66 292.5 c 128,-1,12
 64 236 64 236 85 194 c 0,13,14
 118 127 118 127 203.5 97 c 128,-1,15
 289 67 289 67 362 97 c 0,16,17
 403 114 403 114 413.5 107.5 c 128,-1,18
 424 101 424 101 405 70 c 0,19,20
 385 36 385 36 340 23 c 0,21,22
 288 9 288 9 246 14.5 c 128,-1,23
 204 20 204 20 145 50 c 0,24,25
 98 74 98 74 79.5 91 c 128,-1,26
 61 108 61 108 40 147 c 0,27,28
 13 199 13 199 10.5 264.5 c 128,-1,29
 8 330 8 330 26.5 387 c 128,-1,30
 45 444 45 444 83 487.5 c 128,-1,31
 121 531 121 531 168 542 c 0,0,1
EndSplineSet
Validated: 33
EndChar

StartChar: D
Encoding: 68 68 38
Width: 423
Flags: W
LayerCount: 2
Fore
SplineSet
45 509 m 0,0,1
 55 517 55 517 62 520.5 c 128,-1,2
 69 524 69 524 79 524.5 c 128,-1,3
 89 525 89 525 94.5 524 c 128,-1,4
 100 523 100 523 119 519.5 c 128,-1,5
 138 516 138 516 150 513 c 1,6,7
 178 509 178 509 194 502.5 c 128,-1,8
 210 496 210 496 234 485 c 128,-1,9
 258 474 258 474 289 463 c 0,10,11
 340 445 340 445 373.5 398 c 128,-1,12
 407 351 407 351 412 290 c 0,13,14
 417 228 417 228 401 187 c 128,-1,15
 385 146 385 146 335 94 c 0,16,17
 242 -1 242 -1 103 -37 c 0,18,19
 48 -51 48 -51 35 -46 c 0,20,21
 13 -37 13 -37 11 32 c 0,22,23
 9 71 9 71 13 231 c 0,24,25
 18 454 18 454 25 482 c 1,26,27
 30 497 30 497 45 509 c 0,0,1
161 434 m 0,28,29
 113 449 113 449 95.5 451 c 128,-1,30
 78 453 78 453 73 444 c 0,31,32
 68 434 68 434 66.5 240.5 c 128,-1,33
 65 47 65 47 70 38 c 0,34,35
 76 29 76 29 143 48.5 c 128,-1,36
 210 68 210 68 240 88 c 0,37,38
 252 96 252 96 272.5 119 c 128,-1,39
 293 142 293 142 310 167 c 0,40,41
 335 206 335 206 341.5 225 c 128,-1,42
 348 244 348 244 344 272 c 0,43,44
 335 335 335 335 295 370.5 c 128,-1,45
 255 406 255 406 161 434 c 0,28,29
EndSplineSet
Validated: 33
EndChar

StartChar: E
Encoding: 69 69 39
Width: 361
Flags: W
LayerCount: 2
Fore
SplineSet
66 483 m 0,0,1
 75 493 75 493 80.5 496.5 c 128,-1,2
 86 500 86 500 92 502.5 c 128,-1,3
 98 505 98 505 109.5 503.5 c 128,-1,4
 121 502 121 502 134.5 500 c 128,-1,5
 148 498 148 498 177.5 494 c 128,-1,6
 207 490 207 490 239 487 c 0,7,8
 352 477 352 477 351 452 c 0,9,10
 351 444 351 444 343 434 c 0,11,12
 333 422 333 422 311.5 420 c 128,-1,13
 290 418 290 418 224 421 c 0,14,15
 120 426 120 426 110 419.5 c 128,-1,16
 100 413 100 413 89 362 c 128,-1,17
 78 311 78 311 79 272 c 0,18,19
 79 270 79 270 79 267 c 0,20,21
 79 242 79 242 89 237 c 0,22,23
 100 231 100 231 184 228 c 1,24,-1
 185 228 l 1,25,-1
 186 228 l 1,26,-1
 187 228 l 1,27,-1
 188 228 l 1,28,-1
 189 228 l 1,29,-1
 190 228 l 1,30,-1
 191 228 l 1,31,-1
 192 228 l 1,32,-1
 193 228 l 1,33,-1
 194 228 l 1,34,-1
 195 228 l 1,35,-1
 196 228 l 1,36,-1
 197 228 l 1,37,-1
 198 228 l 1,38,-1
 200 228 l 1,39,40
 217 227 217 227 224 222 c 128,-1,41
 231 217 231 217 231 204 c 0,42,43
 231 183 231 183 216 176 c 128,-1,44
 201 169 201 169 146 165 c 0,45,46
 82 161 82 161 76 155 c 0,47,48
 68 147 68 147 72.5 76.5 c 128,-1,49
 77 6 77 6 87 -4 c 1,50,51
 98 -18 98 -18 138.5 -19 c 128,-1,52
 179 -20 179 -20 221 -13.5 c 128,-1,53
 263 -7 263 -7 299.5 -2.5 c 128,-1,54
 336 2 336 2 339 -1 c 0,55,56
 347 -9 347 -9 333 -29.5 c 128,-1,57
 319 -50 319 -50 290 -73 c 1,58,59
 263 -93 263 -93 244 -98.5 c 128,-1,60
 225 -104 225 -104 183 -102 c 0,61,62
 118 -99 118 -99 80 -83 c 0,63,64
 55 -73 55 -73 46.5 -60 c 128,-1,65
 38 -47 38 -47 29 -4 c 0,66,67
 19 45 19 45 18.5 103 c 128,-1,68
 18 161 18 161 13 174 c 1,69,70
 4 193 4 193 17.5 209.5 c 128,-1,71
 31 226 31 226 37 342 c 0,72,73
 40 414 40 414 45.5 440.5 c 128,-1,74
 51 467 51 467 66 483 c 0,0,1
EndSplineSet
Validated: 33
EndChar

StartChar: F
Encoding: 70 70 40
Width: 424
Flags: W
LayerCount: 2
Fore
SplineSet
25 473 m 0,0,1
 31 482 31 482 208 481 c 128,-1,2
 385 480 385 480 400 470 c 1,3,4
 414 462 414 462 414 440 c 0,5,6
 414 426 414 426 408 423.5 c 128,-1,7
 402 421 402 421 382 427 c 0,8,9
 345 437 345 437 237.5 433.5 c 128,-1,10
 130 430 130 430 116 418 c 0,11,12
 99 404 99 404 98.5 334 c 128,-1,13
 98 264 98 264 115 250 c 0,14,15
 130 237 130 237 202 231 c 0,16,17
 276 225 276 225 279 217 c 0,18,19
 280 212 280 212 270 202 c 0,20,21
 256 189 256 189 173 192 c 2,22,-1
 90 194 l 1,23,-1
 83 124 l 2,24,25
 80 88 80 88 78 54.5 c 128,-1,26
 76 21 76 21 75 1 c 128,-1,27
 74 -19 74 -19 73 -37.5 c 128,-1,28
 72 -56 72 -56 71 -65.5 c 128,-1,29
 70 -75 70 -75 67 -82.5 c 128,-1,30
 64 -90 64 -90 59 -93 c 128,-1,31
 54 -96 54 -96 46 -97 c 0,32,33
 26 -100 26 -100 15.5 -80 c 128,-1,34
 5 -60 5 -60 13 -35 c 0,35,36
 28 12 28 12 33 179 c 128,-1,37
 38 346 38 346 27 415 c 0,38,39
 19 463 19 463 25 473 c 0,0,1
EndSplineSet
Validated: 33
EndChar

StartChar: G
Encoding: 71 71 41
Width: 447
Flags: W
LayerCount: 2
Fore
SplineSet
239 487 m 0,0,1
 334 504 334 504 397 477 c 0,2,3
 441 458 441 458 426 430 c 0,4,5
 418 416 418 416 401 413.5 c 128,-1,6
 384 411 384 411 358.5 413.5 c 128,-1,7
 333 416 333 416 303 415.5 c 128,-1,8
 273 415 273 415 231 398 c 128,-1,9
 189 381 189 381 147 345 c 0,10,11
 95 302 95 302 73.5 234.5 c 128,-1,12
 52 167 52 167 66.5 100.5 c 128,-1,13
 81 34 81 34 128 -7 c 0,14,15
 161 -37 161 -37 198.5 -42 c 128,-1,16
 236 -47 236 -47 292 -30 c 0,17,18
 365 -8 365 -8 336 47 c 0,19,20
 329 60 329 60 315 65 c 128,-1,21
 301 70 301 70 271 71 c 0,22,23
 218 72 218 72 208 70 c 0,24,25
 188 67 188 67 172 79 c 128,-1,26
 156 91 156 91 156 109 c 0,27,28
 156 170 156 170 231 149 c 0,29,30
 274 137 274 137 333.5 137 c 128,-1,31
 393 137 393 137 416 125 c 0,32,33
 435 115 435 115 437 98 c 128,-1,34
 439 81 439 81 421 74 c 0,35,36
 412 71 412 71 411.5 60.5 c 128,-1,37
 411 50 411 50 413 34.5 c 128,-1,38
 415 19 415 19 414 1 c 128,-1,39
 413 -17 413 -17 397.5 -39.5 c 128,-1,40
 382 -62 382 -62 350 -83 c 0,41,42
 286 -126 286 -126 223.5 -127 c 128,-1,43
 161 -128 161 -128 114.5 -93.5 c 128,-1,44
 68 -59 68 -59 39 10 c 128,-1,45
 10 79 10 79 10 170 c 0,46,47
 10 204 10 204 10.5 223.5 c 128,-1,48
 11 243 11 243 15.5 260.5 c 128,-1,49
 20 278 20 278 23 284.5 c 128,-1,50
 26 291 26 291 37 313 c 128,-1,51
 48 335 48 335 55 351 c 0,52,53
 75 396 75 396 130.5 437 c 128,-1,54
 186 478 186 478 239 487 c 0,0,1
EndSplineSet
Validated: 33
EndChar

StartChar: H
Encoding: 72 72 42
Width: 425
Flags: W
LayerCount: 2
Fore
SplineSet
60 455 m 0,0,1
 66 464 66 464 79 460 c 0,2,3
 90 456 90 456 87.5 343.5 c 128,-1,4
 85 231 85 231 96 222 c 1,5,6
 109 213 109 213 221 208 c 0,7,8
 224 208 224 208 230 207 c 0,9,10
 257 206 257 206 269 205 c 128,-1,11
 281 204 281 204 297 206 c 128,-1,12
 313 208 313 208 318 208.5 c 128,-1,13
 323 209 323 209 331 217 c 128,-1,14
 339 225 339 225 339.5 230 c 128,-1,15
 340 235 340 235 342 251.5 c 128,-1,16
 344 268 344 268 343 279.5 c 128,-1,17
 342 291 342 291 341 318 c 0,18,19
 341 325 341 325 341 328 c 0,20,21
 337 377 337 377 339.5 402 c 128,-1,22
 342 427 342 427 348.5 433.5 c 128,-1,23
 355 440 355 440 373 440 c 0,24,25
 398 440 398 440 409.5 417 c 128,-1,26
 421 394 421 394 411 366 c 0,27,28
 402 342 402 342 401 117 c 0,29,30
 401 -102 401 -102 389 -131 c 0,31,32
 384 -144 384 -144 372 -144 c 0,33,34
 348 -144 348 -144 340 -112.5 c 128,-1,35
 332 -81 332 -81 335 10 c 1,36,-1
 337 131 l 1,37,-1
 216 140 l 2,38,39
 94 149 94 149 83 138.5 c 128,-1,40
 72 128 72 128 73 21 c 0,41,42
 74 -43 74 -43 70.5 -68 c 128,-1,43
 67 -93 67 -93 56 -104 c 0,44,45
 43 -117 43 -117 37.5 -117 c 128,-1,46
 32 -117 32 -117 21 -106 c 0,47,48
 13 -98 13 -98 11 -85 c 128,-1,49
 9 -72 9 -72 11 -44.5 c 128,-1,50
 13 -17 13 -17 17 15 c 128,-1,51
 21 47 21 47 26.5 108 c 128,-1,52
 32 169 32 169 35 233 c 0,53,54
 46 433 46 433 60 455 c 0,0,1
EndSplineSet
Validated: 33
EndChar

StartChar: I
Encoding: 73 73 43
Width: 84
Flags: W
LayerCount: 2
Fore
SplineSet
27 454 m 4,0,1
 54 471 54 471 63 447 c 4,2,3
 77 409 77 409 72 157 c 4,4,5
 72 153 72 153 72 148 c 4,6,7
 67 -87 67 -87 57 -121 c 4,8,9
 50 -144 50 -144 29 -142 c 4,10,11
 27 -142 27 -142 24 -141 c 4,12,13
 11 -139 11 -139 10 -101.5 c 132,-1,14
 9 -64 9 -64 13.5 58 c 132,-1,15
 18 180 18 180 16 300 c 4,16,17
 13 446 13 446 27 454 c 4,0,1
EndSplineSet
Validated: 33
EndChar

StartChar: J
Encoding: 74 74 44
Width: 419
Flags: W
LayerCount: 2
Fore
SplineSet
168 410 m 0,0,1
 190 413 190 413 244 428.5 c 128,-1,2
 298 444 298 444 343 457 c 128,-1,3
 388 470 388 470 395 469 c 0,4,5
 406 466 406 466 408.5 440.5 c 128,-1,6
 411 415 411 415 401 402 c 0,7,8
 391 390 391 390 337.5 381.5 c 128,-1,9
 284 373 284 373 282 371 c 0,10,11
 278 367 278 367 300 289 c 0,12,13
 320 221 320 221 326.5 125 c 128,-1,14
 333 29 333 29 321 -7 c 0,15,16
 309 -41 309 -41 276 -69.5 c 128,-1,17
 243 -98 243 -98 204 -108 c 0,18,19
 176 -116 176 -116 161.5 -114 c 128,-1,20
 147 -112 147 -112 124 -98 c 0,21,22
 95 -80 95 -80 57 -28.5 c 128,-1,23
 19 23 19 23 11 56 c 0,24,25
 5 78 5 78 24 102.5 c 128,-1,26
 43 127 43 127 57 117 c 0,27,28
 64 112 64 112 96 49.5 c 128,-1,29
 128 -13 128 -13 143 -21 c 0,30,31
 184 -43 184 -43 224.5 -21 c 128,-1,32
 265 1 265 1 273 49 c 0,33,34
 279 87 279 87 266 173 c 128,-1,35
 253 259 253 259 235 304 c 2,36,-1
 216 353 l 1,37,-1
 169 346 l 2,38,39
 140 341 140 341 129.5 343.5 c 128,-1,40
 119 346 119 346 115 357 c 0,41,42
 107 377 107 377 121.5 391 c 128,-1,43
 136 405 136 405 168 410 c 0,0,1
EndSplineSet
Validated: 33
EndChar

StartChar: K
Encoding: 75 75 45
Width: 382
Flags: W
LayerCount: 2
Fore
SplineSet
15 573 m 0,0,1
 19 581 19 581 40 575.5 c 128,-1,2
 61 570 61 570 64 560 c 1,3,4
 71 543 71 543 64 416 c 0,5,6
 59 324 59 324 63 313 c 0,7,8
 70 296 70 296 107 329 c 0,9,10
 124 345 124 345 220 445 c 0,11,12
 318 547 318 547 337 556 c 0,13,14
 349 561 349 561 359 551 c 0,15,16
 372 538 372 538 372 530 c 128,-1,17
 372 522 372 522 361 501 c 0,18,19
 350 481 350 481 303 431 c 128,-1,20
 256 381 256 381 214.5 338 c 128,-1,21
 173 295 173 295 173 288 c 0,22,23
 173 280 173 280 206 225.5 c 128,-1,24
 239 171 239 171 251 160 c 0,25,26
 259 153 259 153 283 117 c 128,-1,27
 307 81 307 81 318 61 c 0,28,29
 331 36 331 36 324 13.5 c 128,-1,30
 317 -9 317 -9 296 -9 c 0,31,32
 274 -9 274 -9 251 36 c 0,33,34
 224 90 224 90 120 226 c 0,35,36
 117 230 117 230 91 206 c 0,37,38
 74 190 74 190 69.5 174 c 128,-1,39
 65 158 65 158 68 120 c 1,40,41
 71 58 71 58 77 48 c 128,-1,42
 83 38 83 38 63 13 c 0,43,44
 49 -3 49 -3 43 -4.5 c 128,-1,45
 37 -6 37 -6 25 6 c 0,46,47
 14 17 14 17 11.5 69 c 128,-1,48
 9 121 9 121 11 297 c 0,49,50
 14 570 14 570 15 573 c 0,0,1
EndSplineSet
Validated: 33
EndChar

StartChar: L
Encoding: 76 76 46
Width: 361
Flags: W
LayerCount: 2
Fore
SplineSet
41 565 m 0,0,1
 57 574 57 574 76 562 c 128,-1,2
 95 550 95 550 98 527 c 0,3,4
 102 502 102 502 90 463 c 0,5,6
 76 421 76 421 73.5 250 c 128,-1,7
 71 79 71 79 84 64 c 0,8,9
 92 54 92 54 121 50.5 c 128,-1,10
 150 47 150 47 219 47 c 0,11,12
 297 47 297 47 320 43.5 c 128,-1,13
 343 40 343 40 348 28 c 1,14,15
 350 19 350 19 351 11.5 c 128,-1,16
 352 4 352 4 344 -1 c 128,-1,17
 336 -6 336 -6 325 -10 c 128,-1,18
 314 -14 314 -14 292 -16.5 c 128,-1,19
 270 -19 270 -19 242.5 -20 c 128,-1,20
 215 -21 215 -21 174 -22 c 2,21,-1
 24 -26 l 1,22,-1
 15 8 l 2,23,24
 11 23 11 23 10.5 56 c 128,-1,25
 10 89 10 89 12 127.5 c 128,-1,26
 14 166 14 166 17 243.5 c 128,-1,27
 20 321 20 321 21 394 c 0,28,29
 23 485 23 485 27.5 522 c 128,-1,30
 32 559 32 559 41 565 c 0,0,1
EndSplineSet
Validated: 33
EndChar

StartChar: M
Encoding: 77 77 47
Width: 480
Flags: W
LayerCount: 2
Fore
SplineSet
399 558 m 0,0,1
 420 581 420 581 430.5 584 c 128,-1,2
 441 587 441 587 460 575 c 0,3,4
 470 569 470 569 470.5 550.5 c 128,-1,5
 471 532 471 532 462 472 c 0,6,7
 453 411 453 411 452.5 315 c 128,-1,8
 452 219 452 219 455 143 c 128,-1,9
 458 67 458 67 456 5.5 c 128,-1,10
 454 -56 454 -56 443 -66 c 0,11,12
 412 -91 412 -91 400 -39 c 0,13,14
 387 18 387 18 387 218 c 0,15,16
 387 407 387 407 384 407 c 0,17,18
 378 407 378 407 340 347.5 c 128,-1,19
 302 288 302 288 302 279 c 0,20,21
 302 260 302 260 283.5 245 c 128,-1,22
 265 230 265 230 247 235 c 0,23,24
 237 237 237 237 230 244.5 c 128,-1,25
 223 252 223 252 217 262 c 128,-1,26
 211 272 211 272 195 295 c 128,-1,27
 179 318 179 318 157 343 c 0,28,29
 111 397 111 397 111 407.5 c 128,-1,30
 111 418 111 418 100.5 418 c 128,-1,31
 90 418 90 418 90 320 c 0,32,33
 90 196 90 196 82 89.5 c 128,-1,34
 74 -17 74 -17 63 -28 c 0,35,36
 47 -43 47 -43 28.5 -25.5 c 128,-1,37
 10 -8 10 -8 10 21 c 0,38,39
 11 113 11 113 17 275 c 128,-1,40
 23 437 23 437 26 457 c 0,41,42
 31 490 31 490 19 504 c 0,43,44
 6 520 6 520 25.5 547.5 c 128,-1,45
 45 575 45 575 70 575 c 0,46,47
 85 575 85 575 95.5 564 c 128,-1,48
 106 553 106 553 120 521 c 0,49,50
 140 478 140 478 183 418.5 c 128,-1,51
 226 359 226 359 242 354 c 0,52,53
 259 348 259 348 288 388 c 128,-1,54
 317 428 317 428 350.5 485 c 128,-1,55
 384 542 384 542 399 558 c 0,0,1
EndSplineSet
Validated: 33
EndChar

StartChar: N
Encoding: 78 78 48
Width: 421
Flags: W
LayerCount: 2
Fore
SplineSet
341 564 m 0,0,1
 348 576 348 576 372 573 c 0,2,3
 386 571 386 571 389 557 c 1,4,5
 396 533 396 533 397 306 c 0,6,7
 399 42 399 42 408 -22 c 1,8,9
 415 -79 415 -79 402.5 -92.5 c 128,-1,10
 390 -106 390 -106 346 -88 c 0,11,12
 325 -79 325 -79 300.5 -39 c 128,-1,13
 276 1 276 1 211 133 c 0,14,15
 184 189 184 189 159.5 236 c 128,-1,16
 135 283 135 283 119 309.5 c 128,-1,17
 103 336 103 336 100 334 c 0,18,19
 90 329 90 329 83 247.5 c 128,-1,20
 76 166 76 166 75 56 c 0,21,22
 74 -64 74 -64 59 -77 c 0,23,24
 49 -85 49 -85 42 -84.5 c 128,-1,25
 35 -84 35 -84 24 -75 c 0,26,27
 15 -67 15 -67 12 -52.5 c 128,-1,28
 9 -38 9 -38 10 -3 c 128,-1,29
 11 32 11 32 14 73.5 c 128,-1,30
 17 115 17 115 21 197.5 c 128,-1,31
 25 280 25 280 27 367 c 0,32,33
 29 502 29 502 37 521 c 0,34,35
 40 529 40 529 49.5 534 c 128,-1,36
 59 539 59 539 70 539 c 0,37,38
 111 539 111 539 125 456 c 0,39,40
 132 415 132 415 252 197 c 0,41,42
 340 37 340 37 344 50 c 0,43,44
 345 52 345 52 342 62 c 0,45,46
 335 84 335 84 334.5 318.5 c 128,-1,47
 334 553 334 553 341 564 c 0,0,1
EndSplineSet
Validated: 33
EndChar

StartChar: O
Encoding: 79 79 49
Width: 440
Flags: W
LayerCount: 2
Fore
SplineSet
170 485 m 0,0,1
 237 510 237 510 302 483 c 128,-1,2
 367 456 367 456 402 390 c 0,3,4
 421 353 421 353 425.5 323.5 c 128,-1,5
 430 294 430 294 430 216 c 0,6,7
 429 138 429 138 424 107.5 c 128,-1,8
 419 77 419 77 401 36 c 1,9,10
 370 -30 370 -30 324.5 -69 c 128,-1,11
 279 -108 279 -108 225 -116 c 0,12,13
 174 -123 174 -123 139.5 -108 c 128,-1,14
 105 -93 105 -93 70 -48 c 1,15,16
 37 -8 37 -8 24 37.5 c 128,-1,17
 11 83 11 83 10 155 c 0,18,19
 9 214 9 214 17.5 253.5 c 128,-1,20
 26 293 26 293 50 348 c 0,21,22
 66 383 66 383 107 429.5 c 128,-1,23
 148 476 148 476 170 485 c 0,0,1
326 401 m 0,24,25
 307 409 307 409 255 411.5 c 128,-1,26
 203 414 203 414 188 407 c 1,27,28
 79 364 79 364 60 196 c 0,29,30
 45 67 45 67 111 -12 c 1,31,32
 157 -69 157 -69 221 -58.5 c 128,-1,33
 285 -48 285 -48 330 22 c 0,34,35
 364 74 364 74 372 100.5 c 128,-1,36
 380 127 380 127 387 204 c 0,37,38
 392 262 392 262 389 286 c 128,-1,39
 386 310 386 310 370 343 c 0,40,41
 359 364 359 364 346.5 381 c 128,-1,42
 334 398 334 398 326 401 c 0,24,25
EndSplineSet
Validated: 33
EndChar

StartChar: P
Encoding: 80 80 50
Width: 362
Flags: W
LayerCount: 2
Fore
SplineSet
33 496 m 0,0,1
 40 506 40 506 66.5 505 c 128,-1,2
 93 504 93 504 180 490 c 1,3,4
 248 478 248 478 288 440 c 128,-1,5
 328 402 328 402 343 333 c 0,6,7
 371 209 371 209 305 151 c 0,8,9
 272 122 272 122 213.5 105.5 c 128,-1,10
 155 89 155 89 114 96 c 2,11,-1
 77 103 l 1,12,-1
 78 -9 l 2,13,14
 80 -143 80 -143 56 -143 c 0,15,16
 45 -143 45 -143 28 -121 c 0,17,18
 19 -110 19 -110 15.5 -101 c 128,-1,19
 12 -92 12 -92 10.5 -80.5 c 128,-1,20
 9 -69 9 -69 11 -40.5 c 128,-1,21
 13 -12 13 -12 14.5 23 c 128,-1,22
 16 58 16 58 18.5 129 c 128,-1,23
 21 200 21 200 21 283 c 0,24,25
 23 480 23 480 33 496 c 0,0,1
242 396 m 0,26,27
 211 418 211 418 161 425 c 1,28,29
 144 425 144 425 131.5 427 c 128,-1,30
 119 429 119 429 110 423 c 128,-1,31
 101 417 101 417 95 410 c 128,-1,32
 89 403 89 403 85 386 c 128,-1,33
 81 369 81 369 79 349.5 c 128,-1,34
 77 330 77 330 75 298 c 0,35,36
 72 235 72 235 74.5 215.5 c 128,-1,37
 77 196 77 196 90 186 c 0,38,39
 108 173 108 173 141 173 c 128,-1,40
 174 173 174 173 206 182.5 c 128,-1,41
 238 192 238 192 264 209.5 c 128,-1,42
 290 227 290 227 294 246 c 1,43,44
 303 279 303 279 285.5 328 c 128,-1,45
 268 377 268 377 242 396 c 0,26,27
EndSplineSet
Validated: 33
EndChar

StartChar: Q
Encoding: 81 81 51
Width: 496
Flags: W
LayerCount: 2
Fore
SplineSet
232 444 m 0,0,1
 272 471 272 471 293 478.5 c 128,-1,2
 314 486 314 486 347 484 c 0,3,4
 391 482 391 482 414.5 465 c 128,-1,5
 438 448 438 448 463 401 c 0,6,7
 477 373 477 373 481.5 344 c 128,-1,8
 486 315 486 315 486 249 c 0,9,10
 486 181 486 181 480 146.5 c 128,-1,11
 474 112 474 112 453 58 c 0,12,13
 420 -26 420 -26 372 -74 c 0,14,15
 336 -111 336 -111 333 -131 c 128,-1,16
 330 -151 330 -151 359 -167 c 0,17,18
 396 -187 396 -187 369 -196 c 0,19,20
 357 -200 357 -200 331 -200 c 0,21,22
 303 -200 303 -200 289 -195 c 128,-1,23
 275 -190 275 -190 266 -176 c 0,24,25
 250 -153 250 -153 217 -153 c 1,26,27
 158 -155 158 -155 102.5 -118 c 128,-1,28
 47 -81 47 -81 26 -26 c 0,29,30
 -16 83 -16 83 44.5 220.5 c 128,-1,31
 105 358 105 358 232 444 c 0,0,1
407 358 m 0,32,33
 384 405 384 405 360 414.5 c 128,-1,34
 336 424 336 424 287 406 c 0,35,36
 220 381 220 381 161.5 314.5 c 128,-1,37
 103 248 103 248 76 168 c 128,-1,38
 49 88 49 88 66 26 c 0,39,40
 76 -13 76 -13 101.5 -44.5 c 128,-1,41
 127 -76 127 -76 148 -76 c 0,42,43
 163 -76 163 -76 159 -62.5 c 128,-1,44
 155 -49 155 -49 148 -30.5 c 128,-1,45
 141 -12 141 -12 155 7 c 1,46,47
 173 29 173 29 195.5 22.5 c 128,-1,48
 218 16 218 16 248 -21 c 0,49,50
 278 -57 278 -57 286.5 -60.5 c 128,-1,51
 295 -64 295 -64 317 -49 c 0,52,53
 366 -17 366 -17 403.5 82 c 128,-1,54
 441 181 441 181 433 258 c 0,55,56
 427 318 427 318 407 358 c 0,32,33
EndSplineSet
Validated: 33
EndChar

StartChar: R
Encoding: 82 82 52
Width: 440
Flags: W
LayerCount: 2
Fore
SplineSet
137 469 m 0,0,1
 138 470 138 470 140 473 c 0,2,3
 145 481 145 481 147 484 c 128,-1,4
 149 487 149 487 154.5 490.5 c 128,-1,5
 160 494 160 494 163 494.5 c 128,-1,6
 166 495 166 495 177 494.5 c 128,-1,7
 188 494 188 494 196.5 492.5 c 128,-1,8
 205 491 205 491 226 487 c 0,9,10
 234 485 234 485 238 485 c 0,11,12
 375 461 375 461 415 357 c 0,13,14
 427 325 427 325 429 306 c 128,-1,15
 431 287 431 287 425 263 c 0,16,17
 415 224 415 224 388 194.5 c 128,-1,18
 361 165 361 165 334.5 152.5 c 128,-1,19
 308 140 308 140 287.5 131 c 128,-1,20
 267 122 267 122 267 118 c 0,21,22
 267 105 267 105 316 26.5 c 128,-1,23
 365 -52 365 -52 390 -80 c 0,24,25
 413 -106 413 -106 418.5 -118.5 c 128,-1,26
 424 -131 424 -131 417 -143 c 0,27,28
 396 -175 396 -175 362 -156.5 c 128,-1,29
 328 -138 328 -138 309 -84 c 0,30,31
 292 -34 292 -34 234 40.5 c 128,-1,32
 176 115 176 115 154 115 c 0,33,34
 146 115 146 115 141 111.5 c 128,-1,35
 136 108 136 108 128.5 88 c 128,-1,36
 121 68 121 68 113 38.5 c 128,-1,37
 105 9 105 9 88 -56 c 0,38,39
 74 -106 74 -106 60 -120 c 128,-1,40
 46 -134 46 -134 27 -115 c 0,41,42
 12 -100 12 -100 10 -82.5 c 128,-1,43
 8 -65 8 -65 17 -40.5 c 128,-1,44
 26 -16 26 -16 37.5 12 c 128,-1,45
 49 40 49 40 62 88 c 128,-1,46
 75 136 75 136 81 188 c 0,47,48
 84 210 84 210 96 239 c 0,49,50
 110 274 110 274 120 335.5 c 128,-1,51
 130 397 130 397 125 417 c 0,52,53
 119 440 119 440 137 469 c 0,0,1
286 402 m 0,54,55
 281 403 281 403 270 406.5 c 128,-1,56
 259 410 259 410 255.5 411 c 128,-1,57
 252 412 252 412 244.5 413.5 c 128,-1,58
 237 415 237 415 234.5 414 c 128,-1,59
 232 413 232 413 226 411.5 c 128,-1,60
 220 410 220 410 217.5 406 c 128,-1,61
 215 402 215 402 210 396 c 128,-1,62
 205 390 205 390 201 381.5 c 128,-1,63
 197 373 197 373 192 362 c 0,64,65
 183 340 183 340 168 276.5 c 128,-1,66
 153 213 153 213 157 211 c 256,67,68
 161 209 161 209 203 197 c 0,69,70
 230 189 230 189 247 190.5 c 128,-1,71
 264 192 264 192 295 206 c 0,72,73
 336 224 336 224 352 244.5 c 128,-1,74
 368 265 368 265 368 299 c 0,75,76
 368 324 368 324 340 359 c 128,-1,77
 312 394 312 394 286 402 c 0,54,55
EndSplineSet
Validated: 33
EndChar

StartChar: S
Encoding: 83 83 53
Width: 444
Flags: W
LayerCount: 2
Fore
SplineSet
212 452 m 0,0,1
 251 466 251 466 303.5 467 c 128,-1,2
 356 468 356 468 393.5 457 c 128,-1,3
 431 446 431 446 431 428 c 0,4,5
 431 420 431 420 432 411 c 128,-1,6
 433 402 433 402 433 398.5 c 128,-1,7
 433 395 433 395 430 390.5 c 128,-1,8
 427 386 427 386 418 381 c 0,9,10
 403 373 403 373 392 377 c 128,-1,11
 381 381 381 381 361.5 387.5 c 128,-1,12
 342 394 342 394 322 400.5 c 128,-1,13
 302 407 302 407 270 403 c 128,-1,14
 238 399 238 399 202 383 c 0,15,16
 176 371 176 371 162 334 c 128,-1,17
 148 297 148 297 161 273 c 0,18,19
 171 254 171 254 206.5 235 c 128,-1,20
 242 216 242 216 267 216 c 0,21,22
 316 216 316 216 356.5 166.5 c 128,-1,23
 397 117 397 117 397 58 c 0,24,25
 397 4 397 4 355 -49.5 c 128,-1,26
 313 -103 313 -103 250.5 -131.5 c 128,-1,27
 188 -160 188 -160 134 -149 c 0,28,29
 96 -141 96 -141 56.5 -119.5 c 128,-1,30
 17 -98 17 -98 11 -83 c 0,31,32
 6 -68 6 -68 21.5 -49.5 c 128,-1,33
 37 -31 37 -31 56 -31 c 0,34,35
 65 -31 65 -31 86 -40 c 128,-1,36
 107 -49 107 -49 127 -56 c 128,-1,37
 147 -63 147 -63 181.5 -59 c 128,-1,38
 216 -55 216 -55 253 -35 c 0,39,40
 275 -23 275 -23 291.5 -9 c 128,-1,41
 308 5 308 5 308 12 c 0,42,43
 310 30 310 30 315 17 c 0,44,45
 324 -7 324 -7 334 15 c 0,46,47
 341 32 341 32 341 64 c 0,48,49
 341 104 341 104 327.5 120.5 c 128,-1,50
 314 137 314 137 277 141 c 0,51,52
 236 146 236 146 184.5 174.5 c 128,-1,53
 133 203 133 203 115 231 c 1,54,55
 93 272 93 272 97.5 315 c 128,-1,56
 102 358 102 358 133.5 396.5 c 128,-1,57
 165 435 165 435 212 452 c 0,0,1
EndSplineSet
Validated: 33
EndChar

StartChar: T
Encoding: 84 84 54
Width: 509
Flags: W
LayerCount: 2
Fore
SplineSet
305 466 m 0,0,1
 312 474 312 474 375 473 c 128,-1,2
 438 472 438 472 466 464 c 0,3,4
 479 461 479 461 487.5 452 c 128,-1,5
 496 443 496 443 498 431 c 0,6,7
 502 405 502 405 475 396.5 c 128,-1,8
 448 388 448 388 357 386 c 0,9,10
 324 385 324 385 306.5 379.5 c 128,-1,11
 289 374 289 374 277 361 c 0,12,13
 263 346 263 346 190.5 138 c 128,-1,14
 118 -70 118 -70 118 -96 c 0,15,16
 118 -110 118 -110 100.5 -120.5 c 128,-1,17
 83 -131 83 -131 67 -125 c 0,18,19
 56 -121 56 -121 53.5 -111.5 c 128,-1,20
 51 -102 51 -102 56 -78 c 0,21,22
 65 -25 65 -25 100.5 76.5 c 128,-1,23
 136 178 136 178 166.5 259 c 128,-1,24
 197 340 197 340 197 352 c 0,25,26
 197 357 197 357 180 358 c 128,-1,27
 163 359 163 359 133 355.5 c 128,-1,28
 103 352 103 352 67 344 c 0,29,30
 27 335 27 335 12 381 c 0,31,32
 8 396 8 396 13 404.5 c 128,-1,33
 18 413 18 413 38 423 c 0,34,35
 60 434 60 434 72 435 c 128,-1,36
 84 436 84 436 101.5 433.5 c 128,-1,37
 119 431 119 431 170 440 c 0,38,39
 196 445 196 445 221 448.5 c 128,-1,40
 246 452 246 452 258.5 454 c 128,-1,41
 271 456 271 456 281.5 458 c 128,-1,42
 292 460 292 460 297 461.5 c 128,-1,43
 302 463 302 463 305 466 c 0,0,1
EndSplineSet
Validated: 33
EndChar

StartChar: U
Encoding: 85 85 55
Width: 464
Flags: W
LayerCount: 2
Fore
SplineSet
353 529 m 0,0,1
 338 580 338 580 368 602 c 0,2,3
 389 617 389 617 405 600 c 0,4,5
 411 594 411 594 413 583 c 0,6,7
 443 437 443 437 449 383.5 c 128,-1,8
 455 330 455 330 452 248 c 0,9,10
 448 148 448 148 428.5 97.5 c 128,-1,11
 409 47 409 47 358 5 c 0,12,13
 316 -30 316 -30 267.5 -36.5 c 128,-1,14
 219 -43 219 -43 176 -23.5 c 128,-1,15
 133 -4 133 -4 96 40 c 128,-1,16
 59 84 59 84 39 146 c 0,17,18
 19 211 19 211 13 271.5 c 128,-1,19
 7 332 7 332 11.5 370 c 128,-1,20
 16 408 16 408 22 456 c 128,-1,21
 28 504 28 504 27 535 c 0,22,23
 26 568 26 568 41 583 c 128,-1,24
 56 598 56 598 88 598 c 0,25,26
 126 598 126 598 131.5 577 c 128,-1,27
 137 556 137 556 115 493 c 0,28,29
 91 425 91 425 89 325.5 c 128,-1,30
 87 226 87 226 108 164 c 0,31,32
 124 118 124 118 168 67 c 0,33,34
 195 36 195 36 195 52 c 0,35,36
 195 61 195 61 209 50 c 0,37,38
 240 25 240 25 318 102 c 0,39,40
 344 128 344 128 355 149 c 128,-1,41
 366 170 366 170 370 200 c 0,42,43
 377 247 377 247 371 367.5 c 128,-1,44
 365 488 365 488 353 529 c 0,0,1
EndSplineSet
Validated: 33
EndChar

StartChar: V
Encoding: 86 86 56
Width: 473
Flags: W
LayerCount: 2
Fore
SplineSet
401 538 m 0,0,1
 401 553 401 553 407 558.5 c 128,-1,2
 413 564 413 564 428 564 c 0,3,4
 458 564 458 564 461 549 c 1,5,6
 469 520 469 520 404 350 c 0,7,8
 377 279 377 279 305 97 c 0,9,10
 255 -28 255 -28 255 -51 c 0,11,12
 255 -78 255 -78 236.5 -89 c 128,-1,13
 218 -100 218 -100 195 -88 c 0,14,15
 171 -75 171 -75 159 -37 c 128,-1,16
 147 1 147 1 135.5 61 c 128,-1,17
 124 121 124 121 109 160 c 0,18,19
 74 246 74 246 59 319 c 128,-1,20
 44 392 44 392 31 424 c 0,21,22
 12 471 12 471 10.5 507 c 128,-1,23
 9 543 9 543 26 549 c 0,24,25
 46 557 46 557 71.5 525 c 128,-1,26
 97 493 97 493 98 460 c 1,27,28
 98 424 98 424 108 384 c 0,29,30
 119 337 119 337 160.5 200 c 128,-1,31
 202 63 202 63 207 55 c 0,32,33
 214 44 214 44 228 73 c 0,34,35
 241 100 241 100 279 196 c 2,36,-1
 333 334 l 1,37,38
 368 417 368 417 368 444 c 1,39,40
 369 463 369 463 385 490.5 c 128,-1,41
 401 518 401 518 401 538 c 0,0,1
EndSplineSet
Validated: 33
EndChar

StartChar: W
Encoding: 87 87 57
Width: 692
Flags: W
LayerCount: 2
Fore
SplineSet
623 528 m 0,0,1
 632 543 632 543 640 545.5 c 128,-1,2
 648 548 648 548 661 541 c 0,3,4
 677 533 677 533 681 520 c 128,-1,5
 685 507 685 507 678 488 c 128,-1,6
 671 469 671 469 661 449.5 c 128,-1,7
 651 430 651 430 635.5 398.5 c 128,-1,8
 620 367 620 367 610 339 c 0,9,10
 595 298 595 298 545.5 191.5 c 128,-1,11
 496 85 496 85 480 19 c 0,12,13
 464 -46 464 -46 452.5 -72.5 c 128,-1,14
 441 -99 441 -99 429 -99 c 0,15,16
 409 -99 409 -99 388.5 -72.5 c 128,-1,17
 368 -46 368 -46 368 -20 c 0,18,19
 368 12 368 12 358 18.5 c 128,-1,20
 348 25 348 25 323 78 c 2,21,-1
 297 131 l 1,22,-1
 276 81 l 2,23,24
 261 46 261 46 250 2.5 c 128,-1,25
 239 -41 239 -41 232 -58.5 c 128,-1,26
 225 -76 225 -76 212 -76 c 0,27,28
 190 -76 190 -76 172 -51 c 128,-1,29
 154 -26 154 -26 154 6 c 0,30,31
 154 42 154 42 80 251.5 c 128,-1,32
 6 461 6 461 11 496 c 1,33,34
 14 525 14 525 37 525 c 0,35,36
 69 525 69 525 83.5 512 c 128,-1,37
 98 499 98 499 98 471 c 0,38,39
 98 435 98 435 128.5 314.5 c 128,-1,40
 159 194 159 194 179 141 c 2,41,-1
 203 76 l 1,42,-1
 224 118 l 2,43,44
 238 144 238 144 242.5 174 c 128,-1,45
 247 204 247 204 251.5 224.5 c 128,-1,46
 256 245 256 245 269 257 c 0,47,48
 284 271 284 271 290.5 270.5 c 128,-1,49
 297 270 297 270 311 254 c 0,50,51
 326 238 326 238 350.5 181 c 128,-1,52
 375 124 375 124 393 99 c 2,53,-1
 418 66 l 1,54,-1
 472 178 l 2,55,56
 507 251 507 251 540 331.5 c 128,-1,57
 573 412 573 412 592.5 461.5 c 128,-1,58
 612 511 612 511 623 528 c 0,0,1
EndSplineSet
Validated: 33
EndChar

StartChar: X
Encoding: 88 88 58
Width: 499
Flags: W
LayerCount: 2
Fore
SplineSet
408 507 m 0,0,1
 435 544 435 544 457 550 c 128,-1,2
 479 556 479 556 487 529 c 0,3,4
 494 508 494 508 469 467 c 128,-1,5
 444 426 444 426 408 385.5 c 128,-1,6
 372 345 372 345 330.5 296 c 128,-1,7
 289 247 289 247 273 218 c 0,8,9
 257 190 257 190 257.5 179.5 c 128,-1,10
 258 169 258 169 278 131 c 0,11,12
 304 82 304 82 340 39 c 0,13,14
 392 -22 392 -22 387 -63 c 0,15,16
 384 -88 384 -88 358 -88 c 0,17,18
 338 -88 338 -88 273 21 c 2,19,-1
 209 130 l 1,20,-1
 165 82 l 2,21,22
 122 34 122 34 97 -12 c 0,23,24
 70 -61 70 -61 44 -60 c 0,25,26
 27 -60 27 -60 23 -35 c 1,27,28
 21 -14 21 -14 51 29 c 128,-1,29
 81 72 81 72 117.5 118.5 c 128,-1,30
 154 165 154 165 162 184 c 0,31,32
 166 196 166 196 119 271.5 c 128,-1,33
 72 347 72 347 36 385 c 0,34,35
 -9 434 -9 434 28 464 c 0,36,37
 61 492 61 492 105 417 c 0,38,39
 141 354 141 354 170 312.5 c 128,-1,40
 199 271 199 271 209 268 c 0,41,42
 229 260 229 260 408 507 c 0,0,1
EndSplineSet
Validated: 33
EndChar

StartChar: Y
Encoding: 89 89 59
Width: 445
Flags: W
LayerCount: 2
Fore
SplineSet
345 427 m 0,0,1
 345 439 345 439 369 468 c 128,-1,2
 393 497 393 497 412 497 c 0,3,4
 442 497 442 497 434 456 c 0,5,6
 427 422 427 422 396 383 c 0,7,8
 357 332 357 332 298.5 229 c 128,-1,9
 240 126 240 126 198 33 c 0,10,11
 183 0 183 0 173 -20.5 c 128,-1,12
 163 -41 163 -41 154 -57.5 c 128,-1,13
 145 -74 145 -74 139 -81.5 c 128,-1,14
 133 -89 133 -89 127 -93 c 128,-1,15
 121 -97 121 -97 116 -95.5 c 128,-1,16
 111 -94 111 -94 105 -89 c 0,17,18
 81 -69 81 -69 83.5 -45 c 128,-1,19
 86 -21 86 -21 117 18 c 0,20,21
 155 67 155 67 188 144 c 2,22,-1
 221 221 l 1,23,-1
 181 255 l 1,24,25
 89 330 89 330 48.5 374 c 128,-1,26
 8 418 8 418 10 439 c 0,27,28
 13 467 13 467 27 467 c 1,29,30
 48 465 48 465 150 374 c 0,31,32
 164 362 164 362 182 345 c 0,33,34
 203 326 203 326 212.5 317.5 c 128,-1,35
 222 309 222 309 234.5 302.5 c 128,-1,36
 247 296 247 296 251.5 296.5 c 128,-1,37
 256 297 256 297 266 304.5 c 128,-1,38
 276 312 276 312 282.5 321 c 128,-1,39
 289 330 289 330 302 352 c 1,40,41
 345 417 345 417 345 427 c 0,0,1
EndSplineSet
Validated: 33
EndChar

StartChar: Z
Encoding: 90 90 60
Width: 435
Flags: W
LayerCount: 2
Fore
SplineSet
175 469 m 2,0,1
 211 464 211 464 248.5 468.5 c 128,-1,2
 286 473 286 473 308 478 c 128,-1,3
 330 483 330 483 332 484 c 256,4,5
 334 485 334 485 363 472 c 0,6,7
 380 465 380 465 386 454.5 c 128,-1,8
 392 444 392 444 392 422 c 0,9,10
 392 384 392 384 376 384 c 0,11,12
 362 384 362 384 309.5 313 c 128,-1,13
 257 242 257 242 257 222 c 0,14,15
 257 212 257 212 268 208 c 128,-1,16
 279 204 279 204 308 204 c 0,17,18
 362 204 362 204 358 189 c 1,19,20
 354 168 354 168 279 151 c 0,21,22
 263 147 263 147 246 144 c 0,23,24
 218 139 218 139 207 128 c 128,-1,25
 196 117 196 117 185.5 93.5 c 128,-1,26
 175 70 175 70 159 53 c 0,27,28
 132 23 132 23 116 -6 c 128,-1,29
 100 -35 100 -35 106 -44 c 0,30,31
 113 -55 113 -55 167 -47.5 c 128,-1,32
 221 -40 221 -40 305 -18 c 1,33,34
 358 -3 358 -3 378 -1.5 c 128,-1,35
 398 0 398 0 409 -9 c 0,36,37
 431 -27 431 -27 423.5 -39 c 128,-1,38
 416 -51 416 -51 382 -52 c 0,39,40
 338 -54 338 -54 245 -77 c 0,41,42
 181 -93 181 -93 108.5 -97.5 c 128,-1,43
 36 -102 36 -102 19 -92 c 0,44,45
 7 -84 7 -84 11 -59.5 c 128,-1,46
 15 -35 15 -35 33 -7 c 2,47,-1
 134 152 l 1,48,-1
 100 144 l 1,49,50
 77 140 77 140 69 143.5 c 128,-1,51
 61 147 61 147 54 166 c 0,52,53
 43 197 43 197 54.5 206.5 c 128,-1,54
 66 216 66 216 115 216 c 2,55,-1
 175 216 l 1,56,-1
 244 306 l 2,57,58
 272 343 272 343 291 372.5 c 128,-1,59
 310 402 310 402 308 406 c 0,60,61
 302 416 302 416 212 410 c 2,62,-1
 122 403 l 1,63,-1
 122 476 l 1,64,-1
 175 469 l 2,0,1
EndSplineSet
Validated: 33
EndChar

StartChar: bracketleft
Encoding: 91 91 61
Width: 277
Flags: W
LayerCount: 2
Fore
SplineSet
10 -75 m 4,0,1
 10 -53 10 -53 20.5 -42 c 132,-1,2
 31 -31 31 -31 31 -16 c 4,3,4
 31 -9 31 -9 43 123.5 c 132,-1,5
 55 256 55 256 51 286 c 4,6,7
 46 318 46 318 61.5 344.5 c 132,-1,8
 77 371 77 371 98 362 c 5,9,10
 114 354 114 354 156.5 354 c 132,-1,11
 199 354 199 354 231.5 351 c 132,-1,12
 264 348 264 348 266 333 c 4,13,14
 268 319 268 319 253 313 c 132,-1,15
 238 307 238 307 165 295 c 4,16,17
 138 290 138 290 129 281 c 132,-1,18
 120 272 120 272 112 241 c 4,19,20
 101 201 101 201 91 116 c 132,-1,21
 81 31 81 31 82 -13 c 4,22,23
 83 -41 83 -41 90.5 -48 c 132,-1,24
 98 -55 98 -55 138 -63 c 4,25,26
 161 -68 161 -68 178.5 -75.5 c 132,-1,27
 196 -83 196 -83 198 -89 c 260,28,29
 200 -95 200 -95 189 -98 c 4,30,31
 172 -103 172 -103 107 -103 c 4,32,33
 24 -103 24 -103 15 -96 c 4,34,35
 10 -91 10 -91 10 -75 c 4,0,1
EndSplineSet
Validated: 33
EndChar

StartChar: backslash
Encoding: 92 92 62
Width: 238
Flags: W
LayerCount: 2
Fore
SplineSet
10 336 m 0,0,1
 10 362 10 362 31 362 c 128,-1,2
 52 362 52 362 112 243 c 0,3,4
 136 194 136 194 163 151 c 128,-1,5
 190 108 190 108 203 97 c 0,6,7
 224 80 224 80 227.5 71 c 128,-1,8
 231 62 231 62 222 43 c 0,9,10
 211 18 211 18 189.5 15 c 128,-1,11
 168 12 168 12 161 34 c 0,12,13
 148 74 148 74 79 194 c 128,-1,14
 10 314 10 314 10 336 c 0,0,1
EndSplineSet
Validated: 33
EndChar

StartChar: bracketright
Encoding: 93 93 63
Width: 209
Flags: W
LayerCount: 2
Fore
SplineSet
-6.5 283.5 m 0,0,1
 -12.5 307.5 -12.5 307.5 6 328.5 c 128,-1,2
 24.5 349.5 24.5 349.5 42 342.5 c 128,-1,3
 59.5 335.5 59.5 335.5 121.5 322.5 c 0,4,5
 166.5 313.5 166.5 313.5 174.5 302.5 c 0,6,7
 187.419 286.057 187.419 286.057 175.5 220.5 c 0,8,9
 173.5 209.5 173.5 209.5 167.5 174.5 c 0,10,11
 159.5 120.5 159.5 120.5 160.5 33.5 c 128,-1,12
 161.5 -53.5 161.5 -53.5 172.5 -97.5 c 1,13,-1
 181.5 -154.5 l 5,14,-1
 78 -159.5 l 2,15,16
 2.08682 -163.167 2.08682 -163.167 -3.74209 -155.745 c 0,17,18
 -46.734 -101.002 -46.734 -101.002 17 -108.5 c 2,19,-1
 93.5 -117.5 l 1,20,-1
 104.5 -38.5 l 2,21,22
 115.5 40.5 115.5 40.5 115.5 152.5 c 2,23,-1
 115.5 264.5 l 1,24,-1
 57.5 261.5 l 2,25,26
 18.5448 259.485 18.5448 259.485 8 263 c 128,-1,27
 -2.5 266.5 -2.5 266.5 -6.5 283.5 c 0,0,1
EndSplineSet
Validated: 33
EndChar

StartChar: a
Encoding: 97 97 64
Width: 351
Flags: W
LayerCount: 2
Fore
SplineSet
181 298 m 0,0,1
 251 307 251 307 291 283.5 c 128,-1,2
 331 260 331 260 339 207 c 0,3,4
 343 181 343 181 339.5 122.5 c 128,-1,5
 336 64 336 64 333 28 c 128,-1,6
 330 -8 330 -8 336 -26 c 1,7,8
 346 -38 346 -38 337 -70 c 0,9,10
 331 -93 331 -93 320 -98 c 1,11,12
 306 -103 306 -103 228 -107 c 0,13,14
 225 -107 225 -107 221 -107 c 0,15,16
 174 -110 174 -110 155 -110 c 128,-1,17
 136 -110 136 -110 116.5 -110.5 c 128,-1,18
 97 -111 97 -111 88 -106.5 c 128,-1,19
 79 -102 79 -102 71 -98 c 128,-1,20
 63 -94 63 -94 49 -82 c 0,21,22
 47 -81 47 -81 47 -81 c 1,23,24
 18 -59 18 -59 13.5 -46 c 128,-1,25
 9 -33 9 -33 12 15 c 0,26,27
 15 57 15 57 22.5 76 c 128,-1,28
 30 95 30 95 54 120 c 0,29,30
 92 158 92 158 128 176 c 0,31,32
 159 191 159 191 206.5 193 c 128,-1,33
 254 195 254 195 262 182 c 256,34,35
 270 169 270 169 286 171 c 128,-1,36
 302 173 302 173 302 187 c 0,37,38
 302 214 302 214 276 226.5 c 128,-1,39
 250 239 250 239 204 234 c 0,40,41
 159 230 159 230 151.5 233 c 128,-1,42
 144 236 144 236 144 261 c 0,43,44
 144 282 144 282 150.5 288.5 c 128,-1,45
 157 295 157 295 181 298 c 0,0,1
239 126 m 0,46,47
 207 138 207 138 186.5 135.5 c 128,-1,48
 166 133 166 133 133 114 c 1,49,50
 78 80 78 80 61 40 c 128,-1,51
 44 0 44 0 71 -36 c 0,52,53
 103 -78 103 -78 224 -37 c 0,54,55
 260 -25 260 -25 269.5 -15.5 c 128,-1,56
 279 -6 279 -6 283 20 c 0,57,58
 289 60 289 60 277.5 88 c 128,-1,59
 266 116 266 116 239 126 c 0,46,47
EndSplineSet
Validated: 33
EndChar

StartChar: b
Encoding: 98 98 65
Width: 298
Flags: W
LayerCount: 2
Fore
SplineSet
30 500 m 0,0,1
 48 533 48 533 70 515 c 1,2,3
 94 497 94 497 92 454 c 0,4,5
 91 441 91 441 87 428 c 0,6,7
 80 409 80 409 76.5 354 c 128,-1,8
 73 299 73 299 74.5 252 c 128,-1,9
 76 205 76 205 83 205 c 0,10,11
 91 206 91 206 112 222 c 0,12,13
 149 249 149 249 199.5 227.5 c 128,-1,14
 250 206 250 206 272 153 c 0,15,16
 307 70 307 70 270 -18.5 c 128,-1,17
 233 -107 233 -107 147 -146 c 0,18,19
 106 -164 106 -164 80.5 -165 c 128,-1,20
 55 -166 55 -166 31 -149 c 0,21,22
 15 -137 15 -137 11.5 -123.5 c 128,-1,23
 8 -110 8 -110 13 -67 c 0,24,25
 17 -27 17 -27 18 112 c 128,-1,26
 19 251 19 251 21.5 369 c 128,-1,27
 24 487 24 487 30 500 c 0,0,1
227 130 m 0,28,29
 216 155 216 155 206.5 163 c 128,-1,30
 197 171 197 171 178 171 c 0,31,32
 147 171 147 171 135 162 c 0,33,34
 118 150 118 150 101.5 121 c 128,-1,35
 85 92 85 92 85 73 c 0,36,37
 85 47 85 47 74 47 c 0,38,39
 69 47 69 47 66 31 c 128,-1,40
 63 15 63 15 63 -7 c 0,41,42
 63 -62 63 -62 86 -83 c 0,43,44
 102 -98 102 -98 111 -97.5 c 128,-1,45
 120 -97 120 -97 149 -81 c 0,46,47
 208 -49 208 -49 230 10.5 c 128,-1,48
 252 70 252 70 227 130 c 0,28,29
EndSplineSet
Validated: 33
EndChar

StartChar: c
Encoding: 99 99 66
Width: 311
Flags: W
LayerCount: 2
Fore
SplineSet
240 252 m 0,0,1
 274 255 274 255 288.5 243.5 c 128,-1,2
 303 232 303 232 300 206 c 0,3,4
 297 181 297 181 272.5 173.5 c 128,-1,5
 248 166 248 166 228 183 c 0,6,7
 210 197 210 197 160 176.5 c 128,-1,8
 110 156 110 156 83 124 c 0,9,10
 57 93 57 93 54 48 c 128,-1,11
 51 3 51 3 73 -21 c 0,12,13
 91 -40 91 -40 129.5 -41 c 128,-1,14
 168 -42 168 -42 209 -25 c 0,15,16
 243 -11 243 -11 261.5 -18.5 c 128,-1,17
 280 -26 280 -26 280 -54 c 0,18,19
 280 -72 280 -72 268.5 -80 c 128,-1,20
 257 -88 257 -88 242 -87.5 c 128,-1,21
 227 -87 227 -87 204.5 -89.5 c 128,-1,22
 182 -92 182 -92 166 -100 c 0,23,24
 148 -109 148 -109 103.5 -96.5 c 128,-1,25
 59 -84 59 -84 36 -63 c 0,26,27
 20 -49 20 -49 15 -31 c 128,-1,28
 10 -13 10 -13 10 27 c 0,29,30
 10 86 10 86 26 121 c 128,-1,31
 42 156 42 156 88 197 c 0,32,33
 119 225 119 225 148 235.5 c 128,-1,34
 177 246 177 246 240 252 c 0,0,1
EndSplineSet
Validated: 33
EndChar

StartChar: d
Encoding: 100 100 67
Width: 456
Flags: W
LayerCount: 2
Fore
SplineSet
375 545 m 0,0,1
 380 562 380 562 399 564 c 128,-1,2
 418 566 418 566 433 551 c 0,3,4
 446 538 446 538 446.5 517.5 c 128,-1,5
 447 497 447 497 435 474 c 2,6,-1
 413 429 l 2,7,8
 402 407 402 407 402 379 c 0,9,10
 402 361 402 361 393 331.5 c 128,-1,11
 384 302 384 302 369.5 245 c 128,-1,12
 355 188 355 188 346 116 c 0,13,14
 339 65 339 65 325 5 c 128,-1,15
 311 -55 311 -55 301 -75 c 0,16,17
 294 -90 294 -90 208.5 -94 c 128,-1,18
 123 -98 123 -98 82 -86 c 0,19,20
 32 -72 32 -72 16 -10.5 c 128,-1,21
 0 51 0 51 23 119.5 c 128,-1,22
 46 188 46 188 98 223 c 0,23,24
 137 249 137 249 197.5 258 c 128,-1,25
 258 267 258 267 287 251 c 0,26,27
 302 243 302 243 307.5 248.5 c 128,-1,28
 313 254 313 254 321 287 c 0,29,30
 328 313 328 313 350 423 c 128,-1,31
 372 533 372 533 375 545 c 0,0,1
235 182 m 0,32,33
 210 202 210 202 194.5 202 c 128,-1,34
 179 202 179 202 135 182 c 0,35,36
 53 145 53 145 53 54 c 0,37,38
 53 -8 53 -8 82 -27 c 128,-1,39
 111 -46 111 -46 183 -31 c 0,40,41
 210 -26 210 -26 222 -21.5 c 128,-1,42
 234 -17 234 -17 246 -1 c 128,-1,43
 258 15 258 15 264 35 c 128,-1,44
 270 55 270 55 281 101 c 0,45,46
 297 165 297 165 290 167 c 0,47,48
 287 168 287 168 282 166 c 0,49,50
 275 163 275 163 261 168 c 128,-1,51
 247 173 247 173 235 182 c 0,32,33
EndSplineSet
Validated: 33
EndChar

StartChar: e
Encoding: 101 101 68
Width: 389
Flags: W
LayerCount: 2
Fore
SplineSet
210 351 m 0,0,1
 296 377 296 377 344 344 c 128,-1,2
 392 311 392 311 369 242 c 0,3,4
 356 200 356 200 304.5 168.5 c 128,-1,5
 253 137 253 137 199 137 c 0,6,7
 161 137 161 137 153 132.5 c 128,-1,8
 145 128 145 128 145 108 c 0,9,10
 145 79 145 79 169 45 c 0,11,12
 185 22 185 22 196.5 17.5 c 128,-1,13
 208 13 208 13 238 17 c 0,14,15
 262 21 262 21 281.5 29 c 128,-1,16
 301 37 301 37 311 44.5 c 128,-1,17
 321 52 321 52 330 57.5 c 128,-1,18
 339 63 339 63 346.5 62 c 128,-1,19
 354 61 354 61 364 52 c 1,20,21
 386 29 386 29 376 11.5 c 128,-1,22
 366 -6 366 -6 319 -25.5 c 128,-1,23
 272 -45 272 -45 224 -44.5 c 128,-1,24
 176 -44 176 -44 154 -24 c 0,25,26
 131 -3 131 -3 110 39.5 c 128,-1,27
 89 82 89 82 89 108 c 0,28,29
 89 135 89 135 49 158 c 0,30,31
 33 167 33 167 21.5 178.5 c 128,-1,32
 10 190 10 190 10 197 c 0,33,34
 10 215 10 215 27.5 227 c 128,-1,35
 45 239 45 239 64 233 c 0,36,37
 76 229 76 229 83.5 234.5 c 128,-1,38
 91 240 91 240 100 261 c 0,39,40
 112 289 112 289 143 314.5 c 128,-1,41
 174 340 174 340 210 351 c 0,0,1
321 281 m 1,42,43
 314 291 314 291 288.5 295.5 c 128,-1,44
 263 300 263 300 234 297 c 0,45,46
 207 294 207 294 169 260.5 c 128,-1,47
 131 227 131 227 136 212 c 0,48,49
 141 198 141 198 179 195.5 c 128,-1,50
 217 193 217 193 246 205 c 128,-1,51
 275 217 275 217 301 243.5 c 128,-1,52
 327 270 327 270 321 281 c 1,42,43
EndSplineSet
Validated: 33
EndChar

StartChar: f
Encoding: 102 102 69
Width: 396
Flags: W
LayerCount: 2
Fore
SplineSet
224 516 m 0,0,1
 311 583 311 583 365 526 c 0,2,3
 393 496 393 496 384 476 c 0,4,5
 378 461 378 461 356 473 c 0,6,7
 303 501 303 501 241 459 c 0,8,9
 211 439 211 439 182 389 c 128,-1,10
 153 339 153 339 153 307 c 0,11,12
 153 289 153 289 159 285.5 c 128,-1,13
 165 282 165 282 190 286 c 0,14,15
 227 291 227 291 240.5 284 c 128,-1,16
 254 277 254 277 254 249 c 0,17,18
 254 227 254 227 246.5 221.5 c 128,-1,19
 239 216 239 216 206 213 c 2,20,-1
 158 210 l 1,21,-1
 160 88 l 2,22,23
 163 -34 163 -34 176 -49 c 0,24,25
 187 -63 187 -63 180.5 -86.5 c 128,-1,26
 174 -110 174 -110 159 -110 c 0,27,28
 136 -110 136 -110 126 -75.5 c 128,-1,29
 116 -41 116 -41 111 63 c 2,30,-1
 104 204 l 1,31,-1
 67 211 l 2,32,33
 41 216 41 216 26 225.5 c 128,-1,34
 11 235 11 235 10.5 246 c 128,-1,35
 10 257 10 257 23 268 c 1,36,37
 40 280 40 280 60 286.5 c 128,-1,38
 80 293 80 293 89.5 304.5 c 128,-1,39
 99 316 99 316 112 354 c 0,40,41
 130 410 130 410 155 445.5 c 128,-1,42
 180 481 180 481 224 516 c 0,0,1
EndSplineSet
Validated: 33
EndChar

StartChar: g
Encoding: 103 103 70
Width: 390
Flags: W
LayerCount: 2
Fore
SplineSet
134 401 m 4,0,1
 175 414 175 414 198.5 413 c 132,-1,2
 222 412 222 412 248 395 c 4,3,4
 284 371 284 371 299.5 342.5 c 132,-1,5
 315 314 315 314 315 270 c 5,6,7
 316 234 316 234 321 223.5 c 132,-1,8
 326 213 326 213 348 205 c 5,9,10
 481.541 164.847 481.541 164.847 436.023 128.293 c 4,11,12
 401.938 102 401.938 102 390 118.293 c 4,13,14
 324.7 207.419 324.7 207.419 326.023 154.293 c 4,15,16
 328.332 61.5879 328.332 61.5879 328.023 30.293 c 4,17,18
 328.005 24.626 328.005 24.626 314.023 -51.707 c 4,19,20
 312.811 -58.3291 312.811 -58.3291 273.508 -90.4902 c 4,21,22
 232.555 -124 232.555 -124 129 -124 c 4,23,24
 75 -124 75 -124 58.5 -111 c 132,-1,25
 42 -98 42 -98 42 -55 c 4,26,27
 42 -28 42 -28 53 -11.5 c 4,28,29
 62.3682 2.55273 62.3682 2.55273 107 43 c 6,30,-1
 154.023 116.293 l 5,31,-1
 129 101 l 6,32,33
 107.323 87.752 107.323 87.752 56.5 129 c 4,34,35
 22 157 22 157 13 196 c 4,36,37
 0 248 0 248 40 316 c 132,-1,38
 80 384 80 384 134 401 c 4,0,1
244.023 320.293 m 4,39,40
 233.897 341.847 233.897 341.847 208.023 342.293 c 4,41,42
 165.226 343.031 165.226 343.031 121.023 320.793 c 4,43,44
 94.2949 307.346 94.2949 307.346 77.0117 287.896 c 4,45,46
 55.0498 263.181 55.0498 263.181 58 240 c 4,47,48
 60.6924 218.845 60.6924 218.845 63 205 c 4,49,50
 64 199 64 199 72.5 189.5 c 132,-1,51
 81 180 81 180 93 172 c 4,52,53
 112 160 112 160 125 159 c 132,-1,54
 138 158 138 158 166 167 c 4,55,56
 227.059 184.639 227.059 184.639 251 216 c 4,57,58
 270.237 241.84 270.237 241.84 262.023 266.293 c 4,59,60
 247.155 310.559 247.155 310.559 244.023 320.293 c 4,39,40
267 64 m 4,61,-1
 280.023 162.293 l 4,62,63
 236.023 130.293 236.023 130.293 168.512 45.6465 c 4,64,65
 117.816 -19.8613 117.816 -19.8613 87 -55 c 4,66,67
 87 -76 87 -76 115.5 -81 c 132,-1,68
 144 -86 144 -86 186 -73 c 4,69,70
 246.273 -55.4199 246.273 -55.4199 250.5 -31 c 4,71,72
 266.798 63.1592 266.798 63.1592 267 64 c 4,61,-1
EndSplineSet
EndChar

StartChar: h
Encoding: 104 104 71
Width: 283
Flags: W
LayerCount: 2
Fore
SplineSet
15 533 m 0,0,1
 16 542 16 542 32.5 541 c 128,-1,2
 49 540 49 540 55 530 c 0,3,4
 59 523 59 523 62.5 456 c 128,-1,5
 66 389 66 389 68.5 314.5 c 128,-1,6
 71 240 71 240 71 239 c 0,7,8
 72 222 72 222 111 260 c 0,9,10
 136 285 136 285 149.5 290 c 128,-1,11
 163 295 163 295 190 290 c 0,12,13
 237 280 237 280 251 248.5 c 128,-1,14
 265 217 265 217 258 133 c 0,15,16
 250 39 250 39 264 9 c 0,17,18
 274 -11 274 -11 272 -20 c 128,-1,19
 270 -29 270 -29 254 -45 c 0,20,21
 239 -60 239 -60 231.5 -61.5 c 128,-1,22
 224 -63 224 -63 213 -55 c 1,23,24
 199 -43 199 -43 196.5 -21.5 c 128,-1,25
 194 0 194 0 206 7 c 1,26,27
 216 14 216 14 216.5 105 c 128,-1,28
 217 196 217 196 206 216 c 0,29,30
 193 240 193 240 174.5 236.5 c 128,-1,31
 156 233 156 233 123 199 c 0,32,33
 95 170 95 170 89.5 153 c 128,-1,34
 84 136 84 136 85 72 c 1,35,36
 85 -10 85 -10 76.5 -32.5 c 128,-1,37
 68 -55 68 -55 39 -52 c 2,38,-1
 10 -48 l 1,39,-1
 12 238 l 2,40,41
 14 525 14 525 15 533 c 0,0,1
EndSplineSet
Validated: 33
EndChar

StartChar: i
Encoding: 105 105 72
Width: 301
Flags: W
LayerCount: 2
Fore
SplineSet
111 207 m 0,0,1
 115 219 115 219 123.5 228.5 c 128,-1,2
 132 238 132 238 139 238 c 0,3,4
 157 238 157 238 162 209.5 c 128,-1,5
 167 181 167 181 153 153 c 0,6,7
 134 113 134 113 134.5 69 c 128,-1,8
 135 25 135 25 156 -1 c 1,9,10
 174 -25 174 -25 202 -31 c 128,-1,11
 230 -37 230 -37 237 -19 c 1,12,13
 242 -10 242 -10 254 -11 c 128,-1,14
 266 -12 266 -12 278.5 -21.5 c 128,-1,15
 291 -31 291 -31 291 -43 c 0,16,17
 291 -63 291 -63 275 -74.5 c 128,-1,18
 259 -86 259 -86 221 -92 c 0,19,20
 194 -97 194 -97 180 -92.5 c 128,-1,21
 166 -88 166 -88 140 -65 c 0,22,23
 116 -44 116 -44 104 -24.5 c 128,-1,24
 92 -5 92 -5 90 3.5 c 128,-1,25
 88 12 88 12 79.5 17 c 128,-1,26
 71 22 71 22 50 21 c 0,27,28
 13 19 13 19 10 42.5 c 128,-1,29
 7 66 7 66 41 90 c 0,30,31
 65 107 65 107 77 127.5 c 128,-1,32
 89 148 89 148 111 207 c 0,0,1
147 404 m 0,33,34
 161 418 161 418 172.5 413.5 c 128,-1,35
 184 409 184 409 187 389 c 0,36,37
 190 366 190 366 178.5 351.5 c 128,-1,38
 167 337 167 337 151 343 c 128,-1,39
 135 349 135 349 133.5 369.5 c 128,-1,40
 132 390 132 390 147 404 c 0,33,34
EndSplineSet
Validated: 33
EndChar

StartChar: j
Encoding: 106 106 73
Width: 291
Flags: W
LayerCount: 2
Fore
SplineSet
222 322 m 0,0,1
 236 339 236 339 244 338 c 128,-1,2
 252 337 252 337 265 317 c 1,3,4
 278 294 278 294 281 129 c 1,5,6
 282 17 282 17 278.5 -17.5 c 128,-1,7
 275 -52 275 -52 259 -83 c 0,8,9
 222 -153 222 -153 161 -170.5 c 128,-1,10
 100 -188 100 -188 49 -143 c 0,11,12
 -21 -82 -21 -82 31 -54 c 0,13,14
 44 -47 44 -47 54 -52.5 c 128,-1,15
 64 -58 64 -58 83 -82 c 0,16,17
 100 -105 100 -105 111.5 -111.5 c 128,-1,18
 123 -118 123 -118 137 -114 c 0,19,20
 175 -103 175 -103 197 -68.5 c 128,-1,21
 219 -34 219 -34 223 10.5 c 128,-1,22
 227 55 227 55 226.5 105.5 c 128,-1,23
 226 156 226 156 219.5 200 c 128,-1,24
 213 244 213 244 214 278 c 128,-1,25
 215 312 215 312 222 322 c 0,0,1
208 482 m 0,26,27
 214 501 214 501 234 495.5 c 128,-1,28
 254 490 254 490 259 469 c 1,29,30
 263 445 263 445 257.5 437 c 128,-1,31
 252 429 252 429 232 429 c 0,32,33
 217 429 217 429 209 446 c 128,-1,34
 201 463 201 463 208 482 c 0,26,27
EndSplineSet
Validated: 33
EndChar

StartChar: k
Encoding: 107 107 74
Width: 320
Flags: W
LayerCount: 2
Fore
SplineSet
149 416 m 1,0,1
 154 430 154 430 170 429 c 128,-1,2
 186 428 186 428 192 413 c 0,3,4
 195 404 195 404 186 374 c 128,-1,5
 177 344 177 344 162 303.5 c 128,-1,6
 147 263 147 263 142 244 c 0,7,8
 140 235 140 235 128.5 191.5 c 128,-1,9
 117 148 117 148 107.5 111.5 c 128,-1,10
 98 75 98 75 98 72 c 0,11,12
 98 58 98 58 160 126 c 1,13,14
 205 177 205 177 228 212 c 0,15,16
 288 304 288 304 307 255 c 0,17,18
 314 236 314 236 306 209 c 128,-1,19
 298 182 298 182 284 182 c 0,20,21
 269 182 269 182 239.5 147 c 128,-1,22
 210 112 210 112 210 94 c 0,23,24
 210 75 210 75 239.5 18 c 128,-1,25
 269 -39 269 -39 292 -63 c 0,26,27
 306 -78 306 -78 308.5 -87.5 c 128,-1,28
 311 -97 311 -97 304 -108 c 0,29,30
 278 -150 278 -150 244 -100 c 0,31,32
 230 -80 230 -80 212 -43 c 0,33,34
 195 -8 195 -8 178.5 17 c 128,-1,35
 162 42 162 42 156 42 c 0,36,37
 143 42 143 42 110.5 -15 c 128,-1,38
 78 -72 78 -72 73 -101 c 1,39,40
 70 -127 70 -127 45 -130.5 c 128,-1,41
 20 -134 20 -134 12.5 -114 c 128,-1,42
 5 -94 5 -94 18 -61 c 0,43,44
 32 -26 32 -26 75.5 127 c 128,-1,45
 119 280 119 280 132 339 c 0,46,47
 145 401 145 401 149 416 c 1,0,1
EndSplineSet
Validated: 33
EndChar

StartChar: l
Encoding: 108 108 75
Width: 103
Flags: W
LayerCount: 2
Fore
SplineSet
38 501 m 0,0,1
 44 519 44 519 64.5 519.5 c 128,-1,2
 85 520 85 520 91 502 c 0,3,4
 98 484 98 484 86 461 c 0,5,6
 81 453 81 453 77.5 423.5 c 128,-1,7
 74 394 74 394 71.5 347 c 128,-1,8
 69 300 69 300 67.5 253.5 c 128,-1,9
 66 207 66 207 63.5 143 c 128,-1,10
 61 79 61 79 59 38 c 0,11,12
 54 -67 54 -67 67 -88 c 0,13,14
 75 -101 75 -101 73.5 -109.5 c 128,-1,15
 72 -118 72 -118 59 -133 c 0,16,17
 45 -148 45 -148 38.5 -149 c 128,-1,18
 32 -150 32 -150 21 -140 c 1,19,20
 13 -131 13 -131 11 -101.5 c 128,-1,21
 9 -72 9 -72 12 -21.5 c 128,-1,22
 15 29 15 29 19 85.5 c 128,-1,23
 23 142 23 142 27 221.5 c 128,-1,24
 31 301 31 301 31 371 c 0,25,26
 31 483 31 483 38 501 c 0,0,1
EndSplineSet
Validated: 33
EndChar

StartChar: m
Encoding: 109 109 76
Width: 426
Flags: W
LayerCount: 2
Fore
SplineSet
13 237 m 0,0,1
 21 251 21 251 46 247 c 0,2,3
 59 245 59 245 63.5 238.5 c 128,-1,4
 68 232 68 232 66 216 c 0,5,6
 47 55 47 55 59 31 c 0,7,8
 60 28 60 28 62 29 c 0,9,10
 73 36 73 36 81 70 c 0,11,12
 88 103 88 103 141.5 161.5 c 128,-1,13
 195 220 195 220 209.5 211 c 128,-1,14
 224 202 224 202 244 167 c 1,15,-1
 265 133 l 1,16,-1
 276 162 l 2,17,18
 287 191 287 191 312 208 c 128,-1,19
 337 225 337 225 362.5 221.5 c 128,-1,20
 388 218 388 218 400 196 c 0,21,22
 410 176 410 176 414 48 c 0,23,24
 417 -36 417 -36 414 -60 c 128,-1,25
 411 -84 411 -84 398 -92 c 0,26,27
 370 -110 370 -110 363 -74 c 0,28,29
 359 -55 359 -55 364 -26 c 0,30,31
 379 65 379 65 368 126 c 0,32,33
 357 182 357 182 323 139 c 0,34,35
 305 117 305 117 285 59.5 c 128,-1,36
 265 2 265 2 272 -9 c 0,37,38
 280 -21 280 -21 263.5 -49 c 128,-1,39
 247 -77 247 -77 234 -74 c 0,40,41
 223 -72 223 -72 219.5 -52.5 c 128,-1,42
 216 -33 216 -33 216 27 c 0,43,44
 216 138 216 138 195 140 c 1,45,46
 183 140 183 140 158 110 c 0,47,48
 136 85 136 85 118.5 41 c 128,-1,49
 101 -3 101 -3 77 -88 c 0,50,51
 70 -113 70 -113 51.5 -118.5 c 128,-1,52
 33 -124 33 -124 26 -102 c 0,53,54
 18 -76 18 -76 12.5 75.5 c 128,-1,55
 7 227 7 227 13 237 c 0,0,1
EndSplineSet
Validated: 33
EndChar

StartChar: n
Encoding: 110 110 77
Width: 310
Flags: W
LayerCount: 2
Fore
SplineSet
145 235 m 0,0,1
 189 276 189 276 209.5 280.5 c 128,-1,2
 230 285 230 285 267 259 c 2,3,-1
 300 235 l 1,4,-1
 291 133 l 2,5,6
 282 30 282 30 281 -13 c 0,7,8
 280 -59 280 -59 257 -73 c 1,9,10
 242 -84 242 -84 229 -65 c 0,11,12
 218 -48 218 -48 223 -26 c 2,13,-1
 241 49 l 2,14,15
 253 101 253 101 250 156 c 0,16,17
 248 189 248 189 243 200 c 128,-1,18
 238 211 238 211 224 213 c 0,19,20
 201 217 201 217 171.5 182.5 c 128,-1,21
 142 148 142 148 118 92.5 c 128,-1,22
 94 37 94 37 87 -18 c 0,23,24
 83 -45 83 -45 77 -55 c 128,-1,25
 71 -65 71 -65 60 -65 c 0,26,27
 50 -65 50 -65 44.5 -61 c 128,-1,28
 39 -57 39 -57 35 -38 c 128,-1,29
 31 -19 31 -19 28.5 10 c 128,-1,30
 26 39 26 39 22 98 c 0,31,32
 16 209 16 209 11 214 c 128,-1,33
 6 219 6 219 17 240 c 0,34,35
 24 253 24 253 30.5 254.5 c 128,-1,36
 37 256 37 256 51 248 c 0,37,38
 67 240 67 240 69.5 227 c 128,-1,39
 72 214 72 214 67 169 c 0,40,41
 60 107 60 107 71 108 c 0,42,43
 79 108 79 108 88 151 c 0,44,45
 95 187 95 187 145 235 c 0,0,1
EndSplineSet
Validated: 33
EndChar

StartChar: o
Encoding: 111 111 78
Width: 309
Flags: W
LayerCount: 2
Fore
SplineSet
110 303 m 0,0,1
 149 323 149 323 167 325.5 c 128,-1,2
 185 328 185 328 189.5 320.5 c 128,-1,3
 194 313 194 313 207.5 296 c 128,-1,4
 221 279 221 279 244 267 c 0,5,6
 257 260 257 260 270.5 245 c 128,-1,7
 284 230 284 230 290 216 c 0,8,9
 304 182 304 182 297.5 124 c 128,-1,10
 291 66 291 66 270 44 c 0,11,12
 233 3 233 3 168.5 -13 c 128,-1,13
 104 -29 104 -29 64 -8 c 0,14,15
 21 15 21 15 12 88 c 128,-1,16
 3 161 3 161 35 227 c 0,17,18
 48 255 48 255 65 272 c 128,-1,19
 82 289 82 289 110 303 c 0,0,1
235 208 m 0,20,21
 205 239 205 239 156 240 c 128,-1,22
 107 241 107 241 96 211 c 0,23,24
 93 204 93 204 86 198.5 c 128,-1,25
 79 193 79 193 72 193 c 0,26,27
 54 193 54 193 49 161 c 128,-1,28
 44 129 44 129 53 92.5 c 128,-1,29
 62 56 62 56 80 45 c 0,30,31
 95 35 95 35 133 36 c 128,-1,32
 171 37 171 37 192 48 c 0,33,34
 234 70 234 70 249.5 92 c 128,-1,35
 265 114 265 114 260 146 c 0,36,37
 258 163 258 163 250.5 181.5 c 128,-1,38
 243 200 243 200 235 208 c 0,20,21
EndSplineSet
Validated: 33
EndChar

StartChar: p
Encoding: 112 112 79
Width: 282
Flags: W
LayerCount: 2
Fore
SplineSet
75 287 m 0,0,1
 132 309 132 309 167 304.5 c 128,-1,2
 202 300 202 300 236 266 c 0,3,4
 264 238 264 238 269 223 c 128,-1,5
 274 208 274 208 270 163 c 0,6,7
 264 79 264 79 217.5 29 c 128,-1,8
 171 -21 171 -21 89 -34 c 0,9,10
 72 -36 72 -36 67.5 -58.5 c 128,-1,11
 63 -81 63 -81 66.5 -102.5 c 128,-1,12
 70 -124 70 -124 73 -129 c 0,13,14
 83 -142 83 -142 76 -171 c 0,15,16
 71 -189 71 -189 63.5 -194.5 c 128,-1,17
 56 -200 56 -200 39 -198 c 0,18,19
 32 -197 32 -197 28 -196 c 128,-1,20
 24 -195 24 -195 20.5 -194 c 128,-1,21
 17 -193 17 -193 16 -190.5 c 128,-1,22
 15 -188 15 -188 13.5 -185 c 128,-1,23
 12 -182 12 -182 12.5 -176 c 128,-1,24
 13 -170 13 -170 13.5 -164 c 128,-1,25
 14 -158 14 -158 15 -147.5 c 128,-1,26
 16 -137 16 -137 17 -126 c 128,-1,27
 18 -115 18 -115 18.5 -98.5 c 128,-1,28
 19 -82 19 -82 20 -65 c 0,29,30
 22 8 22 8 30 36 c 0,31,32
 43 87 43 87 41.5 134.5 c 128,-1,33
 40 182 40 182 24 200 c 0,34,35
 -20 249 -20 249 75 287 c 0,0,1
210 228 m 0,36,37
 193 247 193 247 154.5 249.5 c 128,-1,38
 116 252 116 252 110 235 c 0,39,40
 51 63 51 63 100 34 c 0,41,42
 112 27 112 27 131 30 c 0,43,44
 163 36 163 36 179.5 50.5 c 128,-1,45
 196 65 196 65 212 100 c 0,46,47
 230 137 230 137 229.5 172 c 128,-1,48
 229 207 229 207 210 228 c 0,36,37
EndSplineSet
Validated: 33
EndChar

StartChar: q
Encoding: 113 113 80
Width: 296
Flags: W
LayerCount: 2
Fore
SplineSet
123 255 m 0,0,1
 166 270 166 270 195 261 c 0,2,3
 231 250 231 250 258.5 238.5 c 128,-1,4
 286 227 286 227 286 222 c 1,5,6
 286 222 286 222 264 159.5 c 128,-1,7
 242 97 242 97 244 77 c 0,8,9
 246 58 246 58 226 -27.5 c 128,-1,10
 206 -113 206 -113 202 -147 c 256,11,12
 198 -181 198 -181 192 -190.5 c 128,-1,13
 186 -200 186 -200 169 -200 c 2,14,-1
 142 -200 l 1,15,-1
 158 -136 l 1,16,17
 176 -57 176 -57 170 -46 c 0,18,19
 165 -36 165 -36 129 -39 c 0,20,21
 128 -40 128 -40 126 -40 c 0,22,23
 93 -43 93 -43 80.5 -38.5 c 128,-1,24
 68 -34 68 -34 48 -10 c 0,25,26
 14 30 14 30 10.5 68 c 128,-1,27
 7 106 7 106 32 155 c 0,28,29
 63 216 63 216 75.5 229.5 c 128,-1,30
 88 243 88 243 123 255 c 0,0,1
201 183 m 0,31,32
 183 203 183 203 151 203.5 c 128,-1,33
 119 204 119 204 96 185 c 0,34,35
 74 166 74 166 63.5 118.5 c 128,-1,36
 53 71 53 71 66 45 c 0,37,38
 78 19 78 19 118 16 c 256,39,40
 158 13 158 13 175.5 30.5 c 128,-1,41
 193 48 193 48 205 102 c 0,42,43
 214 142 214 142 213 156 c 128,-1,44
 212 170 212 170 201 183 c 0,31,32
EndSplineSet
Validated: 33
EndChar

StartChar: r
Encoding: 114 114 81
Width: 257
Flags: W
LayerCount: 2
Fore
SplineSet
155 262 m 0,0,1
 195 291 195 291 207 292 c 128,-1,2
 219 293 219 293 235 267 c 1,3,4
 256 236 256 236 243 214 c 0,5,6
 232 196 232 196 211 217 c 0,7,8
 199 228 199 228 167 207.5 c 128,-1,9
 135 187 135 187 113 153 c 0,10,11
 100 134 100 134 97.5 115 c 128,-1,12
 95 96 95 96 100 54 c 0,13,14
 112 -55 112 -55 106 -67 c 0,15,16
 103 -72 103 -72 94 -74 c 0,17,18
 86 -76 86 -76 81 -72 c 128,-1,19
 76 -68 76 -68 68.5 -44 c 128,-1,20
 61 -20 61 -20 52.5 16 c 128,-1,21
 44 52 44 52 27 129 c 0,22,23
 13 192 13 192 10.5 219 c 128,-1,24
 8 246 8 246 16 255 c 0,25,26
 31 273 31 273 46 263 c 128,-1,27
 61 253 61 253 61 226 c 128,-1,28
 61 199 61 199 70.5 195.5 c 128,-1,29
 80 192 80 192 97 212 c 0,30,31
 112 230 112 230 155 262 c 0,0,1
EndSplineSet
Validated: 33
EndChar

StartChar: s
Encoding: 115 115 82
Width: 273
Flags: W
LayerCount: 2
Fore
SplineSet
99 273 m 0,0,1
 117 288 117 288 167.5 293 c 128,-1,2
 218 298 218 298 246 288 c 0,3,4
 263 281 263 281 263.5 255 c 128,-1,5
 264 229 264 229 247 223 c 0,6,7
 231 217 231 217 199 229 c 0,8,9
 166 242 166 242 138 234 c 128,-1,10
 110 226 110 226 95 199 c 0,11,12
 79 169 79 169 92.5 150 c 128,-1,13
 106 131 106 131 154 117 c 0,14,15
 222 98 222 98 246 53.5 c 128,-1,16
 270 9 270 9 246 -53 c 0,17,18
 232 -89 232 -89 203.5 -105 c 128,-1,19
 175 -121 175 -121 127 -121 c 0,20,21
 78 -121 78 -121 39.5 -89.5 c 128,-1,22
 1 -58 1 -58 12 -27 c 0,23,24
 19 -8 19 -8 30.5 -10.5 c 128,-1,25
 42 -13 42 -13 66 -37 c 0,26,27
 87 -58 87 -58 121.5 -63 c 128,-1,28
 156 -68 156 -68 182 -55 c 128,-1,29
 208 -42 208 -42 208 -18 c 0,30,31
 208 12 208 12 171.5 38 c 128,-1,32
 135 64 135 64 100 60 c 0,33,34
 91 59 91 59 77 70.5 c 128,-1,35
 63 82 63 82 52.5 104 c 128,-1,36
 42 126 42 126 38 152.5 c 128,-1,37
 34 179 34 179 49 211.5 c 128,-1,38
 64 244 64 244 99 273 c 0,0,1
EndSplineSet
Validated: 33
EndChar

StartChar: t
Encoding: 116 116 83
Width: 297
Flags: W
LayerCount: 2
Fore
SplineSet
117 356 m 0,0,1
 125 365 125 365 132.5 366 c 128,-1,2
 140 367 140 367 145 363 c 128,-1,3
 150 359 150 359 157 353 c 128,-1,4
 164 347 164 347 169 346 c 0,5,6
 169 345 169 345 156 280 c 128,-1,7
 143 215 143 215 149 214 c 0,8,9
 156 212 156 212 212 211 c 0,10,11
 254 210 254 210 261 205.5 c 128,-1,12
 268 201 268 201 268 176 c 0,13,14
 268 156 268 156 263.5 150 c 128,-1,15
 259 144 259 144 246 146 c 0,16,17
 215 151 215 151 181.5 149.5 c 128,-1,18
 148 148 148 148 138 142 c 256,19,20
 128 136 128 136 129 103 c 128,-1,21
 130 70 130 70 136.5 32.5 c 128,-1,22
 143 -5 143 -5 154 -35 c 128,-1,23
 165 -65 165 -65 175 -65 c 0,24,25
 186 -65 186 -65 217 -44 c 0,26,27
 284 2 284 2 287 -26 c 0,28,29
 288 -39 288 -39 274 -64 c 0,30,31
 262 -87 262 -87 220 -109.5 c 128,-1,32
 178 -132 178 -132 159 -126 c 0,33,34
 135 -119 135 -119 118.5 -70.5 c 128,-1,35
 102 -22 102 -22 97 55 c 2,36,-1
 91 147 l 1,37,-1
 50 151 l 2,38,39
 24 153 24 153 17 158.5 c 128,-1,40
 10 164 10 164 10 182 c 0,41,42
 10 199 10 199 15.5 205 c 128,-1,43
 21 211 21 211 38 211 c 1,44,45
 40 212 40 212 44 212 c 0,46,47
 91 214 91 214 98.5 221.5 c 128,-1,48
 106 229 106 229 105 272 c 0,49,50
 104 276 104 276 104 278 c 0,51,52
 102 338 102 338 117 356 c 0,0,1
EndSplineSet
Validated: 33
EndChar

StartChar: u
Encoding: 117 117 84
Width: 404
Flags: W
LayerCount: 2
Fore
SplineSet
215 195.5 m 128,-1,1
 225 215 225 215 243 208 c 0,2,3
 257 203 257 203 256.5 170 c 128,-1,4
 256 137 256 137 242 57 c 0,5,6
 234 12 234 12 249 -9.5 c 128,-1,7
 264 -31 264 -31 304 -31 c 0,8,9
 348 -31 348 -31 355 -20 c 0,10,11
 362 -8 362 -8 378 -9.5 c 128,-1,12
 394 -11 394 -11 394 -25 c 0,13,14
 394 -42 394 -42 363 -64 c 128,-1,15
 332 -86 332 -86 297 -92 c 0,16,17
 265 -98 265 -98 239.5 -84.5 c 128,-1,18
 214 -71 214 -71 214 -47 c 0,19,20
 214 -11 214 -11 160 -65 c 0,21,22
 131 -95 131 -95 100.5 -98 c 128,-1,23
 70 -101 70 -101 47 -78 c 0,24,25
 -4 -27 -4 -27 16 98 c 0,26,27
 24 149 24 149 31 163.5 c 128,-1,28
 38 178 38 178 55 180 c 0,29,30
 66 182 66 182 72 179 c 128,-1,31
 78 176 78 176 79 164.5 c 128,-1,32
 80 153 80 153 77 134 c 128,-1,33
 74 115 74 115 66 82 c 0,34,35
 48 3 48 3 78 -23 c 0,36,37
 105 -47 105 -47 147 -2 c 0,38,39
 149 1 149 1 151 3 c 0,40,41
 173 29 173 29 180 48.5 c 128,-1,42
 187 68 187 68 198 131 c 0,43,0
 205 176 205 176 215 195.5 c 128,-1,1
EndSplineSet
Validated: 33
EndChar

StartChar: v
Encoding: 118 118 85
Width: 325
Flags: W
LayerCount: 2
Fore
SplineSet
122 2 m 0,0,1
 127 2 127 2 138.5 22 c 128,-1,2
 150 42 150 42 175 85 c 128,-1,3
 200 128 200 128 228 166 c 0,4,5
 276 234 276 234 302 227 c 0,6,7
 315 224 315 224 315 199 c 0,8,9
 315 187 315 187 311.5 179 c 128,-1,10
 308 171 308 171 303 171 c 0,11,12
 285 171 285 171 253.5 131 c 128,-1,13
 222 91 222 91 195.5 38 c 128,-1,14
 169 -15 169 -15 164.5 -49.5 c 128,-1,15
 160 -84 160 -84 149.5 -99 c 128,-1,16
 139 -114 139 -114 125 -105 c 0,17,18
 114 -98 114 -98 86.5 -45.5 c 128,-1,19
 59 7 59 7 31 78 c 0,20,21
 13 122 13 122 10.5 137 c 128,-1,22
 8 152 8 152 18 160 c 256,23,24
 28 168 28 168 34.5 168 c 128,-1,25
 41 168 41 168 51 160 c 0,26,27
 68 146 68 146 68 137 c 0,28,29
 68 123 68 123 92 62.5 c 128,-1,30
 116 2 116 2 122 2 c 0,0,1
EndSplineSet
Validated: 33
EndChar

StartChar: w
Encoding: 119 119 86
Width: 377
Flags: W
LayerCount: 2
Fore
SplineSet
311 213 m 128,-1,1
 311 219 311 219 320 223 c 128,-1,2
 329 227 329 227 341 227 c 0,3,4
 361 227 361 227 365 221.5 c 128,-1,5
 369 216 369 216 364 193 c 0,6,7
 356 160 356 160 349 70 c 0,8,9
 338 -68 338 -68 293 -84 c 0,10,11
 256 -97 256 -97 216 -19 c 0,12,13
 200 12 200 12 189.5 12.5 c 128,-1,14
 179 13 179 13 172 -17 c 1,15,16
 164 -46 164 -46 146 -67 c 128,-1,17
 128 -88 128 -88 109 -88 c 0,18,19
 85 -88 85 -88 67 -59 c 128,-1,20
 49 -30 49 -30 30 39 c 0,21,22
 8 119 8 119 10 153 c 128,-1,23
 12 187 12 187 38 191 c 0,24,25
 57 193 57 193 60.5 184 c 128,-1,26
 64 175 64 175 64 127 c 0,27,28
 64 93 64 93 72 58 c 128,-1,29
 80 23 80 23 91.5 1.5 c 128,-1,30
 103 -20 103 -20 114 -17 c 0,31,32
 126 -13 126 -13 145.5 29 c 128,-1,33
 165 71 165 71 171.5 105.5 c 128,-1,34
 178 140 178 140 184 146.5 c 128,-1,35
 190 153 190 153 208 141 c 0,36,37
 222 132 222 132 233.5 81.5 c 128,-1,38
 245 31 245 31 259 9 c 0,39,40
 292 -40 292 -40 302 23 c 0,41,42
 305 45 305 45 310 200 c 0,43,0
 311 207 311 207 311 213 c 128,-1,1
EndSplineSet
Validated: 33
EndChar

StartChar: x
Encoding: 120 120 87
Width: 342
Flags: W
LayerCount: 2
Fore
SplineSet
225 128 m 0,0,1
 242 148 242 148 254.5 168 c 128,-1,2
 267 188 267 188 271 196.5 c 128,-1,3
 275 205 275 205 282.5 210 c 128,-1,4
 290 215 290 215 302 213 c 0,5,6
 326 210 326 210 331 191.5 c 128,-1,7
 336 173 336 173 317 158 c 256,8,9
 298 143 298 143 260 103 c 2,10,-1
 222 64 l 1,11,-1
 255 33 l 2,12,13
 289 2 289 2 307 2 c 0,14,15
 319 2 319 2 321.5 -13.5 c 128,-1,16
 324 -29 324 -29 316.5 -45 c 128,-1,17
 309 -61 309 -61 297 -64 c 1,18,19
 288 -65 288 -65 269 -54.5 c 128,-1,20
 250 -44 250 -44 231 -26 c 2,21,-1
 186 16 l 1,22,-1
 131 -38 l 2,23,24
 108 -60 108 -60 91.5 -82.5 c 128,-1,25
 75 -105 75 -105 73 -115 c 0,26,27
 71 -130 71 -130 56.5 -136.5 c 128,-1,28
 42 -143 42 -143 27 -137 c 128,-1,29
 12 -131 12 -131 10 -116 c 0,30,31
 7 -93 7 -93 75 -34 c 0,32,33
 103 -9 103 -9 123 12 c 128,-1,34
 143 33 143 33 143 39 c 0,35,36
 143 48 143 48 102 99 c 0,37,38
 44 171 44 171 60 192 c 0,39,40
 66 200 66 200 82 202 c 0,41,42
 100 205 100 205 112 189 c 128,-1,43
 124 173 124 173 138 147 c 128,-1,44
 152 121 152 121 170 108 c 0,45,46
 186 96 186 96 194.5 99 c 128,-1,47
 203 102 203 102 225 128 c 0,0,1
EndSplineSet
Validated: 33
EndChar

StartChar: y
Encoding: 121 121 88
Width: 348
Flags: W
LayerCount: 2
Fore
SplineSet
17 254 m 0,0,1
 29 265 29 265 47.5 253 c 128,-1,2
 66 241 66 241 118 188 c 0,3,4
 190 115 190 115 200 115 c 0,5,6
 204 115 204 115 220.5 136.5 c 128,-1,7
 237 158 237 158 255 187 c 0,8,9
 280 225 280 225 295 241 c 128,-1,10
 310 257 310 257 318 253 c 1,11,12
 331 249 331 249 335 239 c 128,-1,13
 339 229 339 229 337 210 c 0,14,15
 336 203 336 203 311 175 c 128,-1,16
 286 147 286 147 260 113 c 128,-1,17
 234 79 234 79 230 58 c 0,18,19
 227 44 227 44 221 34.5 c 128,-1,20
 215 25 215 25 208 25 c 256,21,22
 201 25 201 25 180.5 1 c 128,-1,23
 160 -23 160 -23 138 -56 c 0,24,25
 103 -109 103 -109 96 -126.5 c 128,-1,26
 89 -144 89 -144 99 -158 c 1,27,28
 107 -172 107 -172 106.5 -178.5 c 128,-1,29
 106 -185 106 -185 97 -191 c 0,30,31
 78 -202 78 -202 59.5 -198.5 c 128,-1,32
 41 -195 41 -195 33 -179 c 0,33,34
 21 -158 21 -158 21.5 -151 c 128,-1,35
 22 -144 22 -144 36 -130 c 256,36,37
 50 -116 50 -116 92 -54 c 2,38,-1
 151 31 l 2,39,40
 163 48 163 48 154 63 c 128,-1,41
 145 78 145 78 89 133 c 128,-1,42
 33 188 33 188 18 214 c 128,-1,43
 3 240 3 240 17 254 c 0,0,1
EndSplineSet
Validated: 33
EndChar

StartChar: z
Encoding: 122 122 89
Width: 320
Flags: W
LayerCount: 2
Fore
SplineSet
13 288 m 0,0,1
 24 317 24 317 85 283 c 0,2,3
 97 277 97 277 142 283 c 128,-1,4
 187 289 187 289 225 292.5 c 128,-1,5
 263 296 263 296 295 279 c 1,6,7
 314 265 314 265 309 238.5 c 128,-1,8
 304 212 304 212 278 183 c 0,9,10
 263 167 263 167 260.5 157.5 c 128,-1,11
 258 148 258 148 265 136 c 0,12,13
 276 119 276 119 268 110.5 c 128,-1,14
 260 102 260 102 240 110 c 0,15,16
 222 117 222 117 179 92 c 128,-1,17
 136 67 136 67 100.5 30.5 c 128,-1,18
 65 -6 65 -6 65 -28 c 0,19,20
 65 -39 65 -39 82.5 -41.5 c 128,-1,21
 100 -44 100 -44 132 -38.5 c 128,-1,22
 164 -33 164 -33 206 -19 c 0,23,24
 254 -3 254 -3 269.5 -1.5 c 128,-1,25
 285 0 285 0 295 -10 c 0,26,27
 311 -26 311 -26 304 -37 c 0,28,29
 298 -45 298 -45 269 -54.5 c 128,-1,30
 240 -64 240 -64 133 -93 c 0,31,32
 99 -102 99 -102 71 -98.5 c 128,-1,33
 43 -95 43 -95 28 -82 c 128,-1,34
 13 -69 13 -69 10 -49 c 128,-1,35
 7 -29 7 -29 25 -6 c 1,36,-1
 61 45 l 2,37,38
 74 63 74 63 74 69 c 128,-1,39
 74 75 74 75 60 85 c 0,40,41
 40 99 40 99 44 125 c 0,42,43
 47 145 47 145 63.5 150.5 c 128,-1,44
 80 156 80 156 101.5 154 c 128,-1,45
 123 152 123 152 156 159.5 c 128,-1,46
 189 167 189 167 217 188 c 0,47,48
 261 222 261 222 257.5 236 c 128,-1,49
 254 250 254 250 203 242 c 0,50,51
 135 230 135 230 81 232.5 c 128,-1,52
 27 235 27 235 17 251 c 0,53,54
 6 269 6 269 13 288 c 0,0,1
EndSplineSet
Validated: 33
EndChar

StartChar: braceleft
Encoding: 123 123 90
Width: 247
Flags: W
LayerCount: 2
Fore
SplineSet
156 419 m 0,0,1
 203 440 203 440 220 436.5 c 128,-1,2
 237 433 237 433 237 401 c 0,3,4
 237 379 237 379 231 372.5 c 128,-1,5
 225 366 225 366 203 363 c 0,6,7
 170 360 170 360 158.5 349 c 128,-1,8
 147 338 147 338 147 256 c 0,9,10
 147 208 147 208 143 186 c 128,-1,11
 139 164 139 164 127 151 c 0,12,13
 111 134 111 134 111 127 c 128,-1,14
 111 120 111 120 125 98 c 0,15,16
 138 79 138 79 139 66.5 c 128,-1,17
 140 54 140 54 132 31 c 0,18,19
 103 -47 103 -47 142 -82 c 0,20,21
 156 -95 156 -95 165 -96.5 c 128,-1,22
 174 -98 174 -98 187 -90 c 0,23,24
 209 -77 209 -77 214.5 -78 c 128,-1,25
 220 -79 220 -79 220 -97 c 0,26,27
 220 -105 220 -105 210.5 -117 c 128,-1,28
 201 -129 201 -129 187 -137 c 0,29,30
 165 -150 165 -150 154 -150.5 c 128,-1,31
 143 -151 143 -151 123 -140 c 0,32,33
 78 -117 78 -117 65.5 -94 c 128,-1,34
 53 -71 53 -71 62 -30 c 0,35,36
 75 25 75 25 72 42.5 c 128,-1,37
 69 60 69 60 44 72 c 0,38,39
 18 85 18 85 11 113 c 0,40,41
 5 137 5 137 24 137 c 0,42,43
 37 137 37 137 67 165 c 0,44,45
 88 184 88 184 91.5 199 c 128,-1,46
 95 214 95 214 89 270 c 1,47,48
 83 340 83 340 96 368.5 c 128,-1,49
 109 397 109 397 156 419 c 0,0,1
EndSplineSet
Validated: 33
EndChar

StartChar: bar
Encoding: 124 124 91
Width: 65
Flags: W
LayerCount: 2
Fore
SplineSet
10 115 m 0,0,1
 10 387 10 387 17 414 c 0,2,3
 21 429 21 429 32 427 c 0,4,5
 44 425 44 425 48 389 c 0,6,7
 52 344 52 344 54 112 c 0,8,9
 56 -163 56 -163 49 -188 c 0,10,11
 46 -200 46 -200 35 -200 c 0,12,13
 21 -200 21 -200 17 -175 c 0,14,15
 10 -137 10 -137 10 115 c 0,0,1
EndSplineSet
Validated: 33
EndChar

StartChar: braceright
Encoding: 125 125 92
Width: 168
Flags: W
LayerCount: 2
Fore
SplineSet
23 419 m 0,0,1
 40 438 40 438 50.5 439 c 128,-1,2
 61 440 61 440 87 426 c 0,3,4
 126 404 126 404 138.5 388.5 c 128,-1,5
 151 373 151 373 148 352 c 128,-1,6
 145 331 145 331 123 288 c 2,7,-1
 94 233 l 1,8,-1
 129 204 l 2,9,10
 155 182 155 182 157.5 174 c 128,-1,11
 160 166 160 166 146 139 c 0,12,13
 135 117 135 117 133.5 97.5 c 128,-1,14
 132 78 132 78 139 36 c 0,15,16
 162 -108 162 -108 63 -138 c 0,17,18
 36 -146 36 -146 26 -130 c 0,19,20
 11 -108 11 -108 17 -91.5 c 128,-1,21
 23 -75 23 -75 46 -69 c 0,22,23
 78 -62 78 -62 86 -49 c 1,24,25
 96 -35 96 -35 93.5 -2.5 c 128,-1,26
 91 30 91 30 77 64 c 0,27,28
 68 86 68 86 66 107 c 128,-1,29
 64 128 64 128 66.5 140 c 128,-1,30
 69 152 69 152 68 162 c 128,-1,31
 67 172 67 172 61 176 c 0,32,33
 48 185 48 185 50 233.5 c 128,-1,34
 52 282 52 282 66 310 c 0,35,36
 82 340 82 340 80 344.5 c 128,-1,37
 78 349 78 349 51 354 c 0,38,39
 20 360 20 360 12 379 c 128,-1,40
 4 398 4 398 23 419 c 0,0,1
EndSplineSet
Validated: 33
EndChar

StartChar: asciitilde
Encoding: 126 126 93
Width: 366
Flags: W
LayerCount: 2
Fore
SplineSet
70 272 m 0,0,1
 94 282 94 282 112 283 c 0,2,3
 129 283 129 283 153.5 257 c 128,-1,4
 178 231 178 231 189 201 c 0,5,6
 202 167 202 167 225 163.5 c 128,-1,7
 248 160 248 160 294 185 c 0,8,9
 328 203 328 203 339.5 205 c 128,-1,10
 351 207 351 207 355 197 c 0,11,12
 361 180 361 180 333.5 153 c 128,-1,13
 306 126 306 126 267 110 c 0,14,15
 229 94 229 94 201.5 106 c 128,-1,16
 174 118 174 118 153 160 c 0,17,18
 124 217 124 217 98 224 c 0,19,20
 81 228 81 228 78 204 c 0,21,22
 77 199 77 199 77 193 c 0,23,24
 77 174 77 174 60 160 c 128,-1,25
 43 146 43 146 27 152 c 0,26,27
 10 158 10 158 10 176 c 0,28,29
 10 200 10 200 30 232 c 128,-1,30
 50 264 50 264 70 272 c 0,0,1
EndSplineSet
Validated: 33
EndChar

StartChar: sterling
Encoding: 163 163 95
Width: 433
Flags: W
LayerCount: 2
Fore
SplineSet
215 442 m 0,0,1
 242 453 242 453 275 442 c 128,-1,2
 308 431 308 431 325.5 406 c 128,-1,3
 343 381 343 381 332 358 c 1,4,5
 301 300 301 300 254 280 c 0,6,7
 236 272 236 272 235 270 c 256,8,9
 234 268 234 268 240 267 c 0,10,11
 245 266 245 266 265 264 c 0,12,13
 329 259 329 259 376 245.5 c 128,-1,14
 423 232 423 232 423 219 c 0,15,16
 423 207 423 207 404 205 c 128,-1,17
 385 203 385 203 346.5 205.5 c 128,-1,18
 308 208 308 208 284 206 c 0,19,20
 255 204 255 204 272 188 c 0,21,22
 287 173 287 173 328 160 c 0,23,24
 383 143 383 143 387 122 c 0,25,26
 389 115 389 115 387.5 111.5 c 128,-1,27
 386 108 386 108 378.5 106.5 c 128,-1,28
 371 105 371 105 358.5 106 c 128,-1,29
 346 107 346 107 320 110 c 2,30,-1
 249 117 l 1,31,-1
 227 76 l 2,32,33
 202 28 202 28 158.5 -7.5 c 128,-1,34
 115 -43 115 -43 82 -43 c 0,35,36
 47 -43 47 -43 33 -33.5 c 128,-1,37
 19 -24 19 -24 12 4 c 0,38,39
 -7 81 -7 81 131 151 c 0,40,41
 194 183 194 183 195 190 c 0,42,43
 195 194 195 194 181 198 c 0,44,45
 153 204 153 204 153 231 c 128,-1,46
 153 258 153 258 142 262 c 0,47,48
 119 270 119 270 134 344 c 0,49,50
 140 371 140 371 164.5 401 c 128,-1,51
 189 431 189 431 215 442 c 0,0,1
281 379 m 0,52,53
 274 396 274 396 248.5 395 c 128,-1,54
 223 394 223 394 206 375 c 0,55,56
 186 354 186 354 188 341 c 128,-1,57
 190 328 190 328 213 328 c 0,58,59
 239 328 239 328 263 346 c 128,-1,60
 287 364 287 364 281 379 c 0,52,53
175 70 m 0,61,62
 192 93 192 93 192.5 98 c 128,-1,63
 193 103 193 103 177 107 c 0,64,65
 156 112 156 112 125 97.5 c 128,-1,66
 94 83 94 83 73.5 59.5 c 128,-1,67
 53 36 53 36 59 19 c 0,68,69
 63 9 63 9 72 5.5 c 128,-1,70
 81 2 81 2 93.5 5.5 c 128,-1,71
 106 9 106 9 120 17 c 128,-1,72
 134 25 134 25 148.5 39 c 128,-1,73
 163 53 163 53 175 70 c 0,61,62
EndSplineSet
Validated: 33
EndChar

StartChar: guillemotleft
Encoding: 171 171 97
Width: 379
Flags: W
LayerCount: 2
Fore
SplineSet
246 237 m 0,0,1
 298 299 298 299 318 316 c 128,-1,2
 338 333 338 333 350 326 c 0,3,4
 374 314 374 314 368.5 292.5 c 128,-1,5
 363 271 363 271 331 252 c 0,6,7
 304 236 304 236 266.5 193 c 128,-1,8
 229 150 229 150 236 143 c 0,9,10
 241 137 241 137 303 129 c 0,11,12
 345 123 345 123 355 117 c 128,-1,13
 365 111 365 111 368 90 c 0,14,15
 371 62 371 62 355.5 53 c 128,-1,16
 340 44 340 44 313 58 c 0,17,18
 299 66 299 66 255.5 73.5 c 128,-1,19
 212 81 212 81 183 91.5 c 128,-1,20
 154 102 154 102 158 120 c 0,21,22
 162 136 162 136 246 237 c 0,0,1
162 303 m 0,23,24
 189 333 189 333 214 336.5 c 128,-1,25
 239 340 239 340 243 315 c 0,26,27
 247 294 247 294 221 284 c 0,28,29
 196 275 196 275 148.5 225 c 128,-1,30
 101 175 101 175 84 140 c 2,31,-1
 66 104 l 1,32,-1
 108 93 l 2,33,34
 150 81 150 81 165 81 c 0,35,36
 182 81 182 81 193 52 c 128,-1,37
 204 23 204 23 192 11 c 0,38,39
 186 6 186 6 179 5.5 c 128,-1,40
 172 5 172 5 160.5 9.5 c 128,-1,41
 149 14 149 14 136.5 20 c 128,-1,42
 124 26 124 26 102.5 34 c 128,-1,43
 81 42 81 42 58 48 c 0,44,45
 27 55 27 55 18.5 62.5 c 128,-1,46
 10 70 10 70 10 91 c 0,47,48
 10 104 10 104 17.5 121.5 c 128,-1,49
 25 139 25 139 35 150 c 0,50,51
 54 170 54 170 93.5 221 c 128,-1,52
 133 272 133 272 162 303 c 0,23,24
EndSplineSet
Validated: 33
EndChar

StartChar: guillemotright
Encoding: 187 187 98
Width: 390
Flags: W
LayerCount: 2
Fore
SplineSet
29 287 m 0,0,1
 41 299 41 299 60 292.5 c 128,-1,2
 79 286 79 286 96 264 c 0,3,4
 111 244 111 244 143.5 223 c 128,-1,5
 176 202 176 202 199.5 187 c 128,-1,6
 223 172 223 172 223 159.5 c 128,-1,7
 223 147 223 147 193.5 119.5 c 128,-1,8
 164 92 164 92 150 92 c 0,9,10
 142 92 142 92 105.5 64.5 c 128,-1,11
 69 37 69 37 55 20 c 0,12,13
 38 1 38 1 24 7 c 128,-1,14
 10 13 10 13 10 40 c 128,-1,15
 10 67 10 67 54 90 c 0,16,17
 145 138 145 138 145 152 c 0,18,19
 145 160 145 160 83 200 c 1,20,21
 -1 256 -1 256 29 287 c 0,0,1
186 293 m 1,22,23
 206 303 206 303 256 275 c 0,24,25
 315 241 315 241 343.5 219 c 128,-1,26
 372 197 372 197 378 176.5 c 128,-1,27
 384 156 384 156 366 139.5 c 128,-1,28
 348 123 348 123 306 102 c 0,29,30
 284 92 284 92 268 80 c 128,-1,31
 252 68 252 68 249 62 c 0,32,33
 244 48 244 48 223.5 47 c 128,-1,34
 203 46 203 46 195 58 c 0,35,36
 183 77 183 77 201 98 c 128,-1,37
 219 119 219 119 263 137 c 0,38,39
 288 147 288 147 304.5 157.5 c 128,-1,40
 321 168 321 168 318 172 c 0,41,42
 311 183 311 183 278 199 c 128,-1,43
 245 215 245 215 218 220 c 0,44,45
 181 227 181 227 170 252 c 128,-1,46
 159 277 159 277 186 293 c 1,22,23
EndSplineSet
Validated: 33
EndChar

StartChar: Agrave
Encoding: 192 192 100
Width: 376
Flags: W
LayerCount: 2
Fore
SplineSet
227 506 m 0,0,1
 246 520 246 520 253.5 525 c 128,-1,2
 261 530 261 530 269.5 527.5 c 128,-1,3
 278 525 278 525 283 519 c 128,-1,4
 288 513 288 513 303 497 c 128,-1,5
 318 481 318 481 336 466 c 0,6,7
 347 457 347 457 348 448.5 c 128,-1,8
 349 440 349 440 342 421 c 0,9,10
 327 384 327 384 329.5 243 c 128,-1,11
 332 102 332 102 348 10 c 0,12,13
 360 -55 360 -55 361 -81 c 128,-1,14
 362 -107 362 -107 354 -117 c 0,15,16
 317 -161 317 -161 297 -76 c 0,17,18
 287 -35 287 -35 284 31 c 1,19,20
 279 111 279 111 271 124 c 0,21,22
 266 133 266 133 220.5 122 c 128,-1,23
 175 111 175 111 141 93 c 0,24,25
 84 62 84 62 74 -34 c 0,26,27
 73 -43 73 -43 45 -41.5 c 128,-1,28
 17 -40 17 -40 11 -30 c 1,29,30
 5 -22 5 -22 39 56 c 128,-1,31
 73 134 73 134 73 143 c 0,32,33
 73 149 73 149 78.5 156.5 c 128,-1,34
 84 164 84 164 90 168 c 0,35,36
 106 177 106 177 151.5 297.5 c 128,-1,37
 197 418 197 418 197 451 c 0,38,39
 197 483 197 483 227 506 c 0,0,1
249 201.5 m 128,-1,41
 262 210 262 210 255 251 c 0,42,43
 249 281 249 281 246 283.5 c 128,-1,44
 243 286 243 286 230 268 c 0,45,46
 212 244 212 244 204 219 c 0,47,48
 199 203 199 203 201.5 198 c 128,-1,49
 204 193 204 193 216 193 c 0,50,40
 236 193 236 193 249 201.5 c 128,-1,41
219 683 m 0,51,52
 219 693 219 693 221 700.5 c 128,-1,53
 223 708 223 708 225.5 712 c 128,-1,54
 228 716 228 716 231.5 718 c 128,-1,55
 235 720 235 720 239.5 720 c 128,-1,56
 244 720 244 720 247.5 719 c 128,-1,57
 251 718 251 718 255.5 716 c 128,-1,58
 260 714 260 714 262.5 712.5 c 128,-1,59
 265 711 265 711 267.5 709 c 128,-1,60
 270 707 270 707 270 707 c 1,61,62
 307 685 307 685 336.5 660 c 128,-1,63
 366 635 366 635 366 625 c 0,64,65
 366 585 366 585 290 623 c 0,66,67
 285 625 285 625 280 628 c 0,68,69
 247 645 247 645 233 657.5 c 128,-1,70
 219 670 219 670 219 683 c 0,51,52
EndSplineSet
Validated: 33
EndChar

StartChar: Aacute
Encoding: 193 193 101
Width: 392
Flags: W
LayerCount: 2
Fore
SplineSet
153 333 m 0,0,1
 146 362 146 362 162.5 375 c 128,-1,2
 179 388 179 388 216 394 c 0,3,4
 225 396 225 396 232.5 384 c 128,-1,5
 240 372 240 372 246.5 346 c 128,-1,6
 253 320 253 320 259 280 c 0,7,8
 269 207 269 207 276 188 c 128,-1,9
 283 169 283 169 297 174 c 0,10,11
 313 180 313 180 331.5 167.5 c 128,-1,12
 350 155 350 155 350 138 c 0,13,14
 350 130 350 130 341.5 118 c 128,-1,15
 333 106 333 106 322 99 c 2,16,-1
 295 81 l 1,17,-1
 318 11 l 2,18,19
 342 -60 342 -60 363 -87 c 0,20,21
 402 -137 402 -137 366 -167 c 0,22,23
 339 -189 339 -189 310 -124 c 0,24,25
 295 -91 295 -91 277 -31 c 1,26,-1
 244 72 l 1,27,-1
 211 65 l 1,28,29
 168 57 168 57 141.5 30.5 c 128,-1,30
 115 4 115 4 97 -48 c 0,31,32
 79 -102 79 -102 64 -114 c 128,-1,33
 49 -126 49 -126 25 -106 c 1,34,35
 11 -93 11 -93 10 -84.5 c 128,-1,36
 9 -76 9 -76 20 -56 c 0,37,38
 40 -19 40 -19 51 18.5 c 128,-1,39
 62 56 62 56 74 79 c 0,40,41
 98 126 98 126 127.5 220.5 c 128,-1,42
 157 315 157 315 153 333 c 0,0,1
198 128 m 0,43,44
 209 133 209 133 214 136.5 c 128,-1,45
 219 140 219 140 219 146 c 128,-1,46
 219 152 219 152 217 156.5 c 128,-1,47
 215 161 215 161 210 172 c 128,-1,48
 205 183 205 183 201 193 c 0,49,50
 195 210 195 210 178 171 c 0,51,52
 162 135 162 135 166.5 125.5 c 128,-1,53
 171 116 171 116 198 128 c 0,43,44
335 664 m 0,54,55
 369 683 369 683 373 656 c 0,56,57
 377 624 377 624 336 578 c 0,58,59
 335 576 335 576 333 574 c 0,60,61
 295 531 295 531 288 503 c 0,62,63
 281 478 281 478 266 471 c 128,-1,64
 251 464 251 464 237 480 c 0,65,66
 229 489 229 489 236 505.5 c 128,-1,67
 243 522 243 522 270 560 c 0,68,69
 316 624 316 624 316 638 c 0,70,71
 316 644 316 644 322 651.5 c 128,-1,72
 328 659 328 659 335 664 c 0,54,55
EndSplineSet
Validated: 33
EndChar

StartChar: Egrave
Encoding: 200 200 105
Width: 445
Flags: W
LayerCount: 2
Fore
SplineSet
328 485 m 0,0,1
 372 503 372 503 406 490.5 c 128,-1,2
 440 478 440 478 434 446 c 0,3,4
 431 434 431 434 414 430 c 128,-1,5
 397 426 397 426 346 424 c 0,6,7
 276 422 276 422 218 401.5 c 128,-1,8
 160 381 160 381 145 353 c 0,9,10
 133 331 133 331 123 284 c 0,11,12
 122 282 122 282 121 278 c 0,13,14
 114 247 114 247 122 241 c 256,15,16
 130 235 130 235 195 237 c 0,17,18
 203 237 203 237 207 238 c 0,19,20
 244 239 244 239 257.5 234.5 c 128,-1,21
 271 230 271 230 279 216 c 0,22,23
 291 192 291 192 282.5 182 c 128,-1,24
 274 172 274 172 244 178 c 0,25,26
 212 184 212 184 156 164 c 0,27,28
 123 152 123 152 109 141 c 128,-1,29
 95 130 95 130 88 111 c 0,30,31
 65 45 65 45 88 0 c 0,32,33
 97 -16 97 -16 110 -18.5 c 128,-1,34
 123 -21 123 -21 173 -16 c 0,35,36
 246 -8 246 -8 294 8 c 0,37,38
 333 21 333 21 356 17.5 c 128,-1,39
 379 14 379 14 379 -4 c 0,40,41
 379 -24 379 -24 335.5 -39.5 c 128,-1,42
 292 -55 292 -55 222.5 -71.5 c 128,-1,43
 153 -88 153 -88 123 -101 c 2,44,-1
 74 -122 l 1,45,-1
 48 -98 l 2,46,47
 6 -59 6 -59 10.5 50 c 128,-1,48
 15 159 15 159 65 316 c 0,49,50
 95 408 95 408 108.5 436 c 128,-1,51
 122 464 122 464 135 461 c 0,52,53
 152 458 152 458 230.5 468 c 128,-1,54
 309 478 309 478 328 485 c 0,0,1
192 691 m 0,55,56
 205 697 205 697 212 698 c 0,57,58
 221 699 221 699 272 635.5 c 128,-1,59
 323 572 323 572 323 560 c 0,60,61
 323 531 323 531 285 554 c 0,62,63
 267 565 267 565 237 588 c 256,64,65
 207 611 207 611 191 632.5 c 128,-1,66
 175 654 175 654 175 669 c 128,-1,67
 175 684 175 684 192 691 c 0,55,56
EndSplineSet
Validated: 33
EndChar

StartChar: Eacute
Encoding: 201 201 106
Width: 428
Flags: W
LayerCount: 2
Fore
SplineSet
165 317 m 0,0,1
 165 302 165 302 158 279 c 128,-1,2
 151 256 151 256 145 239 c 128,-1,3
 139 222 139 222 138 205.5 c 128,-1,4
 137 189 137 189 150 180 c 128,-1,5
 163 171 163 171 193 171 c 256,6,7
 223 171 223 171 241 156.5 c 128,-1,8
 259 142 259 142 249 126 c 0,9,10
 242 113 242 113 217 115 c 0,11,12
 146 120 146 120 121.5 101 c 128,-1,13
 97 82 97 82 88 12 c 1,14,15
 77 -60 77 -60 69 -81 c 0,16,17
 63 -96 63 -96 73 -98 c 128,-1,18
 83 -100 83 -100 137 -94 c 1,19,20
 213 -87 213 -87 231 -77 c 1,21,22
 252 -67 252 -67 292 -62 c 128,-1,23
 332 -57 332 -57 344 -64 c 0,24,25
 358 -73 358 -73 346 -96 c 0,26,27
 328 -130 328 -130 121 -154 c 0,28,29
 77 -159 77 -159 59 -157 c 128,-1,30
 41 -155 41 -155 27 -143 c 0,31,32
 11 -130 11 -130 10 -115 c 0,33,34
 9 -99 9 -99 25 -13 c 0,35,36
 36 42 36 42 40 69 c 128,-1,37
 44 96 44 96 44 102 c 128,-1,38
 44 108 44 108 46.5 129 c 128,-1,39
 49 150 49 150 54 189 c 1,40,41
 61 231 61 231 65.5 285.5 c 128,-1,42
 70 340 70 340 73 370 c 128,-1,43
 76 400 76 400 80 403 c 0,44,45
 84 407 84 407 111.5 408 c 128,-1,46
 139 409 139 409 182 410.5 c 128,-1,47
 225 412 225 412 255 417 c 1,48,49
 289 424 289 424 313 425.5 c 128,-1,50
 337 427 337 427 348.5 425.5 c 128,-1,51
 360 424 360 424 366.5 417 c 128,-1,52
 373 410 373 410 374 406.5 c 128,-1,53
 375 403 375 403 376 393 c 0,54,55
 379 371 379 371 372 367 c 128,-1,56
 365 363 365 363 326 365 c 0,57,58
 269 367 269 367 217 351.5 c 128,-1,59
 165 336 165 336 165 317 c 0,0,1
323 606 m 0,60,61
 345 629 345 629 360.5 642.5 c 128,-1,62
 376 656 376 656 387.5 661 c 128,-1,63
 399 666 399 666 405.5 662.5 c 128,-1,64
 412 659 412 659 417 647 c 0,65,66
 421 636 421 636 402 612.5 c 128,-1,67
 383 589 383 589 352.5 557 c 128,-1,68
 322 525 322 525 311 508 c 0,69,70
 303 497 303 497 294 492 c 128,-1,71
 285 487 285 487 280 490 c 0,72,73
 259 502 259 502 270.5 532.5 c 128,-1,74
 282 563 282 563 323 606 c 0,60,61
EndSplineSet
Validated: 33
EndChar

StartChar: Oacute
Encoding: 211 211 112
Width: 538
Flags: W
LayerCount: 2
Fore
SplineSet
293 393 m 0,0,1
 329 406 329 406 345 404 c 128,-1,2
 361 402 361 402 396 383 c 0,3,4
 443 357 443 357 467.5 331 c 128,-1,5
 492 305 492 305 508 262 c 1,6,7
 530 208 530 208 528 143 c 128,-1,8
 526 78 526 78 508 18 c 128,-1,9
 490 -42 490 -42 454 -93.5 c 128,-1,10
 418 -145 418 -145 372 -172 c 0,11,12
 343 -189 343 -189 318 -194.5 c 128,-1,13
 293 -200 293 -200 243 -200 c 0,14,15
 172 -200 172 -200 143 -188 c 128,-1,16
 114 -176 114 -176 67 -127 c 0,17,18
 38 -97 38 -97 28 -76.5 c 128,-1,19
 18 -56 18 -56 13 -17 c 0,20,21
 5 47 5 47 19 118 c 128,-1,22
 33 189 33 189 61 222 c 1,23,-1
 118 293 l 2,24,25
 138 318 138 318 185.5 345.5 c 128,-1,26
 233 373 233 373 293 393 c 0,0,1
397 303 m 0,27,28
 376 317 376 317 361.5 321 c 128,-1,29
 347 325 347 325 342.5 322 c 128,-1,30
 338 319 338 319 331 319.5 c 128,-1,31
 324 320 324 320 317 326 c 0,32,33
 305 336 305 336 254.5 318 c 128,-1,34
 204 300 204 300 165 271 c 0,35,36
 150 260 150 260 129.5 232.5 c 128,-1,37
 109 205 109 205 95 178 c 0,38,39
 53 91 53 91 62.5 12.5 c 128,-1,40
 72 -66 72 -66 131 -109 c 0,41,42
 168 -136 168 -136 225 -136.5 c 128,-1,43
 282 -137 282 -137 336 -112.5 c 128,-1,44
 390 -88 390 -88 419 -46 c 0,45,46
 439 -18 439 -18 458.5 38.5 c 128,-1,47
 478 95 478 95 478 124 c 0,48,49
 478 152 478 152 458 213 c 1,50,51
 447 250 447 250 434.5 268.5 c 128,-1,52
 422 287 422 287 397 303 c 0,27,28
402 592 m 0,53,54
 416 600 416 600 431.5 604.5 c 128,-1,55
 447 609 447 609 457 608 c 128,-1,56
 467 607 467 607 467 601 c 0,57,58
 467 592 467 592 421 536 c 0,59,60
 361 462 361 462 349 456 c 0,61,62
 340 452 340 452 329 462 c 1,63,64
 305 481 305 481 328.5 523 c 128,-1,65
 352 565 352 565 402 592 c 0,53,54
EndSplineSet
Validated: 33
EndChar

StartChar: Ugrave
Encoding: 217 217 115
Width: 408
Flags: W
LayerCount: 2
Fore
SplineSet
101 392 m 1,0,1
 118 406 118 406 127 405.5 c 128,-1,2
 136 405 136 405 149 390 c 0,3,4
 157 380 157 380 152.5 365.5 c 128,-1,5
 148 351 148 351 127 316 c 0,6,7
 81 242 81 242 65 121 c 128,-1,8
 49 0 49 0 76 -58 c 0,9,10
 91 -89 91 -89 132 -107.5 c 128,-1,11
 173 -126 173 -126 207 -117 c 0,12,13
 262 -103 262 -103 297.5 -60.5 c 128,-1,14
 333 -18 333 -18 344.5 34.5 c 128,-1,15
 356 87 356 87 356 142 c 128,-1,16
 356 197 356 197 347 239.5 c 128,-1,17
 338 282 338 282 327 301 c 0,18,19
 306 336 306 336 307 359.5 c 128,-1,20
 308 383 308 383 330 390 c 0,21,22
 350 397 350 397 368 383.5 c 128,-1,23
 386 370 386 370 382 352 c 0,24,25
 379 334 379 334 388.5 319 c 128,-1,26
 398 304 398 304 398 161 c 0,27,28
 398 63 398 63 393.5 30.5 c 128,-1,29
 389 -2 389 -2 369 -45 c 0,30,31
 338 -111 338 -111 292 -141.5 c 128,-1,32
 246 -172 246 -172 177 -172 c 0,33,34
 83 -172 83 -172 46 -118 c 128,-1,35
 9 -64 9 -64 10 70 c 0,36,37
 10 127 10 127 17.5 167.5 c 128,-1,38
 25 208 25 208 47 272 c 1,39,40
 61 316 61 316 77 351.5 c 128,-1,41
 93 387 93 387 101 392 c 1,0,1
179 638 m 0,42,43
 193 652 193 652 198.5 651 c 128,-1,44
 204 650 204 650 216 632 c 0,45,46
 233 606 233 606 260 580 c 128,-1,47
 287 554 287 554 295.5 540 c 128,-1,48
 304 526 304 526 295 509 c 0,49,50
 283 485 283 485 262 486.5 c 128,-1,51
 241 488 241 488 230 513 c 0,52,53
 225 524 225 524 212.5 538 c 128,-1,54
 200 552 200 552 188 560 c 0,55,56
 164 576 164 576 161.5 597 c 128,-1,57
 159 618 159 618 179 638 c 0,42,43
EndSplineSet
Validated: 33
EndChar

StartChar: Uacute
Encoding: 218 218 116
Width: 418
Flags: W
LayerCount: 2
Fore
SplineSet
307 502 m 0,0,1
 329 528 329 528 347.5 516.5 c 128,-1,2
 366 505 366 505 370 464 c 1,3,4
 372 431 372 431 382 383.5 c 128,-1,5
 392 336 392 336 399.5 301.5 c 128,-1,6
 407 267 407 267 406.5 217.5 c 128,-1,7
 406 168 406 168 392 120 c 0,8,9
 349 -20 349 -20 201 -20 c 0,10,11
 148 -20 148 -20 110.5 -2.5 c 128,-1,12
 73 15 73 15 43 54 c 0,13,14
 19 86 19 86 14.5 108.5 c 128,-1,15
 10 131 10 131 10 216 c 0,16,17
 10 334 10 334 31 396 c 0,18,19
 45 438 45 438 68.5 473 c 128,-1,20
 92 508 92 508 107 508 c 0,21,22
 116 508 116 508 119 498.5 c 128,-1,23
 122 489 122 489 118 475.5 c 128,-1,24
 114 462 114 462 104 451 c 0,25,26
 82 425 82 425 77 401 c 0,27,28
 69 365 69 365 65 345 c 128,-1,29
 61 325 61 325 55 286.5 c 128,-1,30
 49 248 49 248 50 222 c 128,-1,31
 51 196 51 196 54.5 164 c 128,-1,32
 58 132 58 132 71 107.5 c 128,-1,33
 84 83 84 83 104 65 c 0,34,35
 131 41 131 41 187 37.5 c 128,-1,36
 243 34 243 34 279 53 c 0,37,38
 313 72 313 72 327.5 95.5 c 128,-1,39
 342 119 342 119 352 171 c 0,40,41
 362 221 362 221 347.5 318 c 128,-1,42
 333 415 333 415 311 453 c 0,43,44
 299 472 299 472 298.5 481.5 c 128,-1,45
 298 491 298 491 307 502 c 0,0,1
282 691 m 0,46,47
 388 773 388 773 401 720 c 0,48,49
 404 708 404 708 399 700.5 c 128,-1,50
 394 693 394 693 377 687 c 0,51,52
 357 679 357 679 326.5 652 c 128,-1,53
 296 625 296 625 271.5 605 c 128,-1,54
 247 585 247 585 235 590 c 0,55,56
 186 609 186 609 262 675 c 0,57,58
 271 683 271 683 282 691 c 0,46,47
EndSplineSet
Validated: 33
EndChar

StartChar: agrave
Encoding: 224 224 120
Width: 325
Flags: W
LayerCount: 2
Fore
SplineSet
76 340 m 0,0,1
 87 352 87 352 98.5 353.5 c 128,-1,2
 110 355 110 355 137 348 c 0,3,4
 155 344 155 344 173 333 c 128,-1,5
 191 322 191 322 197 312 c 0,6,7
 209 295 209 295 233 214 c 128,-1,8
 257 133 257 133 260 101 c 0,9,10
 261 92 261 92 284 92 c 0,11,12
 293 92 293 92 302 86.5 c 128,-1,13
 311 81 311 81 314 74 c 0,14,15
 321 57 321 57 272 13 c 128,-1,16
 223 -31 223 -31 196 -31 c 0,17,18
 174 -31 174 -31 149.5 -37.5 c 128,-1,19
 125 -44 125 -44 110.5 -49 c 128,-1,20
 96 -54 96 -54 79.5 -52.5 c 128,-1,21
 63 -51 63 -51 49.5 -39 c 128,-1,22
 36 -27 36 -27 25 -3 c 128,-1,23
 14 21 14 21 11.5 50 c 128,-1,24
 9 79 9 79 16.5 106.5 c 128,-1,25
 24 134 24 134 52.5 154.5 c 128,-1,26
 81 175 81 175 127 180 c 0,27,28
 173 184 173 184 178.5 196 c 128,-1,29
 184 208 184 208 160 247 c 0,30,31
 127 301 127 301 109 272 c 0,32,33
 102 260 102 260 80.5 272.5 c 128,-1,34
 59 285 59 285 59 302 c 0,35,36
 59 320 59 320 76 340 c 0,0,1
163 111 m 1,37,38
 133 126 133 126 122.5 124.5 c 128,-1,39
 112 123 112 123 92 103 c 0,40,41
 74 85 74 85 71 63.5 c 128,-1,42
 68 42 68 42 82 28 c 0,43,44
 93 17 93 17 111 21.5 c 128,-1,45
 129 26 129 26 162 49 c 0,46,47
 192 70 192 70 192 84 c 128,-1,48
 192 98 192 98 163 111 c 1,37,38
110 533 m 0,49,50
 129 592 129 592 210 484 c 0,51,52
 247 435 247 435 250 425 c 1,53,54
 250 409 250 409 215 424 c 0,55,56
 197 432 197 432 180 446 c 0,57,58
 146 474 146 474 132 474 c 256,59,60
 118 474 118 474 110.5 493 c 128,-1,61
 103 512 103 512 110 533 c 0,49,50
EndSplineSet
Validated: 33
EndChar

StartChar: aacute
Encoding: 225 225 121
Width: 319
Flags: W
LayerCount: 2
Fore
SplineSet
70 267 m 0,0,1
 118 288 118 288 163 262 c 128,-1,2
 208 236 208 236 229 175 c 0,3,4
 242 135 242 135 241 116 c 128,-1,5
 240 97 240 97 252 53 c 1,6,7
 269 -1 269 -1 269 -34 c 0,8,9
 269 -62 269 -62 243.5 -74.5 c 128,-1,10
 218 -87 218 -87 144 -95 c 0,11,12
 98 -100 98 -100 83.5 -96 c 128,-1,13
 69 -92 69 -92 44 -67 c 0,14,15
 14 -38 14 -38 10.5 -3.5 c 128,-1,16
 7 31 7 31 29 65 c 0,17,18
 46 91 46 91 89 114 c 128,-1,19
 132 137 132 137 151 130 c 0,20,21
 163 125 163 125 165 129 c 128,-1,22
 167 133 167 133 162 149 c 0,23,24
 152 181 152 181 141 187 c 128,-1,25
 130 193 130 193 107 178 c 0,26,27
 87 165 87 165 78.5 166 c 128,-1,28
 70 167 70 167 48 186 c 0,29,30
 -7 234 -7 234 70 267 c 0,0,1
165 44 m 0,31,32
 154 58 154 58 121.5 58 c 128,-1,33
 89 58 89 58 75.5 29 c 128,-1,34
 62 0 62 0 73.5 -19 c 128,-1,35
 85 -38 85 -38 119 -41 c 0,36,37
 163 -45 163 -45 177.5 -18 c 128,-1,38
 192 9 192 9 165 44 c 0,31,32
262 492 m 0,39,40
 312 513 312 513 309 491 c 0,41,42
 306 472 306 472 266 433 c 1,43,44
 230 396 230 396 220.5 392 c 128,-1,45
 211 388 211 388 203 403 c 0,46,47
 191 425 191 425 208.5 450.5 c 128,-1,48
 226 476 226 476 262 492 c 0,39,40
EndSplineSet
Validated: 33
EndChar

StartChar: egrave
Encoding: 232 232 125
Width: 396
Flags: W
LayerCount: 2
Fore
SplineSet
125 173 m 1,0,1
 140 206 140 206 168 225.5 c 128,-1,2
 196 245 196 245 226 247.5 c 128,-1,3
 256 250 256 250 283 243 c 128,-1,4
 310 236 310 236 327 217.5 c 128,-1,5
 344 199 344 199 344 176 c 0,6,7
 344 139 344 139 292.5 104.5 c 128,-1,8
 241 70 241 70 185 70 c 0,9,10
 166 70 166 70 159 58 c 1,11,12
 152 48 152 48 180 19.5 c 128,-1,13
 208 -9 208 -9 225 -9 c 0,14,15
 246 -9 246 -9 278 5.5 c 128,-1,16
 310 20 310 20 326 37 c 0,17,18
 345 58 345 58 354 58 c 0,19,20
 369 58 369 58 379 39 c 128,-1,21
 389 20 389 20 384 3 c 0,22,23
 378 -16 378 -16 319.5 -40.5 c 128,-1,24
 261 -65 261 -65 222 -65 c 0,25,26
 189 -65 189 -65 159.5 -39.5 c 128,-1,27
 130 -14 130 -14 118 26 c 0,28,29
 110 54 110 54 102 62 c 128,-1,30
 94 70 94 70 75 70 c 0,31,32
 43 70 43 70 24 85.5 c 128,-1,33
 5 101 5 101 12 122 c 1,34,35
 17 141 17 141 39.5 150.5 c 128,-1,36
 62 160 62 160 70 147 c 0,37,38
 79 131 79 131 95.5 139 c 128,-1,39
 112 147 112 147 125 173 c 1,0,1
270 186 m 0,40,41
 243 197 243 197 219 192 c 128,-1,42
 195 187 195 187 182 169 c 0,43,44
 163 141 163 141 167.5 133.5 c 128,-1,45
 172 126 172 126 205 131 c 0,46,47
 275 143 275 143 286 166 c 0,48,49
 292 178 292 178 270 186 c 0,40,41
167 494 m 5,50,51
 180 508 180 508 185 508 c 4,52,53
 194 508 194 508 252.5 443 c 132,-1,54
 311 378 311 378 311 367 c 4,55,56
 311 361 311 361 305 353 c 132,-1,57
 299 345 299 345 292 341 c 4,58,59
 280 335 280 335 264 345 c 132,-1,60
 248 355 248 355 213 391 c 4,61,62
 166 438 166 438 157.5 457.5 c 132,-1,63
 149 477 149 477 167 494 c 5,50,51
EndSplineSet
Validated: 33
EndChar

StartChar: eacute
Encoding: 233 233 126
Width: 442
Flags: W
LayerCount: 2
Fore
SplineSet
180 171 m 0,0,1
 200 190 200 190 216.5 197 c 128,-1,2
 233 204 233 204 259 204 c 0,3,4
 307 204 307 204 327 190.5 c 128,-1,5
 347 177 347 177 347 144 c 0,6,7
 347 78 347 78 250 62 c 0,8,9
 216 56 216 56 214 44 c 128,-1,10
 212 32 212 32 240 -3 c 0,11,12
 259 -28 259 -28 270 -32.5 c 128,-1,13
 281 -37 281 -37 312 -31 c 0,14,15
 326 -29 326 -29 339.5 -24 c 128,-1,16
 353 -19 353 -19 365 -12 c 128,-1,17
 377 -5 377 -5 384 -1 c 128,-1,18
 391 3 391 3 401 11 c 0,19,20
 418 25 418 25 425 24 c 128,-1,21
 432 23 432 23 432 0 c 0,22,23
 431 -43 431 -43 394 -71 c 128,-1,24
 357 -99 357 -99 298 -101 c 0,25,26
 188 -103 188 -103 156 -7 c 0,27,28
 143 35 143 35 124.5 47 c 128,-1,29
 106 59 106 59 66 51 c 0,30,31
 41 46 41 46 25.5 63 c 128,-1,32
 10 80 10 80 10 112 c 0,33,34
 10 173 10 173 95 150 c 0,35,36
 132 141 132 141 143.5 143.5 c 128,-1,37
 155 146 155 146 180 171 c 0,0,1
417 429 m 4,38,39
 412 429 412 429 366 389 c 4,40,41
 292 326 292 326 282 355 c 4,42,43
 280 360 280 360 280 370 c 4,44,45
 280 386 280 386 302 408 c 132,-1,46
 324 430 324 430 358 448 c 4,47,48
 387 463 387 463 406.5 462.5 c 132,-1,49
 426 462 426 462 426 446 c 4,50,51
 426 429 426 429 417 429 c 4,38,39
EndSplineSet
Validated: 33
EndChar

StartChar: oacute
Encoding: 243 243 131
Width: 357
Flags: W
LayerCount: 2
Fore
SplineSet
129 210 m 4,0,1
 143 217 143 217 159.5 217 c 132,-1,2
 176 217 176 217 207 209 c 4,3,4
 259 195 259 195 288 176 c 132,-1,5
 317 157 317 157 334 125 c 4,6,7
 346 102 346 102 346.5 83 c 132,-1,8
 347 64 347 64 338 17 c 4,9,10
 322 -67 322 -67 271.5 -116.5 c 132,-1,11
 221 -166 221 -166 150 -166 c 260,12,13
 79 -166 79 -166 43.5 -125 c 132,-1,14
 8 -84 8 -84 10 -4 c 4,15,16
 12 67 12 67 44 124.5 c 132,-1,17
 76 182 76 182 129 210 c 4,0,1
249 131 m 260,18,19
 216 148 216 148 202 147 c 4,20,21
 172 145 172 145 139 134 c 132,-1,22
 106 123 106 123 93 110 c 5,23,24
 77 96 77 96 62 55.5 c 132,-1,25
 47 15 47 15 52 -1 c 4,26,27
 56 -15 56 -15 62 -46 c 4,28,29
 68 -73 68 -73 103 -91.5 c 132,-1,30
 138 -110 138 -110 171 -104 c 4,31,32
 212 -97 212 -97 244 -65.5 c 132,-1,33
 276 -34 276 -34 288 3.5 c 132,-1,34
 300 41 300 41 291 77.5 c 132,-1,35
 282 114 282 114 249 131 c 260,18,19
288 416 m 4,36,37
 326 436 326 436 326 422 c 4,38,39
 326 407 326 407 280 339 c 5,40,41
 208 236 208 236 188 290 c 4,42,43
 182 305 182 305 220 352.5 c 132,-1,44
 258 400 258 400 288 416 c 4,36,37
EndSplineSet
Validated: 33
EndChar

StartChar: ugrave
Encoding: 249 249 134
Width: 430
Flags: W
LayerCount: 2
Fore
SplineSet
12 -19 m 0,0,1
 5 34 5 34 17 91 c 128,-1,2
 29 148 29 148 49 182 c 128,-1,3
 69 216 69 216 84 216 c 0,4,5
 111 216 111 216 97 167 c 0,6,7
 91 147 91 147 78 124 c 0,8,9
 58 87 58 87 54 67 c 128,-1,10
 50 47 50 47 55 8 c 0,11,12
 61 -42 61 -42 75.5 -60.5 c 128,-1,13
 90 -79 90 -79 119 -74 c 0,14,15
 145 -70 145 -70 175.5 -24.5 c 128,-1,16
 206 21 206 21 206 58 c 0,17,18
 208 178 208 178 243 190 c 0,19,20
 255 194 255 194 268 183 c 0,21,22
 277 176 277 176 276.5 157.5 c 128,-1,23
 276 139 276 139 266 92 c 0,24,25
 236 -42 236 -42 280 -68 c 0,26,27
 309 -86 309 -86 363 -43 c 0,28,29
 411 -5 411 -5 417 -11 c 0,30,31
 420 -14 420 -14 420 -25 c 0,32,33
 420 -44 420 -44 375 -88 c 128,-1,34
 330 -132 330 -132 303 -139 c 0,35,36
 283 -144 283 -144 272 -140 c 128,-1,37
 261 -136 261 -136 245 -118 c 0,38,39
 220 -89 220 -89 215 -74.5 c 128,-1,40
 210 -60 210 -60 172 -95 c 0,41,42
 127 -135 127 -135 106.5 -137 c 128,-1,43
 86 -139 86 -139 55 -106 c 0,44,45
 19 -67 19 -67 12 -19 c 0,0,1
89 453 m 0,46,47
 95 473 95 473 117.5 474 c 128,-1,48
 140 475 140 475 147 455 c 1,49,50
 153 441 153 441 198 371 c 1,51,52
 242 305 242 305 220 296 c 0,53,54
 216 294 216 294 209 294 c 0,55,56
 194 294 194 294 163 327.5 c 128,-1,57
 132 361 132 361 108.5 400 c 128,-1,58
 85 439 85 439 89 453 c 0,46,47
EndSplineSet
Validated: 33
EndChar

StartChar: uacute
Encoding: 250 250 135
Width: 469
Flags: W
LayerCount: 2
Fore
SplineSet
95 283 m 0,0,1
 110 311 110 311 120.5 315 c 128,-1,2
 131 319 131 319 146 303 c 1,3,4
 177 273 177 273 142 221 c 0,5,6
 127 198 127 198 125 145.5 c 128,-1,7
 123 93 123 93 137 76 c 0,8,9
 150 60 150 60 178 62.5 c 128,-1,10
 206 65 206 65 232 86 c 0,11,12
 254 104 254 104 268.5 149 c 128,-1,13
 283 194 283 194 293.5 230.5 c 128,-1,14
 304 267 304 267 319 270 c 0,15,16
 338 273 338 273 345 246.5 c 128,-1,17
 352 220 352 220 340 190 c 0,18,19
 330 163 330 163 329 125.5 c 128,-1,20
 328 88 328 88 337 74 c 0,21,22
 349 55 349 55 374.5 53.5 c 128,-1,23
 400 52 400 52 422 69 c 0,24,25
 453 94 453 94 458 79 c 0,26,27
 463 66 463 66 442 37 c 0,28,29
 412 -4 412 -4 364.5 -4.5 c 128,-1,30
 317 -5 317 -5 295 36 c 0,31,32
 287 52 287 52 279.5 51 c 128,-1,33
 272 50 272 50 243 30 c 0,34,35
 180 -13 180 -13 132 9 c 128,-1,36
 84 31 84 31 74 107 c 0,37,38
 70 138 70 138 64 149 c 128,-1,39
 58 160 58 160 46 160 c 0,40,41
 38 160 38 160 28.5 166 c 128,-1,42
 19 172 19 172 15 180 c 0,43,44
 8 193 8 193 11 202 c 128,-1,45
 14 211 14 211 29 225 c 0,46,47
 54 249 54 249 65 249 c 128,-1,48
 76 249 76 249 95 283 c 0,0,1
345 581 m 0,49,50
 395 607 395 607 405 594 c 128,-1,51
 415 581 415 581 373 545 c 0,52,53
 340 517 340 517 320 483 c 0,54,55
 304 457 304 457 280.5 454 c 128,-1,56
 257 451 257 451 252 474 c 0,57,58
 249 491 249 491 280.5 527.5 c 128,-1,59
 312 564 312 564 345 581 c 0,49,50
EndSplineSet
Validated: 33
EndChar

StartChar: quotedblleft
Encoding: 8220 8220 139
Width: 300
Flags: W
LayerCount: 2
Fore
SplineSet
212 427 m 0,0,1
 244 464 244 464 262.5 471 c 128,-1,2
 281 478 281 478 289 456 c 0,3,4
 293 445 293 445 277.5 426.5 c 128,-1,5
 262 408 262 408 238.5 383.5 c 128,-1,6
 215 359 215 359 206 342 c 0,7,8
 201 331 201 331 194 325 c 128,-1,9
 187 319 187 319 183 322 c 0,10,11
 167 333 167 333 175 363 c 128,-1,12
 183 393 183 393 212 427 c 0,0,1
49 419 m 0,13,14
 68 451 68 451 85.5 473 c 128,-1,15
 103 495 103 495 109 493 c 0,16,17
 128 487 128 487 123.5 464 c 128,-1,18
 119 441 119 441 94 409 c 0,19,20
 60 366 60 366 54 339 c 0,21,22
 46 299 46 299 31 301 c 0,23,24
 23 302 23 302 15 316 c 0,25,26
 7 331 7 331 13 349.5 c 128,-1,27
 19 368 19 368 49 419 c 0,13,14
EndSplineSet
Validated: 33
EndChar

StartChar: quotedblbase
Encoding: 8222 8222 140
Width: 302
Flags: W
LayerCount: 2
Fore
SplineSet
220 -67 m 1,0,1
 249 -29 249 -29 260 -23.5 c 128,-1,2
 271 -18 271 -18 286 -36 c 0,3,4
 298 -51 298 -51 287.5 -75 c 128,-1,5
 277 -99 277 -99 259 -99 c 0,6,7
 248 -99 248 -99 236 -119.5 c 128,-1,8
 224 -140 224 -140 214 -158 c 128,-1,9
 204 -176 204 -176 197 -172 c 0,10,11
 181 -162 181 -162 187.5 -132.5 c 128,-1,12
 194 -103 194 -103 220 -67 c 1,0,1
84 -56 m 0,13,14
 111 -4 111 -4 133 -9 c 0,15,16
 142 -11 142 -11 146 -24 c 1,17,18
 150 -33 150 -33 123 -77 c 128,-1,19
 96 -121 96 -121 64.5 -160 c 128,-1,20
 33 -199 33 -199 25 -197 c 0,21,22
 -9 -185 -9 -185 32 -137 c 0,23,24
 60 -104 60 -104 84 -56 c 0,13,14
EndSplineSet
Validated: 33
EndChar

StartChar: bullet
Encoding: 8226 8226 141
Width: 307
Flags: W
LayerCount: 2
Fore
SplineSet
87 290 m 0,0,1
 145 307 145 307 196.5 289.5 c 128,-1,2
 248 272 248 272 275.5 228 c 128,-1,3
 303 184 303 184 296 128 c 1,4,5
 285 54 285 54 245.5 25.5 c 128,-1,6
 206 -3 206 -3 126 7 c 0,7,8
 87 12 87 12 71 19.5 c 128,-1,9
 55 27 55 27 40 48 c 0,10,11
 13 87 13 87 10 140.5 c 128,-1,12
 7 194 7 194 28.5 236.5 c 128,-1,13
 50 279 50 279 87 290 c 0,0,1
EndSplineSet
Validated: 33
EndChar

StartChar: Euro
Encoding: 8364 8364 142
Width: 458
Flags: W
LayerCount: 2
Fore
SplineSet
167 283 m 0,0,1
 200 316 200 316 240.5 334 c 128,-1,2
 281 352 281 352 314.5 353.5 c 128,-1,3
 348 355 348 355 372 352 c 128,-1,4
 396 349 396 349 407 343 c 0,5,6
 416 337 416 337 414 321.5 c 128,-1,7
 412 306 412 306 401 305 c 0,8,9
 384 303 384 303 338.5 302.5 c 128,-1,10
 293 302 293 302 266.5 297.5 c 128,-1,11
 240 293 240 293 227 280 c 0,12,13
 212 265 212 265 218 263 c 0,14,15
 223 261 223 261 254 261 c 0,16,17
 299 261 299 261 317.5 253 c 128,-1,18
 336 245 336 245 336 226 c 0,19,20
 336 213 336 213 326.5 210.5 c 128,-1,21
 317 208 317 208 281 212 c 0,22,23
 231 218 231 218 189 205.5 c 128,-1,24
 147 193 147 193 142 171 c 0,25,26
 138 157 138 157 141.5 154 c 128,-1,27
 145 151 145 151 159 154 c 0,28,29
 250 176 250 176 281 151 c 0,30,31
 294 141 294 141 288 124 c 0,32,33
 281 107 281 107 221 104.5 c 128,-1,34
 161 102 161 102 154 94 c 0,35,36
 142 82 142 82 153 63 c 128,-1,37
 164 44 164 44 190 30 c 0,38,39
 214 18 214 18 245.5 20.5 c 128,-1,40
 277 23 277 23 377 47 c 0,41,42
 437 62 437 62 445 54 c 0,43,44
 461 38 461 38 405 14 c 1,45,46
 347 -9 347 -9 249 -26 c 0,47,48
 206 -33 206 -33 171 -17 c 128,-1,49
 136 -1 136 -1 115 36 c 0,50,51
 102 57 102 57 92.5 62.5 c 128,-1,52
 83 68 83 68 65 64 c 0,53,54
 32 57 32 57 18 80 c 0,55,56
 3 103 3 103 32 122 c 0,57,58
 42 128 42 128 57 133 c 0,59,60
 71 137 71 137 83 144.5 c 128,-1,61
 95 152 95 152 97 158 c 0,62,63
 100 168 100 168 87 169 c 0,64,65
 78 169 78 169 55 165 c 0,66,67
 19 159 19 159 14 162 c 128,-1,68
 9 165 9 165 12 189 c 0,69,70
 14 211 14 211 23.5 217.5 c 128,-1,71
 33 224 33 224 69 230 c 0,72,73
 101 236 101 236 121.5 247 c 128,-1,74
 142 258 142 258 167 283 c 0,0,1
EndSplineSet
Validated: 33
EndChar

StartChar: quotedbl
Encoding: 34 34 143
Width: 105
Flags: W
LayerCount: 2
Fore
SplineSet
142 670 m 4,0,1
 160 682 160 682 175 674 c 132,-1,2
 190 666 190 666 190.5 648 c 132,-1,3
 191 630 191 630 177 611 c 5,4,5
 158 590 158 590 143 547 c 4,6,7
 126 497 126 497 113 500 c 5,8,9
 102 501 102 501 108 539 c 4,10,11
 125 658 125 658 142 670 c 4,0,1
46 669 m 4,12,13
 64 681 64 681 79 673 c 132,-1,14
 94 665 94 665 94.5 647 c 132,-1,15
 95 629 95 629 81 610 c 5,16,17
 62 589 62 589 47 546 c 4,18,19
 30 496 30 496 17 499 c 5,20,21
 6 500 6 500 12 538 c 4,22,23
 29 657 29 657 46 669 c 4,12,13
EndSplineSet
Validated: 33
EndChar

StartChar: grave
Encoding: 96 96 144
Width: 1000
VWidth: 0
LayerCount: 2
Fore
SplineSet
465 715 m 1,0,-1
 473 671 l 2,1,2
 477.176 648.033 477.176 648.033 527 581.5 c 0,3,4
 590.496 495.429 590.496 495.429 615 510 c 0,5,6
 618.829 512.277 618.829 512.277 618 522 c 0,7,8
 612.109 577.652 612.109 577.652 592 579 c 0,9,10
 549.97 581.973 549.97 581.973 529 682 c 0,11,12
 522 715 522 715 512.5 729.5 c 0,13,14
 500.735 747.456 500.735 747.456 480 744 c 2,15,-1
 468 742 l 1,16,-1
 465 715 l 1,0,-1
EndSplineSet
Validated: 41
EndChar

StartChar: underscore
Encoding: 95 95 145
Width: 378
VWidth: 0
Flags: W
LayerCount: 2
Fore
SplineSet
322 -141 m 24,0,1
 302 -139.5 302 -139.5 212 -140.25 c 128,-1,2
 122 -141 122 -141 109 -140 c 0,3,4
 60 -138 60 -138 60 -151 c 1,5,6
 91.4883 -194.677 91.4883 -194.677 188.5 -179.5 c 0,7,8
 391.985 -147.666 391.985 -147.666 322 -141 c 24,0,1
EndSplineSet
EndChar

StartChar: asciicircum
Encoding: 94 94 146
Width: 1000
VWidth: 0
LayerCount: 2
Fore
SplineSet
355 682 m 1,0,1
 358 689 358 689 361 696 c 0,2,3
 372.25 722.25 372.25 722.25 400 750 c 0,4,5
 430 780 430 780 454 780 c 0,6,7
 467 780 467 780 520.5 718.5 c 128,-1,8
 574 657 574 657 574 642 c 0,9,10
 574 630 574 630 538 630 c 1,11,12
 519 626 519 626 507.5 653 c 24,13,14
 462.219 758.825 462.219 758.825 456.5 754 c 0,15,16
 444.141 743.574 444.141 743.574 436 740.5 c 0,17,18
 432.775 739.487 432.775 739.487 413.918 714.799 c 0,19,20
 385.806 679.954 385.806 679.954 385 679 c 0,21,22
 353.626 626.498 353.626 626.498 346 634 c 0,23,24
 336.819 643.385 336.819 643.385 355 682 c 1,0,1
EndSplineSet
Validated: 33
EndChar

StartChar: iacute
Encoding: 237 237 147
Width: 390
Flags: W
LayerCount: 2
Fore
SplineSet
149 263 m 4,0,1
 165 304 165 304 173.5 311.5 c 132,-1,2
 182 319 182 319 204 310 c 5,3,4
 224 303 224 303 221 279.5 c 132,-1,5
 218 256 218 256 192 210 c 4,6,7
 170 171 170 171 163.5 121 c 132,-1,8
 157 71 157 71 170 49 c 4,9,10
 181 31 181 31 209 36.5 c 132,-1,11
 237 42 237 42 256 65 c 4,12,13
 280 96 280 96 292 83.5 c 132,-1,14
 304 71 304 71 289.5 43 c 132,-1,15
 275 15 275 15 246.5 -8 c 132,-1,16
 218 -31 218 -31 195 -31 c 4,17,18
 168 -31 168 -31 143 0.5 c 132,-1,19
 118 32 118 32 113 72 c 5,20,-1
 108 124 l 5,21,-1
 69 101 l 6,22,23
 30 78 30 78 18 90 c 4,24,25
 4 104 4 104 14.5 121 c 132,-1,26
 25 138 25 138 57 154 c 4,27,28
 95 172 95 172 113 193 c 132,-1,29
 131 214 131 214 149 263 c 4,0,1
190 413 m 5,30,31
 205 432 205 432 216.5 424.5 c 132,-1,32
 228 417 228 417 228 389 c 4,33,34
 228 370 228 370 223 363 c 132,-1,35
 218 356 218 356 205 356 c 4,36,37
 186 356 186 356 180.5 376 c 132,-1,38
 175 396 175 396 190 413 c 5,30,31
327 580 m 4,39,40
 345 588 345 588 354.5 591.5 c 132,-1,41
 364 595 364 595 370 595.5 c 132,-1,42
 376 596 376 596 378 593 c 132,-1,43
 380 590 380 590 380 583 c 4,44,45
 380 574 380 574 360 559 c 132,-1,46
 340 544 340 544 302.5 517.5 c 132,-1,47
 265 491 265 491 239 468 c 4,48,49
 221 452 221 452 208.5 443.5 c 132,-1,50
 196 435 196 435 187.5 434.5 c 132,-1,51
 179 434 179 434 174.5 440 c 132,-1,52
 170 446 170 446 168 461 c 4,53,54
 166 474 166 474 179 487.5 c 132,-1,55
 192 501 192 501 228 524 c 4,56,57
 291 564 291 564 327 580 c 4,39,40
EndSplineSet
Validated: 33
EndChar

StartChar: ograve
Encoding: 242 242 148
Width: 357
Flags: W
LayerCount: 2
Fore
SplineSet
129 210 m 0,0,1
 143 217 143 217 159.5 217 c 128,-1,2
 176 217 176 217 207 209 c 0,3,4
 259 195 259 195 288 176 c 128,-1,5
 317 157 317 157 334 125 c 0,6,7
 346 102 346 102 346.5 83 c 128,-1,8
 347 64 347 64 338 17 c 0,9,10
 322 -67 322 -67 271.5 -116.5 c 128,-1,11
 221 -166 221 -166 150 -166 c 256,12,13
 79 -166 79 -166 43.5 -125 c 128,-1,14
 8 -84 8 -84 10 -4 c 0,15,16
 12 67 12 67 44 124.5 c 128,-1,17
 76 182 76 182 129 210 c 0,0,1
249 131 m 256,18,19
 216 148 216 148 202 147 c 0,20,21
 172 145 172 145 139 134 c 128,-1,22
 106 123 106 123 93 110 c 1,23,24
 77 96 77 96 62 55.5 c 128,-1,25
 47 15 47 15 52 -1 c 0,26,27
 56 -15 56 -15 62 -46 c 0,28,29
 68 -73 68 -73 103 -91.5 c 128,-1,30
 138 -110 138 -110 171 -104 c 0,31,32
 212 -97 212 -97 244 -65.5 c 128,-1,33
 276 -34 276 -34 288 3.5 c 128,-1,34
 300 41 300 41 291 77.5 c 128,-1,35
 282 114 282 114 249 131 c 256,18,19
175 446 m 0,36,37
 187.733 460.609 187.733 460.609 193 431 c 0,38,39
 202.569 381.722 202.569 381.722 280 339 c 1,40,41
 303.7 321.946 303.7 321.946 293 322 c 0,42,43
 281.494 322.046 281.494 322.046 256 332.5 c 0,44,45
 123.062 386.408 123.062 386.408 175 446 c 0,36,37
EndSplineSet
Validated: 33
EndChar

StartChar: igrave
Encoding: 236 236 149
Width: 390
Flags: W
LayerCount: 2
Fore
SplineSet
149 263 m 0,0,1
 165 304 165 304 173.5 311.5 c 128,-1,2
 182 319 182 319 204 310 c 1,3,4
 224 303 224 303 221 279.5 c 128,-1,5
 218 256 218 256 192 210 c 0,6,7
 170 171 170 171 163.5 121 c 128,-1,8
 157 71 157 71 170 49 c 0,9,10
 181 31 181 31 209 36.5 c 128,-1,11
 237 42 237 42 256 65 c 0,12,13
 280 96 280 96 292 83.5 c 128,-1,14
 304 71 304 71 289.5 43 c 128,-1,15
 275 15 275 15 246.5 -8 c 128,-1,16
 218 -31 218 -31 195 -31 c 0,17,18
 168 -31 168 -31 143 0.5 c 128,-1,19
 118 32 118 32 113 72 c 1,20,-1
 108 124 l 1,21,-1
 69 101 l 2,22,23
 30 78 30 78 18 90 c 0,24,25
 4 104 4 104 14.5 121 c 128,-1,26
 25 138 25 138 57 154 c 0,27,28
 95 172 95 172 113 193 c 128,-1,29
 131 214 131 214 149 263 c 0,0,1
190 413 m 1,30,31
 205 432 205 432 216.5 424.5 c 128,-1,32
 228 417 228 417 228 389 c 0,33,34
 228 370 228 370 223 363 c 128,-1,35
 218 356 218 356 205 356 c 0,36,37
 186 356 186 356 180.5 376 c 128,-1,38
 175 396 175 396 190 413 c 1,30,31
302.5 517.5 m 28,39,40
 340.008 544.004 340.008 544.004 260.999 578.5 c 4,41,42
 183.321 612.423 183.321 612.423 181.998 622.001 c 132,-1,43
 180.585 631.748 180.585 631.748 171.993 623.005 c 4,44,45
 159.645 610.625 159.645 610.625 182.663 582.325 c 4,46,47
 192.201 570.475 192.201 570.475 213.011 557.33 c 4,48,49
 245.831 542.629 245.831 542.629 259.331 535.333 c 4,50,51
 298.09 514.385 298.09 514.385 302.5 517.5 c 28,39,40
EndSplineSet
Validated: 41
EndChar

StartChar: Ograve
Encoding: 210 210 150
Width: 538
Flags: W
LayerCount: 2
Fore
SplineSet
302.5 517.5 m 24,0,1
 340.008 544.004 340.008 544.004 260.999 578.5 c 0,2,3
 183.321 612.423 183.321 612.423 181.998 622.001 c 128,-1,4
 180.585 631.748 180.585 631.748 171.993 623.005 c 0,5,6
 159.645 610.625 159.645 610.625 182.663 582.325 c 0,7,8
 192.201 570.475 192.201 570.475 213.011 557.33 c 0,9,10
 245.831 542.629 245.831 542.629 259.331 535.333 c 0,11,12
 298.09 514.385 298.09 514.385 302.5 517.5 c 24,0,1
293 434 m 0,13,14
 329 447 329 447 345 445 c 128,-1,15
 361 443 361 443 396 424 c 0,16,17
 443 398 443 398 467.5 372 c 128,-1,18
 492 346 492 346 508 303 c 1,19,20
 530 249 530 249 528 184 c 128,-1,21
 526 119 526 119 508 59 c 128,-1,22
 490 -1 490 -1 454 -52.5 c 128,-1,23
 418 -104 418 -104 372 -131 c 0,24,25
 343 -148 343 -148 318 -153.5 c 128,-1,26
 293 -159 293 -159 243 -159 c 0,27,28
 172 -159 172 -159 143 -147 c 128,-1,29
 114 -135 114 -135 67 -86 c 0,30,31
 38 -56 38 -56 28 -35.5 c 128,-1,32
 18 -15 18 -15 13 24 c 0,33,34
 5 88 5 88 19 159 c 128,-1,35
 33 230 33 230 61 263 c 1,36,-1
 118 334 l 2,37,38
 138 359 138 359 185.5 386.5 c 128,-1,39
 233 414 233 414 293 434 c 0,13,14
397 344 m 0,40,41
 376 358 376 358 361.5 362 c 128,-1,42
 347 366 347 366 342.5 363 c 128,-1,43
 338 360 338 360 331 360.5 c 128,-1,44
 324 361 324 361 317 367 c 0,45,46
 305 377 305 377 254.5 359 c 128,-1,47
 204 341 204 341 165 312 c 0,48,49
 150 301 150 301 129.5 273.5 c 128,-1,50
 109 246 109 246 95 219 c 0,51,52
 53 132 53 132 62.5 53.5 c 128,-1,53
 72 -25 72 -25 131 -68 c 0,54,55
 168 -95 168 -95 225 -95.5 c 128,-1,56
 282 -96 282 -96 336 -71.5 c 128,-1,57
 390 -47 390 -47 419 -5 c 0,58,59
 439 23 439 23 458.5 79.5 c 128,-1,60
 478 136 478 136 478 165 c 0,61,62
 478 193 478 193 458 254 c 1,63,64
 447 291 447 291 434.5 309.5 c 128,-1,65
 422 328 422 328 397 344 c 0,40,41
EndSplineSet
Validated: 41
EndChar

StartChar: Iacute
Encoding: 205 205 151
Width: 84
Flags: W
LayerCount: 2
Fore
SplineSet
149 617 m 0,0,1
 144 617 144 617 98 577 c 0,2,3
 24 514 24 514 14 543 c 0,4,5
 12 548 12 548 12 558 c 0,6,7
 12 574 12 574 34 596 c 128,-1,8
 56 618 56 618 90 636 c 0,9,10
 119 651 119 651 138.5 650.5 c 128,-1,11
 158 650 158 650 158 634 c 0,12,13
 158 617 158 617 149 617 c 0,0,1
27 454 m 4,14,15
 54 471 54 471 63 447 c 4,16,17
 77 409 77 409 72 157 c 4,18,19
 72 153 72 153 72 148 c 4,20,21
 67 -87 67 -87 57 -121 c 4,22,23
 50 -144 50 -144 29 -142 c 4,24,25
 27 -142 27 -142 24 -141 c 4,26,27
 11 -139 11 -139 10 -101.5 c 132,-1,28
 9 -64 9 -64 13.5 58 c 132,-1,29
 18 180 18 180 16 300 c 4,30,31
 13 446 13 446 27 454 c 4,14,15
EndSplineSet
Validated: 33
EndChar

StartChar: Igrave
Encoding: 204 204 152
Width: 84
Flags: W
LayerCount: 2
Fore
SplineSet
-69 662 m 5,0,1
 -56 676 -56 676 -51 676 c 4,2,3
 -42 676 -42 676 16.5 611 c 132,-1,4
 75 546 75 546 75 535 c 4,5,6
 75 529 75 529 69 521 c 132,-1,7
 63 513 63 513 56 509 c 4,8,9
 44 503 44 503 28 513 c 132,-1,10
 12 523 12 523 -23 559 c 4,11,12
 -70 606 -70 606 -78.5 625.5 c 132,-1,13
 -87 645 -87 645 -69 662 c 5,0,1
27 454 m 0,14,15
 54 471 54 471 63 447 c 0,16,17
 77 409 77 409 72 157 c 0,18,19
 72 153 72 153 72 148 c 0,20,21
 67 -87 67 -87 57 -121 c 0,22,23
 50 -144 50 -144 29 -142 c 0,24,25
 27 -142 27 -142 24 -141 c 0,26,27
 11 -139 11 -139 10 -101.5 c 128,-1,28
 9 -64 9 -64 13.5 58 c 128,-1,29
 18 180 18 180 16 300 c 0,30,31
 13 446 13 446 27 454 c 0,14,15
EndSplineSet
Validated: 33
EndChar

StartChar: uni001F
Encoding: 31 31 153
Width: 1024
VWidth: 1024
Flags: W
LayerCount: 2
Fore
SplineSet
220 637 m 5,0,-1
 173 497 l 5,1,-1
 103 497 l 6,2,3
 85 497 85 497 72.5 484.5 c 132,-1,4
 60 472 60 472 60 454 c 6,5,-1
 60 20 l 6,6,7
 60 2 60 2 72.5 -10.5 c 132,-1,8
 85 -23 85 -23 103 -23 c 6,9,-1
 897 -23 l 6,10,11
 915 -23 915 -23 927.5 -10.5 c 132,-1,12
 940 2 940 2 940 20 c 6,13,-1
 940 454 l 6,14,15
 940 472 940 472 927.5 484.5 c 132,-1,16
 915 497 915 497 897 497 c 6,17,-1
 840 497 l 5,18,-1
 840 517 l 6,19,20
 840 525 840 525 834 531 c 132,-1,21
 828 537 828 537 820 537 c 6,22,-1
 800 537 l 5,23,-1
 730 537 l 6,24,25
 725 537 725 537 720 539 c 5,26,-1
 720 537 l 5,27,-1
 700 537 l 6,28,29
 692 537 692 537 686 531 c 132,-1,30
 680 525 680 525 680 517 c 6,31,-1
 680 497 l 5,32,-1
 467 497 l 5,33,-1
 420 637 l 5,34,-1
 220 637 l 5,0,-1
320 437 m 132,-1,36
 403 437 403 437 461.5 378.5 c 132,-1,37
 520 320 520 320 520 237 c 132,-1,38
 520 154 520 154 461.5 95.5 c 132,-1,39
 403 37 403 37 320 37 c 132,-1,40
 237 37 237 37 178.5 95.5 c 132,-1,41
 120 154 120 154 120 237 c 132,-1,42
 120 320 120 320 178.5 378.5 c 132,-1,35
 237 437 237 437 320 437 c 132,-1,36
680 437 m 6,43,-1
 840 437 l 6,44,45
 848 437 848 437 854 431 c 132,-1,46
 860 425 860 425 860 417 c 6,47,-1
 860 357 l 6,48,49
 860 349 860 349 854 343 c 132,-1,50
 848 337 848 337 840 337 c 6,51,-1
 680 337 l 6,52,53
 672 337 672 337 666 343 c 132,-1,54
 660 349 660 349 660 357 c 6,55,-1
 660 417 l 6,56,57
 660 425 660 425 666 431 c 132,-1,58
 672 437 672 437 680 437 c 6,43,-1
320 397 m 132,-1,60
 254 397 254 397 207 350 c 132,-1,61
 160 303 160 303 160 237 c 132,-1,62
 160 171 160 171 207 124 c 132,-1,63
 254 77 254 77 320 77 c 132,-1,64
 386 77 386 77 433 124 c 132,-1,65
 480 171 480 171 480 237 c 132,-1,66
 480 303 480 303 433 350 c 132,-1,59
 386 397 386 397 320 397 c 132,-1,60
320 357 m 132,-1,68
 370 357 370 357 405 322 c 132,-1,69
 440 287 440 287 440 237 c 132,-1,70
 440 187 440 187 405 152 c 132,-1,71
 370 117 370 117 320 117 c 132,-1,72
 270 117 270 117 235 152 c 132,-1,73
 200 187 200 187 200 237 c 132,-1,74
 200 287 200 287 235 322 c 132,-1,67
 270 357 270 357 320 357 c 132,-1,68
EndSplineSet
EndChar

StartChar: uni001A
Encoding: 26 26 154
Width: 1024
VWidth: 1024
Flags: W
LayerCount: 2
Fore
SplineSet
229 742 m 5,0,-1
 229 702 l 5,1,2
 204 702 204 702 154 702 c 132,-1,3
 104 702 104 702 79 702 c 5,4,-1
 81 -98 l 5,5,-1
 81 -126 l 5,6,-1
 81 -136 l 5,7,-1
 921 -136 l 5,8,-1
 921 -126 l 5,9,-1
 921 -98 l 5,10,-1
 921 591 l 5,11,-1
 809 702 l 5,12,-1
 769 702 l 5,13,-1
 769 742 l 5,14,-1
 229 742 l 5,0,-1
269 702 m 5,15,-1
 727 702 l 5,16,-1
 727 400 l 5,17,-1
 269 400 l 5,18,-1
 269 702 l 5,15,-1
568 667 m 6,19,20
 560 667 560 667 554.5 661.5 c 132,-1,21
 549 656 549 656 549 648 c 6,22,-1
 549 456 l 6,23,24
 549 449 549 449 554.5 443.5 c 132,-1,25
 560 438 560 438 568 438 c 6,26,-1
 645 438 l 6,27,28
 653 438 653 438 658.5 443.5 c 132,-1,29
 664 449 664 449 664 456 c 6,30,-1
 664 648 l 6,31,32
 664 656 664 656 658.5 661.5 c 132,-1,33
 653 667 653 667 645 667 c 6,34,-1
 568 667 l 6,19,20
181 287 m 5,35,-1
 821 287 l 5,36,-1
 821 277 l 5,37,-1
 821 -83 l 5,38,-1
 181 -83 l 5,39,-1
 181 257 l 5,40,-1
 181 287 l 5,35,-1
EndSplineSet
EndChar

StartChar: uni001B
Encoding: 27 27 155
Width: 1024
VWidth: 1024
Flags: W
LayerCount: 2
Fore
SplineSet
593 245 m 4,0,1
 572 244 572 244 560 227 c 4,2,3
 540 198 540 198 545 186 c 6,4,-1
 607 34 l 5,5,-1
 616 5 l 5,6,-1
 647 5 l 5,7,-1
 832 5 l 6,8,9
 849 5 849 5 861.5 17 c 132,-1,10
 874 29 874 29 874 46.5 c 132,-1,11
 874 64 874 64 861.5 76.5 c 132,-1,12
 849 89 849 89 832 88 c 5,13,-1
 677 88 l 5,14,-1
 634 216 l 6,15,16
 630 229 630 229 618.5 237 c 132,-1,17
 607 245 607 245 593 245 c 4,0,1
493 249 m 4,18,19
 480 249 480 249 469.5 242 c 132,-1,20
 459 235 459 235 455 224 c 5,21,-1
 268 -114 l 5,22,23
 289 -132 289 -132 330.5 -126 c 132,-1,24
 372 -120 372 -120 388 -94 c 4,25,26
 416 -50 416 -50 473 55.5 c 132,-1,27
 530 161 530 161 545 186 c 5,28,29
 546 190 546 190 540.5 199 c 132,-1,30
 535 208 535 208 534 210 c 5,31,32
 534 221 534 221 528 230 c 4,33,34
 516 249 516 249 493 249 c 4,18,19
376 520 m 132,-1,36
 366 520 366 520 357.5 514.5 c 132,-1,37
 349 509 349 509 344 501 c 6,38,-1
 283 387 l 5,39,-1
 152 350 l 6,40,41
 138 346 138 346 130.5 332.5 c 132,-1,42
 123 319 123 319 127 304.5 c 132,-1,43
 131 290 131 290 144.5 283 c 132,-1,44
 158 276 158 276 172 280 c 6,45,-1
 318 322 l 5,46,-1
 332 326 l 5,47,-1
 340 339 l 5,48,-1
 408 466 l 6,49,50
 413 475 413 475 413 484.5 c 132,-1,51
 413 494 413 494 408 502.5 c 132,-1,52
 403 511 403 511 394.5 515.5 c 132,-1,35
 386 520 386 520 376 520 c 132,-1,36
390 520 m 6,53,54
 375 520 375 520 364 509.5 c 132,-1,55
 353 499 353 499 352.5 484 c 132,-1,56
 352 469 352 469 362.5 458 c 132,-1,57
 373 447 373 447 388 447 c 6,58,-1
 649 441 l 5,59,-1
 732 312 l 6,60,61
 740 299 740 299 755 296 c 132,-1,62
 770 293 770 293 782.5 301 c 132,-1,63
 795 309 795 309 798.5 324 c 132,-1,64
 802 339 802 339 794 351 c 6,65,-1
 700 497 l 6,66,67
 697 502 697 502 696 504 c 132,-1,68
 695 506 695 506 692.5 508.5 c 132,-1,69
 690 511 690 511 689.5 511.5 c 132,-1,70
 689 512 689 512 686.5 513.5 c 132,-1,71
 684 515 684 515 683 515 c 132,-1,72
 682 515 682 515 677.5 516.5 c 132,-1,73
 673 518 673 518 669 519 c 6,74,-1
 390 520 l 6,53,54
426 706 m 132,-1,76
 392 706 392 706 367.5 681.5 c 132,-1,77
 343 657 343 657 343 623 c 132,-1,78
 343 589 343 589 367.5 564 c 132,-1,79
 392 539 392 539 426 539 c 132,-1,80
 460 539 460 539 484.5 564 c 132,-1,81
 509 589 509 589 509 623 c 132,-1,82
 509 657 509 657 484.5 681.5 c 132,-1,75
 460 706 460 706 426 706 c 132,-1,76
368 519 m 5,83,-1
 445 186 l 5,84,-1
 642 186 l 5,85,-1
 561 519 l 5,86,-1
 368 519 l 5,83,-1
EndSplineSet
EndChar

StartChar: uni001C
Encoding: 28 28 156
Width: 1024
VWidth: 1024
Flags: W
LayerCount: 2
Fore
SplineSet
601 684 m 5,0,-1
 301 444 l 5,1,-1
 61 444 l 5,2,-1
 61 124 l 5,3,-1
 301 124 l 5,4,-1
 601 -116 l 5,5,-1
 601 684 l 5,0,-1
765 604 m 5,6,-1
 722 538 l 5,7,8
 786 497 786 497 823.5 429.5 c 132,-1,9
 861 362 861 362 861 283.5 c 132,-1,10
 861 205 861 205 823.5 138 c 132,-1,11
 786 71 786 71 722 30 c 5,12,-1
 765 -36 l 5,13,14
 845 16 845 16 892 100.5 c 132,-1,15
 939 185 939 185 939 283.5 c 132,-1,16
 939 382 939 382 892 467 c 132,-1,17
 845 552 845 552 765 604 c 5,6,-1
694 493 m 5,18,-1
 651 427 l 5,19,20
 687 404 687 404 708 366 c 132,-1,21
 729 328 729 328 729 283.5 c 132,-1,22
 729 239 729 239 708 201 c 132,-1,23
 687 163 687 163 651 140 c 5,24,-1
 694 74 l 5,25,26
 746 108 746 108 777 163.5 c 132,-1,27
 808 219 808 219 808 283.5 c 132,-1,28
 808 348 808 348 777 403.5 c 132,-1,29
 746 459 746 459 694 493 c 5,18,-1
EndSplineSet
EndChar

StartChar: uni0019
Encoding: 25 25 157
Width: 1024
VWidth: 1024
Flags: W
LayerCount: 2
Fore
SplineSet
325 669 m 6,0,1
 317 669 317 669 312 663 c 132,-1,2
 307 657 307 657 307 649 c 6,3,-1
 307 529 l 6,4,5
 307 521 307 521 312 515 c 132,-1,6
 317 509 317 509 325 509 c 6,7,-1
 470 509 l 5,8,-1
 470 389 l 5,9,-1
 325 389 l 6,10,11
 317 389 317 389 312 383 c 132,-1,12
 307 377 307 377 307 369 c 6,13,-1
 307 249 l 6,14,15
 307 241 307 241 312 235 c 132,-1,16
 317 229 317 229 325 229 c 6,17,-1
 386 229 l 5,18,-1
 290 109 l 5,19,-1
 79 109 l 6,20,21
 72 109 72 109 67 103 c 132,-1,22
 62 97 62 97 62 89 c 6,23,-1
 62 -31 l 6,24,25
 62 -39 62 -39 67 -45 c 132,-1,26
 72 -51 72 -51 79 -51 c 6,27,-1
 430 -51 l 6,28,29
 437 -51 437 -51 442 -45 c 132,-1,30
 447 -39 447 -39 447 -31 c 6,31,-1
 447 89 l 6,32,33
 447 97 447 97 442 103 c 132,-1,34
 437 109 437 109 430 109 c 6,35,-1
 361 109 l 5,36,-1
 451 229 l 5,37,-1
 549 229 l 5,38,-1
 639 109 l 5,39,-1
 570 109 l 6,40,41
 563 109 563 109 558 103 c 132,-1,42
 553 97 553 97 553 89 c 6,43,-1
 553 -31 l 6,44,45
 553 -39 553 -39 558 -45 c 132,-1,46
 563 -51 563 -51 570 -51 c 6,47,-1
 921 -51 l 6,48,49
 928 -51 928 -51 933 -45 c 132,-1,50
 938 -39 938 -39 938 -31 c 6,51,-1
 938 89 l 6,52,53
 938 97 938 97 933 103 c 132,-1,54
 928 109 928 109 921 109 c 6,55,-1
 710 109 l 5,56,-1
 614 229 l 5,57,-1
 675 229 l 6,58,59
 683 229 683 229 688 235 c 132,-1,60
 693 241 693 241 693 249 c 6,61,-1
 693 369 l 6,62,63
 693 377 693 377 688 383 c 132,-1,64
 683 389 683 389 675 389 c 6,65,-1
 530 389 l 5,66,-1
 530 509 l 5,67,-1
 675 509 l 6,68,69
 683 509 683 509 688 515 c 132,-1,70
 693 521 693 521 693 529 c 6,71,-1
 693 649 l 6,72,73
 693 657 693 657 688 663 c 132,-1,74
 683 669 683 669 675 669 c 6,75,-1
 325 669 l 6,0,1
EndSplineSet
EndChar

StartChar: uni0018
Encoding: 24 24 158
Width: 1024
VWidth: 1024
Flags: W
LayerCount: 2
Fore
SplineSet
500 738 m 132,-1,1
 410 738 410 738 329 703.5 c 132,-1,2
 248 669 248 669 189 610 c 132,-1,3
 130 551 130 551 95 469.5 c 132,-1,4
 60 388 60 388 60 298.5 c 132,-1,5
 60 209 60 209 95 127.5 c 132,-1,6
 130 46 130 46 189 -13 c 132,-1,7
 248 -72 248 -72 329 -107 c 132,-1,8
 410 -142 410 -142 500 -142 c 132,-1,9
 590 -142 590 -142 671 -107 c 132,-1,10
 752 -72 752 -72 811 -13 c 132,-1,11
 870 46 870 46 905 127.5 c 132,-1,12
 940 209 940 209 940 298.5 c 132,-1,13
 940 388 940 388 905 469.5 c 132,-1,14
 870 551 870 551 811 610 c 132,-1,15
 752 669 752 669 671 703.5 c 132,-1,0
 590 738 590 738 500 738 c 132,-1,1
433 532 m 5,16,-1
 567 532 l 5,17,-1
 567 365 l 5,18,-1
 733 365 l 5,19,-1
 733 232 l 5,20,-1
 567 232 l 5,21,-1
 567 65 l 5,22,-1
 433 65 l 5,23,-1
 433 232 l 5,24,-1
 267 232 l 5,25,-1
 267 365 l 5,26,-1
 433 365 l 5,27,-1
 433 532 l 5,16,-1
EndSplineSet
EndChar

StartChar: uni0017
Encoding: 23 23 159
Width: 1024
VWidth: 1024
Flags: W
LayerCount: 2
Fore
SplineSet
500 743 m 132,-1,1
 318 743 318 743 189 614 c 132,-1,2
 60 485 60 485 60 303 c 132,-1,3
 60 121 60 121 189 -8 c 132,-1,4
 318 -137 318 -137 500 -137 c 132,-1,5
 682 -137 682 -137 811 -8 c 132,-1,6
 940 121 940 121 940 303 c 132,-1,7
 940 485 940 485 811 614 c 132,-1,0
 682 743 682 743 500 743 c 132,-1,1
267 370 m 5,8,-1
 733 370 l 5,9,-1
 733 236 l 5,10,-1
 267 236 l 5,11,-1
 267 370 l 5,8,-1
EndSplineSet
EndChar

StartChar: uni0016
Encoding: 22 22 160
Width: 1024
VWidth: 1024
Flags: W
LayerCount: 2
Fore
SplineSet
120 518 m 6,0,1
 95 518 95 518 77 500 c 132,-1,2
 59 482 59 482 59 456 c 6,3,-1
 59 -98 l 5,4,-1
 941 -98 l 5,5,-1
 941 456 l 6,6,7
 941 482 941 482 923 500 c 132,-1,8
 905 518 905 518 880 518 c 6,9,-1
 120 518 l 6,0,1
260 714 m 5,10,-1
 209 647 l 5,11,-1
 161 647 l 6,12,13
 144 647 144 647 132 633 c 132,-1,14
 120 619 120 619 120 599 c 6,15,-1
 120 575 l 6,16,17
 120 568 120 568 122 563 c 5,18,-1
 878 563 l 5,19,20
 880 568 880 568 880 575 c 6,21,-1
 880 599 l 6,22,23
 880 619 880 619 868 633 c 132,-1,24
 856 647 856 647 839 647 c 6,25,-1
 426 647 l 5,26,-1
 380 714 l 5,27,-1
 260 714 l 5,10,-1
EndSplineSet
EndChar

StartChar: uni001D
Encoding: 29 29 161
Width: 1024
VWidth: 1024
Flags: W
LayerCount: 2
Fore
SplineSet
500 699 m 5,0,-1
 393 392 l 5,1,-1
 68 386 l 5,2,-1
 327 189 l 5,3,-1
 233 -122 l 5,4,-1
 500 64 l 5,5,-1
 766 -122 l 5,6,-1
 673 189 l 5,7,-1
 932 385 l 5,8,-1
 607 392 l 5,9,-1
 500 699 l 5,0,-1
EndSplineSet
EndChar

StartChar: uni0015
Encoding: 21 21 162
Width: 1024
VWidth: 1024
Flags: W
LayerCount: 2
Fore
SplineSet
259 746 m 6,0,1
 251 746 251 746 245.5 740.5 c 132,-1,2
 240 735 240 735 240 727 c 6,3,-1
 240 686 l 5,4,-1
 140 686 l 6,5,6
 123 686 123 686 111.5 674.5 c 132,-1,7
 100 663 100 663 100 646 c 6,8,-1
 100 86 l 5,9,-1
 99 -94 l 6,10,11
 99 -111 99 -111 110.5 -122.5 c 132,-1,12
 122 -134 122 -134 139 -134 c 6,13,-1
 859 -134 l 6,14,15
 875 -134 875 -134 887 -122.5 c 132,-1,16
 899 -111 899 -111 899 -94 c 6,17,-1
 900 66 l 5,18,-1
 900 86 l 5,19,-1
 900 646 l 6,20,21
 900 663 900 663 888.5 674.5 c 132,-1,22
 877 686 877 686 860 686 c 6,23,-1
 760 686 l 5,24,-1
 760 727 l 6,25,26
 760 735 760 735 754.5 740.5 c 132,-1,27
 749 746 749 746 741 746 c 6,28,-1
 699 746 l 6,29,30
 691 746 691 746 685.5 740.5 c 132,-1,31
 680 735 680 735 680 727 c 6,32,-1
 680 686 l 5,33,-1
 612 686 l 5,34,-1
 612 723 l 6,35,36
 612 732 612 732 605 739 c 132,-1,37
 598 746 598 746 589 746 c 6,38,-1
 555 746 l 6,39,40
 546 746 546 746 539 739 c 132,-1,41
 532 732 532 732 532 723 c 6,42,-1
 532 686 l 5,43,-1
 472 686 l 5,44,-1
 472 723 l 6,45,46
 472 732 472 732 465 739 c 132,-1,47
 458 746 458 746 449 746 c 6,48,-1
 415 746 l 6,49,50
 406 746 406 746 399 739 c 132,-1,51
 392 732 392 732 392 723 c 6,52,-1
 392 686 l 5,53,-1
 320 686 l 5,54,-1
 320 727 l 6,55,56
 320 735 320 735 314.5 740.5 c 132,-1,57
 309 746 309 746 301 746 c 6,58,-1
 259 746 l 6,0,1
199 606 m 6,59,-1
 240 606 l 5,60,-1
 240 565 l 6,61,62
 240 557 240 557 245.5 551.5 c 132,-1,63
 251 546 251 546 259 546 c 6,64,-1
 301 546 l 6,65,66
 309 546 309 546 314.5 551.5 c 132,-1,67
 320 557 320 557 320 565 c 6,68,-1
 320 606 l 5,69,-1
 392 606 l 5,70,-1
 392 569 l 6,71,72
 392 560 392 560 399 553 c 132,-1,73
 406 546 406 546 415 546 c 6,74,-1
 449 546 l 6,75,76
 458 546 458 546 465 553 c 132,-1,77
 472 560 472 560 472 569 c 6,78,-1
 472 606 l 5,79,-1
 532 606 l 5,80,-1
 532 569 l 6,81,82
 532 560 532 560 539 553 c 132,-1,83
 546 546 546 546 555 546 c 6,84,-1
 589 546 l 6,85,86
 598 546 598 546 605 553 c 132,-1,87
 612 560 612 560 612 569 c 6,88,-1
 612 606 l 5,89,-1
 680 606 l 5,90,-1
 680 565 l 6,91,92
 680 557 680 557 685.5 551.5 c 132,-1,93
 691 546 691 546 699 546 c 6,94,-1
 741 546 l 6,95,96
 749 546 749 546 754.5 551.5 c 132,-1,97
 760 557 760 557 760 565 c 6,98,-1
 760 606 l 5,99,-1
 801 606 l 6,100,101
 809 606 809 606 814.5 600.5 c 132,-1,102
 820 595 820 595 820 587 c 6,103,-1
 820 86 l 5,104,-1
 819 -35 l 6,105,106
 819 -43 819 -43 813.5 -48.5 c 132,-1,107
 808 -54 808 -54 800 -54 c 6,108,-1
 198 -54 l 6,109,110
 190 -54 190 -54 184.5 -48.5 c 132,-1,111
 179 -43 179 -43 179 -35 c 6,112,-1
 180 66 l 5,113,-1
 180 86 l 5,114,-1
 180 587 l 6,115,116
 180 595 180 595 185.5 600.5 c 132,-1,117
 191 606 191 606 199 606 c 6,59,-1
240 486 m 5,118,-1
 240 426 l 5,119,-1
 760 426 l 5,120,-1
 760 486 l 5,121,-1
 240 486 l 5,118,-1
240 386 m 5,122,-1
 240 326 l 5,123,-1
 600 326 l 5,124,-1
 600 386 l 5,125,-1
 240 386 l 5,122,-1
240 286 m 5,126,-1
 240 226 l 5,127,-1
 660 226 l 5,128,-1
 660 286 l 5,129,-1
 240 286 l 5,126,-1
240 186 m 5,130,-1
 240 126 l 5,131,-1
 720 126 l 5,132,-1
 720 186 l 5,133,-1
 240 186 l 5,130,-1
240 86 m 5,134,-1
 240 26 l 5,135,-1
 540 26 l 5,136,-1
 540 86 l 5,137,-1
 240 86 l 5,134,-1
EndSplineSet
EndChar

StartChar: uni001E
Encoding: 30 30 163
Width: 1024
VWidth: 1024
Flags: W
LayerCount: 2
Fore
SplineSet
280 379 m 5,0,-1
 280 319 l 5,1,-1
 720 319 l 5,2,-1
 720 379 l 5,3,-1
 280 379 l 5,0,-1
280 279 m 5,4,-1
 280 219 l 5,5,-1
 620 219 l 5,6,-1
 620 279 l 5,7,-1
 280 279 l 5,4,-1
280 179 m 5,8,-1
 280 119 l 5,9,-1
 680 119 l 5,10,-1
 680 179 l 5,11,-1
 280 179 l 5,8,-1
280 79 m 5,12,-1
 280 19 l 5,13,-1
 520 19 l 5,14,-1
 520 79 l 5,15,-1
 280 79 l 5,12,-1
185 730 m 6,16,17
 172 730 172 730 163 721 c 132,-1,18
 154 712 154 712 154 699 c 6,19,-1
 154 -101 l 6,20,21
 154 -114 154 -114 163 -123 c 132,-1,22
 172 -132 172 -132 185 -132 c 6,23,-1
 815 -132 l 6,24,25
 828 -132 828 -132 837 -123 c 132,-1,26
 846 -114 846 -114 846 -101 c 6,27,-1
 846 517 l 6,28,29
 846 530 846 530 838 539 c 6,30,-1
 662 720 l 6,31,32
 653 730 653 730 640 730 c 6,33,-1
 185 730 l 6,16,17
216 668 m 5,34,-1
 610 668 l 5,35,-1
 610 507 l 5,36,-1
 610 487 l 5,37,-1
 630 487 l 5,38,-1
 784 487 l 5,39,-1
 784 -70 l 5,40,-1
 216 -70 l 5,41,-1
 216 668 l 5,34,-1
650 643 m 5,42,-1
 762 527 l 5,43,-1
 650 527 l 5,44,-1
 650 643 l 5,42,-1
EndSplineSet
EndChar

StartChar: uni0014
Encoding: 20 20 164
Width: 1024
VWidth: 1024
Flags: W
LayerCount: 2
Fore
SplineSet
620 676 m 4,0,1
 581 636 581 636 570.5 581.5 c 132,-1,2
 560 527 560 527 581 478 c 5,3,4
 468 318 468 318 323 213 c 5,5,6
 274 235 274 235 218 225 c 132,-1,7
 162 215 162 215 122 175 c 4,8,9
 85 138 85 138 73.5 87 c 132,-1,10
 62 36 62 36 78 -10 c 5,11,-1
 181 93 l 5,12,-1
 255 89 l 5,13,-1
 294 50 l 5,14,-1
 298 -24 l 5,15,-1
 195 -127 l 5,16,17
 241 -143 241 -143 292 -131.5 c 132,-1,18
 343 -120 343 -120 380 -83 c 4,19,20
 416 -47 416 -47 428 2.5 c 132,-1,21
 440 52 440 52 425 98 c 5,22,23
 540 256 540 256 704 371 c 5,24,25
 750 359 750 359 796.5 371.5 c 132,-1,26
 843 384 843 384 878 419 c 4,27,28
 915 455 915 455 926.5 506 c 132,-1,29
 938 557 938 557 922 603 c 5,30,-1
 819 500 l 5,31,-1
 745 504 l 5,32,-1
 706 543 l 5,33,-1
 702 618 l 5,34,-1
 805 721 l 5,35,36
 759 736 759 736 708 724.5 c 132,-1,37
 657 713 657 713 620 676 c 4,0,1
EndSplineSet
EndChar

StartChar: uni0013
Encoding: 19 19 165
Width: 1024
VWidth: 1024
Flags: W
LayerCount: 2
Fore
SplineSet
201 558 m 5,0,1
 141 498 141 498 109.5 419 c 132,-1,2
 78 340 78 340 78 260 c 132,-1,3
 78 180 78 180 109.5 101 c 132,-1,4
 141 22 141 22 201 -39 c 4,5,6
 282 -120 282 -120 391 -148.5 c 132,-1,7
 500 -177 500 -177 609 -148.5 c 132,-1,8
 718 -120 718 -120 799 -39 c 4,9,10
 859 22 859 22 890.5 101 c 132,-1,11
 922 180 922 180 922 260 c 132,-1,12
 922 340 922 340 890.5 419 c 132,-1,13
 859 498 859 498 799 558 c 4,14,15
 715 642 715 642 600 670 c 5,16,-1
 625 765 l 5,17,-1
 369 678 l 5,18,-1
 548 475 l 5,19,-1
 574 572 l 5,20,21
 662 552 662 552 727 487 c 4,22,23
 821 392 821 392 821 259.5 c 132,-1,24
 821 127 821 127 727 33 c 132,-1,25
 633 -61 633 -61 500 -61 c 132,-1,26
 367 -61 367 -61 273 33 c 132,-1,27
 179 127 179 127 179 259.5 c 132,-1,28
 179 392 179 392 273 487 c 5,29,-1
 201 558 l 5,0,1
EndSplineSet
EndChar

StartChar: uni0012
Encoding: 18 18 166
Width: 1024
VWidth: 1024
Flags: W
LayerCount: 2
Fore
SplineSet
503 543 m 128,-1,1
 296 542 296 542 93 291 c 0,2,3
 85 282 85 282 85 269 c 2,4,-1
 85 264 l 2,5,6
 85 252 85 252 93 243 c 0,7,8
 290 -5 290 -5 497 -4 c 128,-1,9
 704 -3 704 -3 907 247 c 0,10,11
 915 257 915 257 915 269 c 2,12,-1
 915 274 l 2,13,14
 915 286 915 286 907 296 c 0,15,0
 710 544 710 544 503 543 c 128,-1,1
503 473 m 256,16,17
 668 474 668 474 836 272 c 1,18,19
 662 66 662 66 497 66 c 0,20,21
 332 65 332 65 164 267 c 1,22,23
 338 472 338 472 503 473 c 256,16,17
500 414 m 0,24,25
 442 414 442 414 401 373 c 128,-1,26
 360 332 360 332 360 274 c 128,-1,27
 360 216 360 216 401 175 c 128,-1,28
 442 134 442 134 500 134 c 128,-1,29
 558 134 558 134 599 175 c 128,-1,30
 640 216 640 216 640 274 c 0,31,32
 640 322 640 322 611 359 c 1,33,-1
 520 314 l 1,34,-1
 555 403 l 1,35,36
 529 414 529 414 500 414 c 0,24,25
EndSplineSet
EndChar

StartChar: uni0011
Encoding: 17 17 167
Width: 1024
VWidth: 1024
Flags: W
LayerCount: 2
Fore
SplineSet
229 596 m 4,0,1
 229 595 229 595 229 594 c 6,2,3
 229 594 229 594 229 592 c 260,4,5
 229 590 229 590 228 584 c 5,6,7
 228 566 228 566 228 522 c 4,8,9
 228 376 228 376 228 24 c 4,10,11
 228 14 228 14 234.5 6.5 c 132,-1,12
 241 -1 241 -1 250.5 -2.5 c 132,-1,13
 260 -4 260 -4 268 1 c 6,14,-1
 272 3 l 5,15,-1
 330 37 l 5,16,-1
 758 285 l 5,17,18
 783 302 783 302 766 325 c 4,19,20
 765 326 765 326 764 327 c 132,-1,21
 763 328 763 328 762 329 c 132,-1,22
 761 330 761 330 760 331 c 260,23,24
 759 332 759 332 758 332 c 6,25,-1
 751 337 l 5,26,-1
 698 368 l 5,27,-1
 269 616 l 5,28,29
 253 620 253 620 241.5 614.5 c 132,-1,30
 230 609 230 609 229 596 c 4,0,1
736 335 m 4,31,-1
EndSplineSet
EndChar

StartChar: uni0010
Encoding: 16 16 168
Width: 1024
VWidth: 1024
Flags: W
LayerCount: 2
Fore
SplineSet
853 654 m 132,-1,1
 771 736 771 736 654.5 736 c 132,-1,2
 538 736 538 736 455 654 c 5,3,4
 381 579 381 579 373.5 474 c 132,-1,5
 366 369 366 369 429 286 c 5,6,-1
 385 243 l 5,7,8
 380 244 380 244 374 244 c 4,9,10
 323 250 323 250 283 209 c 6,11,-1
 102 29 l 6,12,13
 71 -3 71 -3 67 -43 c 132,-1,14
 63 -83 63 -83 89 -108.5 c 132,-1,15
 115 -134 115 -134 155 -130.5 c 132,-1,16
 195 -127 195 -127 226 -96 c 6,17,-1
 407 85 l 6,18,19
 442 120 442 120 442 164 c 5,20,21
 444 176 444 176 442 189 c 5,22,-1
 484 231 l 5,23,24
 566 168 566 168 672 174.5 c 132,-1,25
 778 181 778 181 853 256 c 4,26,27
 935 339 935 339 935 455.5 c 132,-1,0
 935 572 935 572 853 654 c 132,-1,1
795 596 m 132,-1,29
 853 538 853 538 853 455.5 c 132,-1,30
 853 373 853 373 795 314.5 c 132,-1,31
 737 256 737 256 654.5 256 c 132,-1,32
 572 256 572 256 513.5 314.5 c 132,-1,33
 455 373 455 373 455 455.5 c 132,-1,34
 455 538 455 538 513.5 596 c 132,-1,35
 572 654 572 654 654.5 654 c 132,-1,28
 737 654 737 654 795 596 c 132,-1,29
EndSplineSet
EndChar

StartChar: uni000F
Encoding: 15 15 169
Width: 1000
VWidth: 0
LayerCount: 2
Fore
SplineSet
251 546 m 5,0,-1
 749 546 l 5,1,-1
 749 81 l 5,2,-1
 251 81 l 5,3,-1
 251 546 l 5,0,-1
EndSplineSet
EndChar

StartChar: uni000B
Encoding: 11 11 170
Width: 1000
Flags: W
LayerCount: 2
Fore
SplineSet
787 669.6 m 0,0,1
 838.117 652.414 838.117 652.414 875.846 624.63 c 128,-1,2
 913.576 596.846 913.576 596.846 931.368 568.136 c 128,-1,3
 949.16 539.426 949.16 539.426 956.235 511.811 c 128,-1,4
 963.31 484.196 963.31 484.196 958.272 464.184 c 128,-1,5
 953.234 444.173 953.234 444.173 940.15 436.95 c 0,6,7
 929.277 430.921 929.277 430.921 909.198 430.82 c 128,-1,8
 889.119 430.719 889.119 430.719 868.32 431.21 c 128,-1,9
 847.522 431.7 847.522 431.7 824.94 427.831 c 128,-1,10
 802.358 423.961 802.358 423.961 780.042 406.14 c 128,-1,11
 757.727 388.319 757.727 388.319 741.05 355.85 c 1,12,13
 728.358 326.672 728.358 326.672 730.985 306 c 128,-1,14
 733.612 285.327 733.612 285.327 748.384 265.759 c 128,-1,15
 763.156 246.19 763.156 246.19 779.405 232.953 c 128,-1,16
 795.654 219.716 795.654 219.716 810.207 205.408 c 128,-1,17
 824.76 191.101 824.76 191.101 826.95 180.95 c 0,18,19
 829.806 167.713 829.806 167.713 822.884 145.111 c 128,-1,20
 815.962 122.509 815.962 122.509 793.791 90.8448 c 128,-1,21
 771.621 59.1807 771.621 59.1807 737.179 28.1515 c 128,-1,22
 702.737 -2.8777 702.737 -2.8777 642.746 -34.0463 c 128,-1,23
 582.756 -65.2149 582.756 -65.2149 508 -85.7498 c 1,24,25
 384.349 -117.978 384.349 -117.978 287.561 -96.1147 c 128,-1,26
 190.774 -74.2516 190.774 -74.2516 127.489 -10.0017 c 128,-1,27
 64.205 54.2482 64.205 54.2482 45.8502 146.8 c 0,28,29
 30.6967 223.332 30.6967 223.332 52.9706 314.068 c 128,-1,30
 75.2445 404.805 75.2445 404.805 128.28 484.066 c 128,-1,31
 181.315 563.328 181.315 563.328 251.001 605.901 c 0,32,33
 508.312 763.287 508.312 763.287 787 669.6 c 0,0,1
604.7 134.3 m 128,-1,35
 634.62 142.474 634.62 142.474 649.936 169.554 c 128,-1,36
 665.251 196.633 665.251 196.633 657 226.75 c 128,-1,37
 648.717 256.922 648.717 256.922 621.753 272.401 c 128,-1,38
 594.79 287.879 594.79 287.879 564.849 279.7 c 128,-1,39
 534.907 271.52 534.907 271.52 519.587 244.47 c 128,-1,40
 504.267 217.42 504.267 217.42 512.55 187.25 c 128,-1,41
 520.799 157.138 520.799 157.138 547.787 141.632 c 128,-1,34
 574.774 126.125 574.774 126.125 604.7 134.3 c 128,-1,35
EndSplineSet
EndChar

StartChar: uni000C
Encoding: 12 12 171
Width: 1000
Flags: W
LayerCount: 2
Fore
SplineSet
500 602 m 128,-1,1
 459 602 459 602 429.5 631.5 c 128,-1,2
 400 661 400 661 400 702 c 128,-1,3
 400 743 400 743 429.5 772.5 c 128,-1,4
 459 802 459 802 500 802 c 128,-1,5
 541 802 541 802 570.5 772.5 c 128,-1,6
 600 743 600 743 600 702 c 128,-1,7
 600 661 600 661 570.5 631.5 c 128,-1,0
 541 602 541 602 500 602 c 128,-1,1
798.9 222.85 m 0,8,9
 803.962 199.487 803.962 199.487 788.656 185.552 c 128,-1,10
 773.351 171.616 773.351 171.616 752.561 176.648 c 128,-1,11
 731.771 181.681 731.771 181.681 723.35 205.05 c 0,12,13
 721.729 209.54 721.729 209.54 718.595 218.276 c 0,14,15
 702.766 262.368 702.766 262.368 693.826 284.907 c 128,-1,16
 684.886 307.447 684.886 307.447 668.052 338.327 c 128,-1,17
 651.217 369.208 651.217 369.208 631.4 391.85 c 1,18,19
 621.144 328.702 621.144 328.702 636.906 226.362 c 128,-1,20
 652.668 124.022 652.668 124.022 675.361 15.0225 c 128,-1,21
 698.055 -93.9775 698.055 -93.9775 700 -147.999 c 0,22,23
 700 -168.999 700 -168.999 685.5 -183.499 c 128,-1,24
 671 -197.999 671 -197.999 650 -197.999 c 0,25,26
 634.229 -197.999 634.229 -197.999 621.501 -189.097 c 128,-1,27
 608.774 -180.193 608.774 -180.193 603.3 -165.899 c 1,28,29
 593.145 -130.633 593.145 -130.633 567.319 -55.5947 c 128,-1,30
 541.494 19.4424 541.494 19.4424 520.746 76.8467 c 2,31,-1
 499.999 134.251 l 1,32,-1
 499.999 134.251 l 1,33,34
 419.504 -86.7051 419.504 -86.7051 396.699 -165.899 c 1,35,36
 391.225 -180.193 391.225 -180.193 378.498 -189.097 c 128,-1,37
 365.771 -197.999 365.771 -197.999 349.999 -197.999 c 0,38,39
 328.999 -197.999 328.999 -197.999 314.499 -183.499 c 128,-1,40
 299.999 -168.999 299.999 -168.999 299.999 -147.999 c 0,41,42
 301.944 -93.9795 301.944 -93.9795 324.638 15.0234 c 128,-1,43
 347.331 124.025 347.331 124.025 363.094 226.378 c 128,-1,44
 378.855 328.731 378.855 328.731 368.599 391.9 c 1,45,46
 347.621 367.933 347.621 367.933 329.389 333.171 c 128,-1,47
 311.156 298.41 311.156 298.41 303.626 278.729 c 128,-1,48
 296.097 259.047 296.097 259.047 276.649 205.1 c 0,49,50
 268.205 181.708 268.205 181.708 247.416 176.664 c 128,-1,51
 226.627 171.62 226.627 171.62 211.332 185.553 c 128,-1,52
 196.036 199.485 196.036 199.485 201.099 222.85 c 0,53,54
 251.195 453.813 251.195 453.813 303.2 517.55 c 0,55,56
 353.049 578.65 353.049 578.65 500 578.65 c 128,-1,57
 646.951 578.65 646.951 578.65 696.8 517.55 c 0,58,59
 748.804 453.813 748.804 453.813 798.9 222.85 c 0,8,9
EndSplineSet
EndChar

StartChar: uni000D
Encoding: 13 13 172
Width: 1000
Flags: W
LayerCount: 2
Fore
SplineSet
839.15 320 m 132,-1,1
 839.15 245.238 839.15 245.238 920.1 197.9 c 5,2,3
 907.015 154.085 907.015 154.085 885.5 114.3 c 5,4,5
 813.021 133.136 813.021 133.136 749.949 70.1504 c 4,6,7
 694.752 14.9521 694.752 14.9521 715.799 -65.4014 c 5,8,9
 676.14 -86.8086 676.14 -86.8086 632.199 -100.051 c 5,10,11
 610.724 -63.3662 610.724 -63.3662 574.896 -41.2832 c 132,-1,12
 539.068 -19.2012 539.068 -19.2012 500.049 -19.2012 c 132,-1,13
 460.979 -19.2012 460.979 -19.2012 425.153 -41.2725 c 132,-1,14
 389.327 -63.3438 389.327 -63.3438 367.899 -100.051 c 5,15,16
 324.196 -86.9775 324.196 -86.9775 284.299 -65.4014 c 5,17,18
 305.321 14.8525 305.321 14.8525 250.099 70.1504 c 132,-1,19
 195.03 125.293 195.03 125.293 114.549 104.25 c 5,20,21
 93.1963 143.809 93.1963 143.809 79.999 187.85 c 5,22,23
 116.62 209.331 116.62 209.331 138.685 245.162 c 132,-1,24
 160.749 280.993 160.749 280.993 160.749 320 c 4,25,26
 160.749 394.865 160.749 394.865 79.999 442.149 c 5,27,28
 93.0801 486.051 93.0801 486.051 114.549 525.749 c 5,29,30
 187.14 506.769 187.14 506.769 250.099 569.899 c 4,31,32
 305.353 624.93 305.353 624.93 284.299 705.449 c 5,33,34
 324.458 727.167 324.458 727.167 367.849 739.999 c 5,35,36
 389.336 703.369 389.336 703.369 425.149 681.31 c 132,-1,37
 460.963 659.249 460.963 659.249 499.999 659.249 c 132,-1,38
 539.01 659.249 539.01 659.249 574.833 681.315 c 132,-1,39
 610.657 703.382 610.657 703.382 632.099 739.999 c 5,40,41
 675.691 727.085 675.691 727.085 715.699 705.449 c 5,42,43
 694.666 625.008 694.666 625.008 749.849 569.899 c 4,44,45
 812.891 506.772 812.891 506.772 885.4 525.749 c 5,46,47
 906.644 486.469 906.644 486.469 920 442.149 c 5,48,0
 839.15 394.854 839.15 394.854 839.15 320 c 132,-1,1
500 137.4 m 132,-1,50
 575.676 137.4 575.676 137.4 629.138 190.862 c 132,-1,51
 682.601 244.324 682.601 244.324 682.6 320 c 132,-1,52
 682.6 395.655 682.6 395.655 629.128 449.178 c 132,-1,53
 575.657 502.7 575.657 502.7 500 502.7 c 132,-1,54
 424.358 502.7 424.358 502.7 370.854 449.186 c 132,-1,55
 317.35 395.671 317.35 395.671 317.35 320 c 132,-1,56
 317.35 244.358 317.35 244.358 370.839 190.88 c 132,-1,49
 424.328 137.4 424.328 137.4 500 137.4 c 132,-1,50
EndSplineSet
EndChar

StartChar: uni000E
Encoding: 14 14 173
Width: 1000
Flags: W
LayerCount: 2
Fore
SplineSet
799.45 -154.45 m 2,0,-1
 800 -198 l 1,1,-1
 0 -198 l 1,2,-1
 0.549805 -154.45 l 1,3,4
 0.117188 -70.6689 0.117188 -70.6689 31.4746 -16.1982 c 128,-1,5
 62.833 38.2725 62.833 38.2725 139.7 71.3496 c 0,6,7
 180.133 88.749 180.133 88.749 202.854 102.948 c 128,-1,8
 225.576 117.148 225.576 117.148 237.824 136.136 c 128,-1,9
 250.071 155.123 250.071 155.123 253.286 174.279 c 128,-1,10
 256.5 193.437 256.5 193.437 256.5 227.55 c 0,11,12
 256.5 243.914 256.5 243.914 251.112 255.286 c 128,-1,13
 245.725 266.657 245.725 266.657 238.596 273.86 c 128,-1,14
 231.466 281.062 231.466 281.062 223.034 301.153 c 128,-1,15
 214.603 321.244 214.603 321.244 209.85 351.6 c 0,16,17
 207.96 363.545 207.96 363.545 201.865 369.025 c 128,-1,18
 195.771 374.506 195.771 374.506 189.581 376.578 c 128,-1,19
 183.392 378.651 183.392 378.651 177.482 393.726 c 128,-1,20
 171.573 408.799 171.573 408.799 169.7 438.05 c 0,21,22
 169.7 453.25 169.7 453.25 173.625 463.925 c 128,-1,23
 177.551 474.6 177.551 474.6 181.476 477.675 c 2,24,-1
 185.4 480.75 l 1,25,26
 177.493 531.477 177.493 531.477 174.25 570.4 c 0,27,28
 172 599.651 172 599.651 186.914 636.956 c 128,-1,29
 201.828 674.262 201.828 674.262 236.25 699.9 c 0,30,31
 250.853 710.451 250.853 710.451 275.707 732.937 c 128,-1,32
 300.562 755.421 300.562 755.421 316.317 767.219 c 128,-1,33
 332.072 779.016 332.072 779.016 363.35 788.621 c 128,-1,34
 394.627 798.226 394.627 798.226 433.95 796.4 c 1,35,36
 372.795 764.03 372.795 764.03 410.6 725.2 c 1,37,38
 444.161 715.765 444.161 715.765 468.838 695.88 c 128,-1,39
 493.515 675.994 493.515 675.994 505.336 652.713 c 128,-1,40
 517.157 629.432 517.157 629.432 522.074 608.501 c 128,-1,41
 526.991 587.57 526.991 587.57 525.65 570.45 c 2,42,-1
 514.6 480.8 l 1,43,44
 530.25 472.232 530.25 472.232 530.25 438.1 c 1,45,46
 528.377 408.864 528.377 408.864 522.482 393.795 c 128,-1,47
 516.587 378.727 516.587 378.727 510.413 376.647 c 128,-1,48
 504.239 374.569 504.239 374.569 498.148 369.081 c 128,-1,49
 492.057 363.594 492.057 363.594 490.15 351.65 c 0,50,51
 485.397 321.295 485.397 321.295 476.974 301.203 c 128,-1,52
 468.55 281.112 468.55 281.112 461.43 273.91 c 128,-1,53
 454.31 266.707 454.31 266.707 448.93 255.336 c 128,-1,54
 443.55 243.965 443.55 243.965 443.55 227.6 c 0,55,56
 443.55 166.098 443.55 166.098 473.52 130.743 c 128,-1,57
 503.49 95.3887 503.49 95.3887 583.6 60.9004 c 0,58,59
 629.186 41.2627 629.186 41.2627 663.291 22.1523 c 128,-1,60
 697.396 3.04297 697.396 3.04297 730.751 -23.3643 c 128,-1,61
 764.104 -49.7705 764.104 -49.7705 781.876 -83.0527 c 128,-1,62
 799.647 -116.334 799.647 -116.334 799.45 -154.45 c 2,0,-1
850 302 m 1,63,-1
 1000 302 l 1,64,-1
 1000 202 l 1,65,-1
 850 202 l 1,66,-1
 850 52 l 1,67,-1
 750 52 l 1,68,-1
 750 202 l 1,69,-1
 600 202 l 1,70,-1
 600 302 l 1,71,-1
 750 302 l 1,72,-1
 750 452 l 1,73,-1
 850 452 l 1,74,-1
 850 302 l 1,63,-1
EndSplineSet
EndChar
